<svg width="390" height="844" viewBox="0 0 390 844" fill="none" xmlns="http://www.w3.org/2000/svg">
  <rect width="390" height="844" rx="36" fill="#F2F2F7"/>
  <text x="24" y="64" font-family="Arial" font-size="34" font-weight="800" fill="#111111">Garden Map</text>
  <text x="24" y="91" font-family="Arial" font-size="16" fill="#6E6E73">Tap a bed to inspect spray status</text>
  <rect x="24" y="120" width="342" height="500" rx="22" fill="white"/>
  <g stroke="#E5E5EA" stroke-width="0.7">
    <path d="M44 140 V600 M64 140 V600 M84 140 V600 M104 140 V600 M124 140 V600 M144 140 V600 M164 140 V600 M184 140 V600 M204 140 V600 M224 140 V600 M244 140 V600 M264 140 V600 M284 140 V600 M304 140 V600 M324 140 V600"/>
    <path d="M44 145 H346 M44 165 H346 M44 185 H346 M44 205 H346 M44 225 H346 M44 245 H346 M44 265 H346 M44 285 H346 M44 305 H346 M44 325 H346 M44 345 H346 M44 365 H346 M44 385 H346 M44 405 H346 M44 425 H346 M44 445 H346 M44 465 H346 M44 485 H346 M44 505 H346 M44 525 H346 M44 545 H346 M44 565 H346 M44 585 H346"/>
  </g>
  <rect x="196" y="170" width="16" height="370" rx="4" fill="#9A9AA0"/>
  <rect x="188" y="203" width="77" height="16" rx="4" fill="#9A9AA0"/>
  <rect x="188" y="523" width="77" height="16" rx="4" fill="#9A9AA0"/>
  <g font-family="Arial" font-weight="800" text-anchor="middle">
    <rect x="55" y="150" width="137" height="150" rx="10" fill="white" stroke="#7A3B12" stroke-width="2"/>
    <line x1="151" y1="154" x2="151" y2="296" stroke="#7A3B12" stroke-opacity="0.35" stroke-width="1.4"/>
    <circle cx="123" cy="225" r="15" fill="white" stroke="#111" stroke-width="2"/><text x="123" y="231" font-size="15" fill="#111">2</text>
    <rect x="65" y="162" width="40" height="52" rx="7" fill="white" stroke="#7A3B12" stroke-width="2"/>
    <circle cx="85" cy="188" r="15" fill="white" stroke="#111" stroke-width="2"/><text x="85" y="194" font-size="15" fill="#111">1</text>

    <rect x="207" y="150" width="50" height="52" rx="8" fill="white" stroke="#7A3B12" stroke-width="2"/><circle cx="232" cy="176" r="15" fill="white" stroke="#111" stroke-width="2"/><text x="232" y="182" font-size="15" fill="#111">3</text>
    <rect x="276" y="145" width="76" height="44" rx="8" fill="#FFF1D6" stroke="#FF9500" stroke-width="3"/><circle cx="314" cy="167" r="15" fill="white" stroke="#111" stroke-width="2"/><text x="314" y="173" font-size="15" fill="#111">4</text>
    <rect x="276" y="204" width="76" height="44" rx="8" fill="#FFF1D6" stroke="#FF9500" stroke-width="2"/><circle cx="314" cy="226" r="15" fill="white" stroke="#111" stroke-width="2"/><text x="314" y="232" font-size="15" fill="#111">5</text>
    <rect x="276" y="263" width="76" height="44" rx="8" fill="white" stroke="#7A3B12" stroke-width="2"/><circle cx="314" cy="285" r="15" fill="white" stroke="#111" stroke-width="2"/><text x="314" y="291" font-size="15" fill="#111">6</text>
    <rect x="276" y="322" width="76" height="44" rx="8" fill="white" stroke="#7A3B12" stroke-width="2"/><circle cx="314" cy="344" r="15" fill="white" stroke="#111" stroke-width="2"/><text x="314" y="350" font-size="15" fill="#111">7</text>
    <rect x="276" y="381" width="76" height="38" rx="8" fill="#FFF1D6" stroke="#FF9500" stroke-width="2"/><circle cx="314" cy="400" r="15" fill="white" stroke="#111" stroke-width="2"/><text x="314" y="406" font-size="15" fill="#111">8</text>
    <rect x="276" y="435" width="76" height="44" rx="8" fill="white" stroke="#7A3B12" stroke-width="2"/><circle cx="314" cy="457" r="15" fill="white" stroke="#111" stroke-width="2"/><text x="314" y="463" font-size="15" fill="#111">9</text>
    <rect x="276" y="494" width="76" height="44" rx="8" fill="white" stroke="#7A3B12" stroke-width="2"/><circle cx="314" cy="516" r="15" fill="white" stroke="#111" stroke-width="2"/><text x="314" y="522" font-size="14" fill="#111">10</text>
    <rect x="276" y="553" width="76" height="34" rx="8" fill="white" stroke="#7A3B12" stroke-width="2"/><circle cx="314" cy="570" r="15" fill="white" stroke="#111" stroke-width="2"/><text x="314" y="576" font-size="14" fill="#111">11</text>

    <rect x="55" y="320" width="137" height="38" rx="8" fill="white" stroke="#7A3B12" stroke-width="2"/><circle cx="123" cy="339" r="15" fill="white" stroke="#111" stroke-width="2"/><text x="123" y="345" font-size="14" fill="#111">12</text>
    <rect x="55" y="380" width="137" height="38" rx="8" fill="white" stroke="#7A3B12" stroke-width="2"/><circle cx="123" cy="399" r="15" fill="white" stroke="#111" stroke-width="2"/><text x="123" y="405" font-size="14" fill="#111">13</text>
    <rect x="55" y="440" width="137" height="38" rx="8" fill="white" stroke="#7A3B12" stroke-width="2"/><circle cx="123" cy="459" r="15" fill="white" stroke="#111" stroke-width="2"/><text x="123" y="465" font-size="14" fill="#111">14</text>
    <rect x="55" y="500" width="137" height="38" rx="8" fill="white" stroke="#7A3B12" stroke-width="2"/><circle cx="123" cy="519" r="15" fill="white" stroke="#111" stroke-width="2"/><text x="123" y="525" font-size="14" fill="#111">15</text>
    <rect x="55" y="585" width="297" height="18" rx="7" fill="white" stroke="#7A3B12" stroke-width="2"/><circle cx="204" cy="594" r="15" fill="white" stroke="#111" stroke-width="2"/><text x="204" y="600" font-size="14" fill="#111">16</text>
    <rect x="55" y="128" width="297" height="18" rx="7" fill="#FFF1D6" stroke="#FF9500" stroke-width="2"/><circle cx="204" cy="137" r="15" fill="white" stroke="#111" stroke-width="2"/><text x="204" y="143" font-size="14" fill="#111">17</text>
  </g>
  <rect x="24" y="642" width="342" height="150" rx="22" fill="white"/>
  <text x="48" y="682" font-family="Arial" font-size="22" font-weight="800" fill="#111">Bed 4</text>
  <rect x="302" y="661" width="44" height="26" rx="13" fill="#FFF1D6"/>
  <text x="312" y="679" font-family="Arial" font-size="12" font-weight="700" fill="#FF9500">Wait</text>
  <text x="48" y="716" font-family="Arial" font-size="16" font-weight="700" fill="#111">Strawberries</text>
  <text x="48" y="741" font-family="Arial" font-size="14" fill="#6E6E73">Neem oil · safe 20 May</text>
  <rect x="48" y="758" width="270" height="42" rx="14" fill="#34C759"/>
  <text x="100" y="785" font-family="Arial" font-size="15" font-weight="800" fill="white">Log spray for Bed 4</text>
</svg>
