<svg width="390" height="844" viewBox="0 0 390 844" fill="none" xmlns="http://www.w3.org/2000/svg">
  <rect width="390" height="844" rx="36" fill="#F2F2F7"/>
  <text x="24" y="64" font-family="Arial" font-size="34" font-weight="800" fill="#111111">Garden Map</text>
  <text x="24" y="91" font-family="Arial" font-size="16" fill="#6E6E73">Schematic map with room for plant icons</text>
  <rect x="24" y="120" width="342" height="520" rx="22" fill="white"/>
  <g stroke="#E5E5EA" stroke-width="0.7">
    <path d="M44 140 V620 M64 140 V620 M84 140 V620 M104 140 V620 M124 140 V620 M144 140 V620 M164 140 V620 M184 140 V620 M204 140 V620 M224 140 V620 M244 140 V620 M264 140 V620 M284 140 V620 M304 140 V620 M324 140 V620"/>
    <path d="M44 145 H346 M44 165 H346 M44 185 H346 M44 205 H346 M44 225 H346 M44 245 H346 M44 265 H346 M44 285 H346 M44 305 H346 M44 325 H346 M44 345 H346 M44 365 H346 M44 385 H346 M44 405 H346 M44 425 H346 M44 445 H346 M44 465 H346 M44 485 H346 M44 505 H346 M44 525 H346 M44 545 H346 M44 565 H346 M44 585 H346 M44 605 H346"/>
  </g>
  <rect x="205" y="206" width="16" height="360" rx="4" fill="#9A9AA0"/>
  <rect x="195" y="234" width="70" height="16" rx="4" fill="#9A9AA0"/>
  <rect x="195" y="553" width="70" height="16" rx="4" fill="#9A9AA0"/>
  <g font-family="Arial" font-weight="800" text-anchor="middle">
    <rect x="45" y="158" width="151" height="148" rx="11" fill="white" stroke="#7A3B12" stroke-width="2"/>
    <line x1="154" y1="166" x2="154" y2="298" stroke="#7A3B12" stroke-opacity="0.35" stroke-width="1.4"/>
    <circle cx="121" cy="232" r="15" fill="white" stroke="#111" stroke-width="2"/><text x="121" y="238" font-size="15" fill="#111">2</text>
    <rect x="60" y="174" width="38" height="49" rx="7" fill="white" stroke="#7A3B12" stroke-width="2"/>
    <circle cx="79" cy="199" r="15" fill="white" stroke="#111" stroke-width="2"/><text x="79" y="205" font-size="15" fill="#111">1</text>

    <rect x="218" y="170" width="44" height="52" rx="8" fill="white" stroke="#7A3B12" stroke-width="2"/><circle cx="240" cy="196" r="15" fill="white" stroke="#111" stroke-width="2"/><text x="240" y="202" font-size="15" fill="#111">3</text>
    <rect x="282" y="158" width="65" height="42" rx="8" fill="#FFF1D6" stroke="#FF9500" stroke-width="3"/><circle cx="315" cy="179" r="15" fill="white" stroke="#111" stroke-width="2"/><text x="315" y="185" font-size="15" fill="#111">4</text>
    <rect x="282" y="215" width="65" height="42" rx="8" fill="#FFF1D6" stroke="#FF9500" stroke-width="2"/><circle cx="315" cy="236" r="15" fill="white" stroke="#111" stroke-width="2"/><text x="315" y="242" font-size="15" fill="#111">5</text>
    <rect x="282" y="272" width="65" height="42" rx="8" fill="white" stroke="#7A3B12" stroke-width="2"/><circle cx="315" cy="293" r="15" fill="white" stroke="#111" stroke-width="2"/><text x="315" y="299" font-size="15" fill="#111">6</text>
    <rect x="282" y="329" width="65" height="42" rx="8" fill="white" stroke="#7A3B12" stroke-width="2"/><circle cx="315" cy="350" r="15" fill="white" stroke="#111" stroke-width="2"/><text x="315" y="356" font-size="15" fill="#111">7</text>
    <rect x="282" y="386" width="65" height="36" rx="8" fill="#FFF1D6" stroke="#FF9500" stroke-width="2"/><circle cx="315" cy="404" r="15" fill="white" stroke="#111" stroke-width="2"/><text x="315" y="410" font-size="15" fill="#111">8</text>
    <rect x="282" y="443" width="65" height="42" rx="8" fill="white" stroke="#7A3B12" stroke-width="2"/><circle cx="315" cy="464" r="15" fill="white" stroke="#111" stroke-width="2"/><text x="315" y="470" font-size="15" fill="#111">9</text>
    <rect x="282" y="500" width="65" height="42" rx="8" fill="white" stroke="#7A3B12" stroke-width="2"/><circle cx="315" cy="521" r="15" fill="white" stroke="#111" stroke-width="2"/><text x="315" y="527" font-size="14" fill="#111">10</text>
    <rect x="282" y="557" width="65" height="42" rx="8" fill="white" stroke="#7A3B12" stroke-width="2"/><circle cx="315" cy="578" r="15" fill="white" stroke="#111" stroke-width="2"/><text x="315" y="584" font-size="14" fill="#111">11</text>

    <rect x="45" y="332" width="151" height="39" rx="8" fill="white" stroke="#7A3B12" stroke-width="2"/><circle cx="121" cy="352" r="15" fill="white" stroke="#111" stroke-width="2"/><text x="121" y="358" font-size="14" fill="#111">12</text>
    <rect x="45" y="394" width="151" height="39" rx="8" fill="white" stroke="#7A3B12" stroke-width="2"/><circle cx="121" cy="414" r="15" fill="white" stroke="#111" stroke-width="2"/><text x="121" y="420" font-size="14" fill="#111">13</text>
    <rect x="45" y="456" width="151" height="39" rx="8" fill="white" stroke="#7A3B12" stroke-width="2"/><circle cx="121" cy="476" r="15" fill="white" stroke="#111" stroke-width="2"/><text x="121" y="482" font-size="14" fill="#111">14</text>
    <rect x="45" y="518" width="151" height="39" rx="8" fill="white" stroke="#7A3B12" stroke-width="2"/><circle cx="121" cy="538" r="15" fill="white" stroke="#111" stroke-width="2"/><text x="121" y="544" font-size="14" fill="#111">15</text>
    <rect x="45" y="608" width="302" height="18" rx="7" fill="white" stroke="#7A3B12" stroke-width="2"/><circle cx="196" cy="617" r="15" fill="white" stroke="#111" stroke-width="2"/><text x="196" y="623" font-size="14" fill="#111">16</text>
    <rect x="45" y="128" width="302" height="18" rx="7" fill="#FFF1D6" stroke="#FF9500" stroke-width="2"/><circle cx="196" cy="137" r="15" fill="white" stroke="#111" stroke-width="2"/><text x="196" y="143" font-size="14" fill="#111">17</text>
  </g>
  <rect x="24" y="662" width="342" height="150" rx="22" fill="white"/>
  <text x="48" y="702" font-family="Arial" font-size="22" font-weight="800" fill="#111">Bed 4</text>
  <rect x="302" y="681" width="44" height="26" rx="13" fill="#FFF1D6"/>
  <text x="312" y="699" font-family="Arial" font-size="12" font-weight="700" fill="#FF9500">Wait</text>
  <text x="48" y="736" font-family="Arial" font-size="16" font-weight="700" fill="#111">Strawberries</text>
  <text x="48" y="761" font-family="Arial" font-size="14" fill="#6E6E73">Neem oil · safe 20 May</text>
  <rect x="48" y="778" width="270" height="42" rx="14" fill="#34C759"/>
  <text x="100" y="805" font-family="Arial" font-size="15" font-weight="800" fill="white">Log spray for Bed 4</text>
</svg>
