<svg width="390" height="844" viewBox="0 0 390 844" fill="none" xmlns="http://www.w3.org/2000/svg">
  <rect width="390" height="844" rx="36" fill="#F2F2F7"/>
  <text x="24" y="64" font-family="Arial" font-size="34" font-weight="800" fill="#111111">Garden Map</text>
  <text x="24" y="91" font-family="Arial" font-size="16" fill="#6E6E73">Tap a bed to inspect spray status</text>
  <rect x="24" y="120" width="342" height="470" rx="22" fill="white"/>
  <g stroke="#E5E5EA" stroke-width="0.7">
    <path d="M44 140 V570 M64 140 V570 M84 140 V570 M104 140 V570 M124 140 V570 M144 140 V570 M164 140 V570 M184 140 V570 M204 140 V570 M224 140 V570 M244 140 V570 M264 140 V570 M284 140 V570 M304 140 V570 M324 140 V570"/>
    <path d="M44 145 H346 M44 165 H346 M44 185 H346 M44 205 H346 M44 225 H346 M44 245 H346 M44 265 H346 M44 285 H346 M44 305 H346 M44 325 H346 M44 345 H346 M44 365 H346 M44 385 H346 M44 405 H346 M44 425 H346 M44 445 H346 M44 465 H346 M44 485 H346 M44 505 H346 M44 525 H346 M44 545 H346"/>
  </g>
  <rect x="122" y="158" width="12" height="144" rx="3" fill="#9A9AA0"/>
  <rect x="214" y="158" width="12" height="286" rx="3" fill="#9A9AA0"/>
  <g font-family="Arial" font-weight="800" text-anchor="middle">
    <rect x="60" y="145" width="55" height="36" rx="8" fill="white" stroke="#7A3B12" stroke-width="2"/><circle cx="87" cy="163" r="15" fill="white" stroke="#111" stroke-width="2"/><text x="87" y="169" font-size="15" fill="#111">1</text>
    <rect x="60" y="190" width="128" height="132" rx="8" fill="white" stroke="#7A3B12" stroke-width="2"/><circle cx="124" cy="256" r="15" fill="white" stroke="#111" stroke-width="2"/><text x="124" y="262" font-size="15" fill="#111">2</text>
    <rect x="206" y="145" width="36" height="36" rx="8" fill="white" stroke="#7A3B12" stroke-width="2"/><circle cx="224" cy="163" r="15" fill="white" stroke="#111" stroke-width="2"/><text x="224" y="169" font-size="15" fill="#111">3</text>
    <rect x="250" y="145" width="96" height="46" rx="8" fill="#FFF1D6" stroke="#FF9500" stroke-width="3"/><circle cx="298" cy="168" r="15" fill="white" stroke="#111" stroke-width="2"/><text x="298" y="174" font-size="15" fill="#111">4</text>
    <rect x="250" y="202" width="96" height="46" rx="8" fill="#FFF1D6" stroke="#FF9500" stroke-width="2"/><circle cx="298" cy="225" r="15" fill="white" stroke="#111" stroke-width="2"/><text x="298" y="231" font-size="15" fill="#111">5</text>
    <rect x="250" y="260" width="96" height="46" rx="8" fill="white" stroke="#7A3B12" stroke-width="2"/><circle cx="298" cy="283" r="15" fill="white" stroke="#111" stroke-width="2"/><text x="298" y="289" font-size="15" fill="#111">6</text>
    <rect x="250" y="318" width="96" height="46" rx="8" fill="white" stroke="#7A3B12" stroke-width="2"/><circle cx="298" cy="341" r="15" fill="white" stroke="#111" stroke-width="2"/><text x="298" y="347" font-size="15" fill="#111">7</text>
    <rect x="250" y="378" width="96" height="34" rx="8" fill="#FFF1D6" stroke="#FF9500" stroke-width="2"/><circle cx="298" cy="395" r="15" fill="white" stroke="#111" stroke-width="2"/><text x="298" y="401" font-size="15" fill="#111">8</text>
    <rect x="250" y="426" width="96" height="46" rx="8" fill="white" stroke="#7A3B12" stroke-width="2"/><circle cx="298" cy="449" r="15" fill="white" stroke="#111" stroke-width="2"/><text x="298" y="455" font-size="15" fill="#111">9</text>
    <rect x="250" y="484" width="96" height="46" rx="8" fill="white" stroke="#7A3B12" stroke-width="2"/><circle cx="298" cy="507" r="15" fill="white" stroke="#111" stroke-width="2"/><text x="298" y="513" font-size="14" fill="#111">10</text>
    <rect x="250" y="542" width="96" height="36" rx="8" fill="white" stroke="#7A3B12" stroke-width="2"/><circle cx="298" cy="560" r="15" fill="white" stroke="#111" stroke-width="2"/><text x="298" y="566" font-size="14" fill="#111">11</text>
    <rect x="58" y="334" width="130" height="46" rx="8" fill="white" stroke="#7A3B12" stroke-width="2"/><circle cx="123" cy="357" r="15" fill="white" stroke="#111" stroke-width="2"/><text x="123" y="363" font-size="14" fill="#111">12</text>
    <rect x="58" y="398" width="130" height="46" rx="8" fill="white" stroke="#7A3B12" stroke-width="2"/><circle cx="123" cy="421" r="15" fill="white" stroke="#111" stroke-width="2"/><text x="123" y="427" font-size="14" fill="#111">13</text>
    <rect x="58" y="462" width="130" height="46" rx="8" fill="white" stroke="#7A3B12" stroke-width="2"/><circle cx="123" cy="485" r="15" fill="white" stroke="#111" stroke-width="2"/><text x="123" y="491" font-size="14" fill="#111">14</text>
    <rect x="34" y="526" width="154" height="42" rx="8" fill="white" stroke="#7A3B12" stroke-width="2"/><circle cx="111" cy="547" r="15" fill="white" stroke="#111" stroke-width="2"/><text x="111" y="553" font-size="14" fill="#111">15</text>
    <rect x="34" y="584" width="312" height="20" rx="7" fill="white" stroke="#7A3B12" stroke-width="2"/><circle cx="190" cy="594" r="15" fill="white" stroke="#111" stroke-width="2"/><text x="190" y="600" font-size="14" fill="#111">16</text>
    <rect x="56" y="128" width="290" height="16" rx="7" fill="#FFF1D6" stroke="#FF9500" stroke-width="2"/><circle cx="201" cy="136" r="15" fill="white" stroke="#111" stroke-width="2"/><text x="201" y="142" font-size="14" fill="#111">17</text>
  </g>
  <rect x="24" y="612" width="342" height="150" rx="22" fill="white"/>
  <text x="48" y="652" font-family="Arial" font-size="22" font-weight="800" fill="#111">Bed 4</text>
  <rect x="302" y="631" width="44" height="26" rx="13" fill="#FFF1D6"/>
  <text x="312" y="649" font-family="Arial" font-size="12" font-weight="700" fill="#FF9500">Wait</text>
  <text x="48" y="686" font-family="Arial" font-size="16" font-weight="700" fill="#111">Strawberries</text>
  <text x="48" y="711" font-family="Arial" font-size="14" fill="#6E6E73">Neem oil · safe 20 May</text>
  <rect x="48" y="728" width="270" height="42" rx="14" fill="#34C759"/>
  <text x="100" y="755" font-family="Arial" font-size="15" font-weight="800" fill="white">Log spray for Bed 4</text>
</svg>
