<svg width="390" height="844" viewBox="0 0 390 844" fill="none" xmlns="http://www.w3.org/2000/svg">
  <rect width="390" height="844" rx="36" fill="#F2F2F7"/>
  <text x="24" y="64" font-family="Arial" font-size="34" font-weight="800" fill="#111111">History</text>
  <text x="24" y="91" font-family="Arial" font-size="16" fill="#6E6E73">Recent spray records</text>
  <rect x="24" y="124" width="342" height="48" rx="14" fill="#E5E5EA"/>
  <text x="46" y="154" font-family="Arial" font-size="15" fill="#6E6E73">⌕ Search crops, sprays, reasons</text>
  <g font-family="Arial">
    <rect x="24" y="198" width="342" height="96" rx="22" fill="white"/>
    <text x="48" y="235" font-size="18" font-weight="800" fill="#111">Neem oil</text>
    <text x="48" y="259" font-size="14" fill="#6E6E73">Tomatoes · Greenhouse · Today</text>
    <text x="48" y="279" font-size="13" fill="#111">Aphids · Safe from 20 May</text>
    <rect x="302" y="225" width="44" height="26" rx="13" fill="#FFF1D6"/><text x="312" y="243" font-size="12" font-weight="700" fill="#FF9500">Wait</text>
    <rect x="24" y="310" width="342" height="96" rx="22" fill="white"/>
    <text x="48" y="347" font-size="18" font-weight="800" fill="#111">Seaweed tonic</text>
    <text x="48" y="371" font-size="14" fill="#6E6E73">Silverbeet · Main patch · Yesterday</text>
    <text x="48" y="391" font-size="13" fill="#111">Plant health · Safe now</text>
    <rect x="302" y="337" width="44" height="26" rx="13" fill="#E5F7E8"/><text x="312" y="355" font-size="12" font-weight="700" fill="#34C759">Safe</text>
    <rect x="24" y="422" width="342" height="96" rx="22" fill="white"/>
    <text x="48" y="459" font-size="18" font-weight="800" fill="#111">Copper spray</text>
    <text x="48" y="483" font-size="14" fill="#6E6E73">Potatoes · Back bed · 4 days ago</text>
    <text x="48" y="503" font-size="13" fill="#111">Blight prevention · Safe from 23 May</text>
    <rect x="302" y="449" width="44" height="26" rx="13" fill="#FFF1D6"/><text x="312" y="467" font-size="12" font-weight="700" fill="#FF9500">Wait</text>
  </g>
</svg>
