<svg width="390" height="844" viewBox="0 0 390 844" fill="none" xmlns="http://www.w3.org/2000/svg">
  <rect width="390" height="844" rx="36" fill="#F2F2F7"/>
  <text x="24" y="64" font-family="Arial" font-size="34" font-weight="800" fill="#111111">Log Spray</text>
  <text x="24" y="91" font-family="Arial" font-size="16" fill="#6E6E73">Fast entry first. Beds come later.</text>
  <g font-family="Arial">
    <rect x="24" y="124" width="342" height="58" rx="18" fill="white"/><text x="44" y="159" font-size="15" fill="#6E6E73">Product</text><text x="250" y="159" font-size="16" font-weight="700" fill="#111">Neem oil ›</text>
    <rect x="24" y="194" width="342" height="58" rx="18" fill="white"/><text x="44" y="229" font-size="15" fill="#6E6E73">Crop</text><text x="246" y="229" font-size="16" font-weight="700" fill="#111">Tomatoes ›</text>
    <rect x="24" y="264" width="342" height="58" rx="18" fill="white"/><text x="44" y="299" font-size="15" fill="#6E6E73">Area</text><text x="168" y="299" font-size="16" font-weight="700" fill="#111">Greenhouse / text ›</text>
    <rect x="24" y="334" width="342" height="58" rx="18" fill="white"/><text x="44" y="369" font-size="15" fill="#6E6E73">Reason</text><text x="284" y="369" font-size="16" font-weight="700" fill="#111">Aphids ›</text>
    <rect x="24" y="404" width="342" height="58" rx="18" fill="white"/><text x="44" y="439" font-size="15" fill="#6E6E73">Withholding</text><text x="274" y="439" font-size="16" font-weight="700" fill="#111">3 days ›</text>
    <rect x="24" y="474" width="342" height="58" rx="18" fill="white"/><text x="44" y="509" font-size="15" fill="#6E6E73">Safe harvest date</text><text x="236" y="509" font-size="16" font-weight="700" fill="#111">20 May ›</text>
  </g>
  <rect x="24" y="570" width="342" height="56" rx="16" fill="#34C759"/>
  <text x="122" y="605" font-family="Arial" font-size="17" font-weight="800" fill="white">Save spray record</text>
  <rect x="24" y="660" width="342" height="104" rx="22" fill="white"/>
  <text x="48" y="697" font-family="Arial" font-size="18" font-weight="800" fill="#111">MVP behaviour</text>
  <text x="48" y="724" font-family="Arial" font-size="14" fill="#6E6E73">Area is free text for now.</text>
  <text x="48" y="747" font-family="Arial" font-size="14" fill="#6E6E73">Manual beds will be added later.</text>
</svg>
