<svg width="390" height="844" viewBox="0 0 390 844" fill="none" xmlns="http://www.w3.org/2000/svg">
  <rect width="390" height="844" rx="36" fill="#F2F2F7"/>
  <text x="24" y="64" font-family="Arial" font-size="34" font-weight="800" fill="#111111">Products</text>
  <text x="24" y="91" font-family="Arial" font-size="16" fill="#6E6E73">Sprays and withholding defaults</text>
  <g font-family="Arial">
    <rect x="24" y="124" width="342" height="78" rx="22" fill="white"/>
    <text x="50" y="159" font-size="18" font-weight="800" fill="#111">Neem oil</text>
    <text x="50" y="181" font-size="14" fill="#6E6E73">Pest control</text>
    <text x="288" y="169" font-size="16" font-weight="800" fill="#111">3 days</text>
    <rect x="24" y="218" width="342" height="78" rx="22" fill="white"/>
    <text x="50" y="253" font-size="18" font-weight="800" fill="#111">Copper spray</text>
    <text x="50" y="275" font-size="14" fill="#6E6E73">Fungicide</text>
    <text x="288" y="263" font-size="16" font-weight="800" fill="#111">7 days</text>
    <rect x="24" y="312" width="342" height="78" rx="22" fill="white"/>
    <text x="50" y="347" font-size="18" font-weight="800" fill="#111">Seaweed tonic</text>
    <text x="50" y="369" font-size="14" fill="#6E6E73">Plant health</text>
    <text x="288" y="357" font-size="16" font-weight="800" fill="#111">0 days</text>
  </g>
  <rect x="24" y="430" width="342" height="116" rx="22" fill="white"/>
  <text x="48" y="468" font-family="Arial" font-size="18" font-weight="800" fill="#111">Manual beds later</text>
  <text x="48" y="495" font-family="Arial" font-size="14" fill="#6E6E73">Product defaults are more useful first.</text>
  <text x="48" y="518" font-family="Arial" font-size="14" fill="#6E6E73">Beds become a separate setup feature.</text>
  <rect x="24" y="590" width="342" height="56" rx="16" fill="#34C759"/>
  <text x="124" y="625" font-family="Arial" font-size="17" font-weight="800" fill="white">Add product later</text>
</svg>
