<svg xmlns="http://www.w3.org/2000/svg" viewBox="0 0 64 64" width="64" height="64">

  <path d="M32 54 C18 54 10 42 10 32 C10 20 18 10 32 10 C46 10 54 20 54 32 C54 42 46 54 32 54Z" fill="#4CAF50"/>
  <path d="M20 22 Q32 14 44 22 Q50 30 44 42 Q32 50 20 42 Q14 30 20 22Z" fill="#66BB6A" opacity="0.6"/>
  <path d="M10 32 Q22 26 32 32 Q42 26 54 32" stroke="#388E3C" stroke-width="1.5" fill="none" opacity="0.5"/>
  <path d="M10 38 Q22 32 32 38 Q42 32 54 38" stroke="#388E3C" stroke-width="1.5" fill="none" opacity="0.5"/>
  <path d="M10 26 Q22 20 32 26 Q42 20 54 26" stroke="#388E3C" stroke-width="1.5" fill="none" opacity="0.5"/>
  <circle cx="24" cy="24" r="4" fill="#fff" opacity="0.2"/>
  <line x1="32" y1="13" x2="32" y2="7" stroke="#5D4037" stroke-width="2.5" stroke-linecap="round"/>

</svg>