<svg xmlns="http://www.w3.org/2000/svg" viewBox="0 0 64 64" width="64" height="64">

  <path d="M32 56 C18 56 10 44 10 33 C10 21 18 16 26 16 C29 16 31 17 32 18 C33 17 35 16 38 16 C46 16 54 21 54 33 C54 44 46 56 32 56Z" fill="#E53935"/>
  <path d="M32 56 C18 56 10 44 10 33 C10 26 14 20 20 17.5 C15 21 14 28 14 33 C14 43 20 52 32 56Z" fill="#EF9A9A" opacity="0.4"/>
  <line x1="32" y1="18" x2="32" y2="12" stroke="#5D4037" stroke-width="2.5" stroke-linecap="round"/>
  <ellipse cx="37" cy="12" rx="6" ry="3" fill="#4CAF50" transform="rotate(-30 37 12)"/>

</svg>