<svg xmlns="http://www.w3.org/2000/svg" viewBox="0 0 64 64" width="64" height="64">

  <line x1="32" y1="8" x2="32" y2="24" stroke="#5D4037" stroke-width="2.5"/>
  <line x1="32" y1="24" x2="18" y2="36" stroke="#5D4037" stroke-width="2"/>
  <line x1="32" y1="24" x2="46" y2="36" stroke="#5D4037" stroke-width="2"/>
  <line x1="32" y1="24" x2="32" y2="38" stroke="#5D4037" stroke-width="2"/>
  <line x1="18" y1="36" x2="12" y2="46" stroke="#5D4037" stroke-width="1.5"/>
  <line x1="18" y1="36" x2="22" y2="48" stroke="#5D4037" stroke-width="1.5"/>
  <line x1="46" y1="36" x2="42" y2="48" stroke="#5D4037" stroke-width="1.5"/>
  <line x1="46" y1="36" x2="52" y2="46" stroke="#5D4037" stroke-width="1.5"/>
  <line x1="32" y1="38" x2="28" y2="50" stroke="#5D4037" stroke-width="1.5"/>
  <line x1="32" y1="38" x2="36" y2="50" stroke="#5D4037" stroke-width="1.5"/>
  <circle cx="12" cy="49" r="6" fill="#1A237E"/>
  <circle cx="22" cy="51" r="6" fill="#283593"/>
  <circle cx="28" cy="53" r="6" fill="#1A237E"/>
  <circle cx="36" cy="53" r="6" fill="#283593"/>
  <circle cx="42" cy="51" r="6" fill="#1A237E"/>
  <circle cx="52" cy="49" r="6" fill="#283593"/>

</svg>