<svg xmlns="http://www.w3.org/2000/svg" viewBox="0 0 96 96"><defs><radialGradient id="r" cx="38%" cy="30%" r="70%"><stop stop-color="#ff6f8f"/><stop offset=".55" stop-color="#a8123c"/><stop offset="1" stop-color="#5e0925"/></radialGradient><linearGradient id="g" x1="0" x2="1"><stop stop-color="#6dd344"/><stop offset="1" stop-color="#1e6f25"/></linearGradient></defs><path d="M48 28c18 0 29 14 27 31-2 20-15 31-27 31S23 79 21 59c-2-17 9-31 27-31z" fill="url(#r)" stroke="#5b0824" stroke-width="2"/><path d="M47 88c-3-5-5-10-3-16h8c2 6-1 11-5 16z" fill="#6d0927"/><path d="M47 29c-10-14-18-19-31-18 8 14 19 21 31 18zM49 29c9-17 21-22 34-17-7 13-18 20-34 17zM48 29c-1-16 7-25 19-28 3 15-4 25-19 28z" fill="url(#g)" stroke="#1e6623" stroke-width="2"/><circle cx="39" cy="44" r="7" fill="#fff" opacity=".25"/></svg>