<svg xmlns="http://www.w3.org/2000/svg" viewBox="0 0 96 96"><defs><linearGradient id="g" x1="0" x2="1"><stop stop-color="#256d2c"/><stop offset="1" stop-color="#82d24b"/></linearGradient></defs><g fill="url(#g)" stroke="#155d20" stroke-width="2"><path d="M47 15c21 14 25 40 4 71-22-18-23-45-4-71z"/><path d="M31 24c17 18 21 38 10 61-21-10-26-40-10-61z"/><path d="M66 25c-17 18-21 38-9 60 20-10 25-39 9-60z"/></g><path d="M48 84V19M39 83c-6-20-10-37-10-55M57 83c6-20 10-37 10-55" stroke="#e83d61" stroke-width="4" fill="none"/><path d="M48 84V19" stroke="#ffd5dd" stroke-width="2" fill="none" opacity=".7"/></svg>