<svg xmlns="http://www.w3.org/2000/svg" viewBox="0 0 96 96"><defs><linearGradient id="g" x1="0" x2="1" y1="1" y2="0"><stop stop-color="#196d23"/><stop offset=".5" stop-color="#51b736"/><stop offset="1" stop-color="#b7f279"/></linearGradient></defs><path d="M48 87c2-22 2-42-1-61" stroke="#206d24" stroke-width="5" stroke-linecap="round"/><g fill="url(#g)" stroke="#16621f" stroke-width="2"><path d="M45 28c-18 0-26-10-22-23 15 2 23 10 22 23z"/><path d="M50 28c18-1 27-11 24-24-15 1-24 10-24 24z"/><path d="M47 45c-18 3-29-5-29-19 16-1 26 5 29 19z"/><path d="M51 45c19 2 29-6 28-20-15 0-26 6-28 20z"/><path d="M48 63c-18 3-29-5-29-19 15-1 26 5 29 19z"/><path d="M51 63c19 2 29-6 28-20-15 0-26 6-28 20z"/></g></svg>