<svg xmlns="http://www.w3.org/2000/svg" viewBox="0 0 96 96"><defs><linearGradient id="g" x1="0" x2="1" y1="1" y2="0"><stop stop-color="#f0f6b8"/><stop offset=".45" stop-color="#8ed646"/><stop offset="1" stop-color="#25752b"/></linearGradient></defs><g fill="url(#g)" stroke="#286d22" stroke-width="2"><path d="M29 84c5-25 9-47 10-72 8 3 11 14 8 72z"/><path d="M43 84c5-27 9-52 12-78 8 8 12 27 6 78z"/><path d="M57 84c6-25 13-45 22-64 6 16 0 39-12 64z"/></g><path d="M30 84h38c5 0 8 3 8 7H23c0-4 3-7 7-7z" fill="#d9e89b" stroke="#8a9d46" stroke-width="2"/><path d="M42 23h10M57 24h9M36 43h10M55 46h12" stroke="#eaffbf" stroke-width="3" opacity=".6"/></svg>