<svg xmlns="http://www.w3.org/2000/svg" viewBox="0 0 96 96"><defs><linearGradient id="g" x1="0" x2="1" y1="1" y2="0"><stop stop-color="#0f5f22"/><stop offset=".45" stop-color="#65c22c"/><stop offset="1" stop-color="#b8f56b"/></linearGradient></defs><g fill="none" stroke="url(#g)" stroke-width="5" stroke-linecap="round"><path d="M24 86C30 55 36 30 44 9"/><path d="M34 86c6-33 14-57 27-76"/><path d="M45 86c2-34 8-59 18-74"/><path d="M55 85c-1-31 3-53 12-70"/><path d="M65 83c-4-25 0-45 10-61"/><path d="M29 84c-3-27-1-49 6-67"/><path d="M40 86C37 59 39 34 48 12"/></g><path d="M22 76c16 10 33 11 52 0 3 6 0 11-7 14-12 5-29 4-41-1-7-3-9-8-4-13z" fill="#2f8e1e" stroke="#196917" stroke-width="2"/></svg>