<svg xmlns="http://www.w3.org/2000/svg" viewBox="0 0 96 96"><defs><linearGradient id="g" x1="0" x2="1" y1="1" y2="0"><stop stop-color="#89d442"/><stop offset=".5" stop-color="#3c9c29"/><stop offset="1" stop-color="#c4f27b"/></linearGradient></defs><path d="M47 88c4-27 8-52 13-78 8 8 12 17 8 28-4 15-8 32-11 51z" fill="url(#g)" stroke="#1e6c20" stroke-width="2"/><g fill="#76c73d" stroke="#1e6c20" stroke-width="2"><path d="M59 10c-5 2-8 6-9 12 7-1 12-5 14-11z"/><path d="M62 20c-6 1-10 5-12 11 8 1 13-3 16-9z"/><path d="M62 31c-6 2-10 6-12 12 8 0 13-4 16-10z"/></g><path d="M52 78c4-23 8-43 12-61" stroke="#dfffba" stroke-width="3" opacity=".55" fill="none"/></svg>