<svg xmlns="http://www.w3.org/2000/svg" viewBox="0 0 96 96"><defs><radialGradient id="o" cx="38%" cy="32%" r="70%"><stop stop-color="#ffd06b"/><stop offset=".55" stop-color="#f07f13"/><stop offset="1" stop-color="#ad4a06"/></radialGradient></defs><path d="M48 28c23 0 38 14 38 32S71 88 48 88 10 78 10 60s15-32 38-32z" fill="url(#o)" stroke="#8a3b05" stroke-width="2"/><path d="M48 30c-8 13-9 39 0 57M31 33c-8 14-7 36 3 51M65 33c8 14 7 36-3 51" fill="none" stroke="#c95b0a" stroke-width="3" opacity=".55"/><path d="M48 30c2-11 7-17 15-19 3 6-2 12-15 19z" fill="#3b8c19" stroke="#20620d" stroke-width="2"/></svg>