<svg xmlns="http://www.w3.org/2000/svg" viewBox="0 0 96 96"><defs><radialGradient id="r" cx="35%" cy="28%" r="70%"><stop stop-color="#ff8b56"/><stop offset=".55" stop-color="#e52418"/><stop offset="1" stop-color="#9f100b"/></radialGradient><linearGradient id="s" x1="0" x2="1"><stop stop-color="#276d19"/><stop offset="1" stop-color="#8fd544"/></linearGradient></defs><path d="M47 18c-4 10-3 19 1 26" fill="none" stroke="#3b7c16" stroke-width="8" stroke-linecap="round"/><path d="M49 30c18 0 28 13 25 33-3 20-13 28-25 26-12 2-23-6-26-26-3-20 7-33 26-33z" fill="url(#r)" stroke="#8f0f0a" stroke-width="2"/><path d="M49 31c-8 10-9 41-1 57M34 35c-8 12-6 34 2 48M63 35c8 12 6 34-2 48" fill="none" stroke="#be1a12" stroke-width="2" opacity=".55"/><ellipse cx="37" cy="44" rx="7" ry="11" fill="#fff" opacity=".28"/><path d="M35 31c10-9 20-8 29 0-8 8-20 9-29 0z" fill="url(#s)" stroke="#236716" stroke-width="2"/></svg>