<svg xmlns="http://www.w3.org/2000/svg" viewBox="0 0 96 96"><defs><linearGradient id="l" x1="0" x2="1" y1="1" y2="0"><stop stop-color="#fff3c7"/><stop offset=".42" stop-color="#8bd844"/><stop offset="1" stop-color="#0b5d25"/></linearGradient></defs><path d="M27 84c10-20 22-43 31-70 7 2 10 5 11 10-14 24-24 46-33 64z" fill="url(#l)" stroke="#6f8b36" stroke-width="2"/><path d="M56 15c12 5 22 2 31-8-3 17-12 29-29 32M55 17c5 13 2 25-8 36M62 17c-3 16 3 27 17 35" fill="#1f7e33" opacity=".92" stroke="#0f5c24" stroke-width="2"/><path d="M34 75c9-16 18-35 27-57" stroke="#fff" stroke-width="3" opacity=".45" fill="none"/></svg>