<svg xmlns="http://www.w3.org/2000/svg" viewBox="0 0 96 96"><defs><radialGradient id="r" cx="36%" cy="28%" r="70%"><stop stop-color="#ff7a63"/><stop offset=".55" stop-color="#e81717"/><stop offset="1" stop-color="#8e0909"/></radialGradient><linearGradient id="g" x1="0" x2="1"><stop stop-color="#2b8b20"/><stop offset="1" stop-color="#88d541"/></linearGradient></defs><path d="M48 25c24 0 35 18 28 39-6 18-20 29-28 29S26 82 20 64c-7-21 4-39 28-39z" fill="url(#r)" stroke="#850707" stroke-width="2"/><g fill="#ffd46b" stroke="#a85e08" stroke-width="1"><circle cx="37" cy="45" r="2"/><circle cx="52" cy="43" r="2"/><circle cx="62" cy="55" r="2"/><circle cx="45" cy="60" r="2"/><circle cx="33" cy="62" r="2"/><circle cx="52" cy="73" r="2"/></g><path d="M48 28c-9-10-18-13-29-10 7 9 16 13 29 10zM49 28c8-11 17-14 29-11-7 9-16 14-29 11zM48 28c-1-11 5-18 16-21 2 10-4 18-16 21z" fill="url(#g)" stroke="#21691a" stroke-width="2"/><ellipse cx="37" cy="39" rx="7" ry="10" fill="#fff" opacity=".28"/></svg>