<svg xmlns="http://www.w3.org/2000/svg" viewBox="0 0 96 96"><defs><linearGradient id="g" x1="0" x2="1"><stop stop-color="#9aff48"/><stop offset="1" stop-color="#126b1d"/></linearGradient></defs><g fill="url(#g)" stroke="#105b19" stroke-width="2"><path d="M16 36c18-16 34-19 49-9-15 18-31 22-49 9z"/><path d="M30 60c18-16 34-19 49-9-15 18-31 22-49 9z"/><path d="M22 74c15-13 28-16 40-8-12 15-26 18-40 8z"/></g><path d="M24 35c12-3 23-5 34-7M38 59c12-3 23-5 34-7" stroke="#ddffc7" stroke-width="3" opacity=".5" fill="none"/></svg>