<svg xmlns="http://www.w3.org/2000/svg" viewBox="0 0 96 96"><defs><radialGradient id="a" cx="35%" cy="30%" r="70%"><stop stop-color="#ffeaa3"/><stop offset=".55" stop-color="#f28c18"/><stop offset="1" stop-color="#a95109"/></radialGradient></defs><path d="M50 15c9 14 29 25 29 48 0 19-14 30-31 30S17 82 17 63c0-23 21-34 31-48z" fill="url(#a)" stroke="#8e4506" stroke-width="2"/><path d="M48 18c-9 26-12 50 0 72M36 30c-9 18-9 38-1 55M62 30c8 18 8 37-1 55" fill="none" stroke="#fff2aa" stroke-width="3" opacity=".55"/><path d="M43 17c-2-7 2-11 10-12 0 6-2 10-10 12z" fill="#b65d11"/></svg>