<svg xmlns="http://www.w3.org/2000/svg" viewBox="0 0 96 96"><defs><radialGradient id="g" cx="34%" cy="28%" r="65%"><stop offset="0" stop-color="#ff7b45"/><stop offset=".55" stop-color="#ef2b14"/><stop offset="1" stop-color="#b8120a"/></radialGradient><linearGradient id="l" x1="0" x2="1"><stop stop-color="#1d7b20"/><stop offset="1" stop-color="#75c936"/></linearGradient></defs><path d="M48 22c25 0 38 18 35 38-3 22-18 31-35 31S16 82 13 60c-3-20 10-38 35-38z" fill="url(#g)" stroke="#8d0c05" stroke-width="2"/><path d="M29 38c5-10 14-14 25-11-12 2-20 8-25 11z" fill="#ffb18e" opacity=".55"/><circle cx="34" cy="45" r="7" fill="#fff" opacity=".36"/><path d="M48 25C40 12 34 10 27 12c7 5 11 11 13 18-10-9-19-9-27-7 8 4 17 8 22 14 8 9 24 8 31-1 5-6 14-11 22-14-8-2-17-2-27 7 2-7 6-13 13-18-7-2-13 0-26 14z" fill="url(#l)" stroke="#145c17" stroke-width="2"/></svg>