<svg xmlns="http://www.w3.org/2000/svg" viewBox="0 0 96 96"><defs><linearGradient id="o" x1="0" x2="1" y1="0" y2="1"><stop stop-color="#ffd15d"/><stop offset=".55" stop-color="#f57e18"/><stop offset="1" stop-color="#b94b08"/></linearGradient><linearGradient id="g" x1="0" x2="1"><stop stop-color="#2f7c1f"/><stop offset="1" stop-color="#92dc42"/></linearGradient></defs><path d="M43 20c10 17 7 42-17 68-10-30-5-54 17-68z" fill="url(#o)" stroke="#9b3e06" stroke-width="2"/><path d="M45 22c-11 6-22 1-31-10 13-2 24 1 31 10zM46 22c-1-13 6-20 18-23 2 12-4 20-18 23zM47 23c13-8 26-5 39 5-14 6-28 6-39-5z" fill="url(#g)" stroke="#216719" stroke-width="2"/><path d="M34 37l15-4M29 52l14-4M24 67l11-3" stroke="#ffb553" stroke-width="2" opacity=".7"/></svg>