<svg xmlns="http://www.w3.org/2000/svg" viewBox="0 0 96 96"><defs><radialGradient id="r" cx="36%" cy="30%" r="70%"><stop stop-color="#ff9db0"/><stop offset=".55" stop-color="#e91f45"/><stop offset="1" stop-color="#8c0922"/></radialGradient><linearGradient id="g" x1="0" x2="1"><stop stop-color="#7ad44c"/><stop offset="1" stop-color="#1f7425"/></linearGradient></defs><path d="M48 31c16 0 27 12 25 27-2 17-14 25-25 25s-23-8-25-25c-2-15 9-27 25-27z" fill="url(#r)" stroke="#8b0a23" stroke-width="2"/><path d="M48 80c-5 8-8 12-12 15 1-7 4-12 12-15z" fill="#f4dbc8" stroke="#b88767" stroke-width="2"/><path d="M47 32c-10-15-20-21-33-19 7 13 20 21 33 19zM50 32c8-16 19-22 32-18-6 14-18 21-32 18zM48 32c-2-16 5-25 17-30 4 14-3 26-17 30z" fill="url(#g)" stroke="#1d6b24" stroke-width="2"/><circle cx="40" cy="45" r="6" fill="#fff" opacity=".3"/></svg>