<svg xmlns="http://www.w3.org/2000/svg" viewBox="0 0 96 96"><defs><linearGradient id="g" x1="0" x2="1" y1="1" y2="0"><stop stop-color="#fff7d6"/><stop offset=".42" stop-color="#91db45"/><stop offset="1" stop-color="#136f27"/></linearGradient></defs><path d="M25 84c12-23 24-44 36-68 5 1 8 4 9 8-16 22-28 43-39 63z" fill="url(#g)" stroke="#5f8a31" stroke-width="2"/><path d="M57 18c11 8 20 10 31 7-8 12-19 18-32 14M61 18c-3 18-1 31 5 42M54 18c-9 15-15 29-18 46" fill="none" stroke="#14722b" stroke-width="5" stroke-linecap="round"/><path d="M31 73c9-16 18-33 27-52" stroke="#fff" stroke-width="3" opacity=".5" fill="none"/></svg>