<svg xmlns="http://www.w3.org/2000/svg" viewBox="0 0 96 96"><defs><linearGradient id="y" x1="0" x2="1" y1="0" y2="1"><stop stop-color="#fff36a"/><stop offset=".55" stop-color="#f5bf12"/><stop offset="1" stop-color="#b77a05"/></linearGradient><linearGradient id="g" x1="0" x2="1"><stop stop-color="#9be84d"/><stop offset="1" stop-color="#237b25"/></linearGradient></defs><path d="M48 12c17 11 25 39 15 73-16 7-30-2-33-18-4-21 2-44 18-55z" fill="url(#y)" stroke="#9e6806" stroke-width="2"/><g stroke="#d79606" stroke-width="2" opacity=".65"><path d="M37 24c12 8 19 23 22 46M29 42c13 7 25 7 37 1M29 56c12 6 24 6 35 0M34 70c9 5 18 5 27 0" fill="none"/></g><path d="M27 84C13 62 14 38 30 20c4 27 13 46 30 63-11 5-22 5-33 1zM65 85C79 62 78 37 61 19c-3 27-13 47-31 64 11 6 24 7 35 2z" fill="url(#g)" stroke="#1d6a23" stroke-width="2" opacity=".95"/></svg>