<svg xmlns="http://www.w3.org/2000/svg" viewBox="0 0 96 96"><defs><radialGradient id="g" cx="38%" cy="30%" r="72%"><stop stop-color="#fffdf2"/><stop offset=".55" stop-color="#ead8b8"/><stop offset="1" stop-color="#b79261"/></radialGradient></defs><path d="M48 12c7 14 26 26 26 50 0 18-12 29-26 29S22 80 22 62c0-24 18-36 26-50z" fill="url(#g)" stroke="#9c774b" stroke-width="2"/><path d="M48 18v70M33 41c-6 18-3 33 7 46M63 41c6 18 3 33-7 46" stroke="#fff" stroke-width="3" opacity=".55" fill="none"/><path d="M43 13c-1-7 4-10 12-9-1 6-5 9-12 9z" fill="#caa46f"/></svg>