<svg xmlns="http://www.w3.org/2000/svg" viewBox="0 0 96 96"><defs><linearGradient id="g" x1="0" x2="1" y1="1" y2="0"><stop stop-color="#1c6d22"/><stop offset=".5" stop-color="#55b83a"/><stop offset="1" stop-color="#b8f47b"/></linearGradient></defs><path d="M49 85C32 66 24 42 45 16c19 9 23 38 4 69z" fill="url(#g)" stroke="#17621c" stroke-width="2"/><path d="M42 86C23 75 12 52 24 26c21 5 29 30 18 60zM57 84c21-11 31-35 18-59-20 5-28 31-18 59z" fill="url(#g)" stroke="#17621c" stroke-width="2" opacity=".95"/><path d="M49 83c0-24 0-44-3-64M42 82c-6-17-11-34-16-53M57 82c5-17 10-34 15-53" stroke="#d9ffc5" stroke-width="3" opacity=".55" fill="none"/></svg>