<svg xmlns="http://www.w3.org/2000/svg" viewBox="0 0 96 96"><defs><linearGradient id="g" x1="0" x2="1" y1="1" y2="0"><stop stop-color="#fff6bf"/><stop offset=".45" stop-color="#9fdc4a"/><stop offset="1" stop-color="#1b7728"/></linearGradient></defs><path d="M34 82c6-18 11-38 12-64h15c1 26 6 46 12 64-10 9-29 9-39 0z" fill="url(#g)" stroke="#6d8b2b" stroke-width="2"/><g fill="none" stroke="#247829" stroke-width="3" stroke-linecap="round"><path d="M48 20C36 13 30 7 26 2"/><path d="M53 20C50 9 47 4 44 0"/><path d="M58 20C69 10 75 5 83 2"/><path d="M49 25c-14 10-24 21-31 34"/><path d="M57 25c13 10 22 20 28 33"/></g><path d="M36 82c10 6 24 6 34 0" stroke="#fff7cf" stroke-width="3" opacity=".5" fill="none"/></svg>