<svg xmlns="http://www.w3.org/2000/svg" viewBox="0 0 96 96"><defs><linearGradient id="p" x1="0" x2="1" y1="0" y2="1"><stop stop-color="#fff2c3"/><stop offset=".6" stop-color="#d7b36b"/><stop offset="1" stop-color="#956a2c"/></linearGradient><linearGradient id="g" x1="0" x2="1"><stop stop-color="#77d64c"/><stop offset="1" stop-color="#246d21"/></linearGradient></defs><path d="M45 20c9 18 5 43-23 69-6-32 2-55 23-69z" fill="url(#p)" stroke="#8b6228" stroke-width="2"/><path d="M44 22c-12 5-22 0-31-10 14-2 24 1 31 10zM46 22c0-13 8-20 21-22 1 12-7 21-21 22zM47 23c13-7 26-4 38 6-14 5-27 4-38-6z" fill="url(#g)" stroke="#22671e" stroke-width="2"/><path d="M34 39l13-4M28 55l13-4M24 70l10-3" stroke="#f9d28c" stroke-width="2" opacity=".75"/></svg>