<svg viewBox="0 0 100 100" xmlns="http://www.w3.org/2000/svg">
  <ellipse cx="50" cy="92" rx="18" ry="5" fill="#8D6E63" opacity="0.4"/>
  <rect x="46" y="60" width="8" height="34" rx="3" fill="#795548"/>
  <rect x="46" y="60" width="4" height="34" rx="2" fill="#A1887F" opacity="0.5"/>
  <path d="M50 62 C42 58 28 52 22 40 C16 28 24 14 34 14 C40 14 46 18 50 24 C54 18 60 14 66 14 C76 14 84 28 78 40 C72 52 58 58 50 62 Z" fill="#2E7D32"/>
  <path d="M50 62 C44 56 34 48 30 38 C26 28 30 18 36 16 C40 15 44 18 50 24 C44 22 38 26 36 34 C34 42 38 52 50 62 Z" fill="#388E3C"/>
  <circle cx="38" cy="38" r="7" fill="#E53935"/>
  <circle cx="38" cy="38" r="5" fill="#EF5350"/>
  <path d="M38 31 C38 31 36 28 38 26 C40 28 40 31 38 31 Z" fill="#33691E"/>
  <circle cx="62" cy="42" r="7" fill="#E53935"/>
  <circle cx="62" cy="42" r="5" fill="#EF5350"/>
  <path d="M62 35 C62 35 60 32 62 30 C64 32 64 35 62 35 Z" fill="#33691E"/>
  <circle cx="50" cy="30" r="6" fill="#C62828"/>
  <ellipse cx="36" cy="36" rx="3" ry="2" fill="white" opacity="0.2" transform="rotate(-20 36 36)"/>
  <ellipse cx="60" cy="40" rx="3" ry="2" fill="white" opacity="0.2" transform="rotate(-20 60 40)"/>
</svg>