<svg viewBox="0 0 100 100" xmlns="http://www.w3.org/2000/svg">
  <ellipse cx="50" cy="84" rx="18" ry="8" fill="#8D6E63" opacity="0.8"/>
  <g stroke="#43A047" stroke-width="2.5" fill="none" stroke-linecap="round">
    <path d="M36 84 C34 74 32 62 34 50 C36 38 38 28 36 18"/>
    <path d="M40 84 C38 72 38 60 40 48 C42 36 42 24 40 14"/>
    <path d="M44 84 C44 72 44 60 46 48 C48 36 48 24 46 12"/>
    <path d="M50 84 C50 72 50 60 52 48 C54 36 52 24 50 10"/>
    <path d="M56 84 C56 72 58 60 58 48 C58 36 56 24 54 12"/>
    <path d="M60 84 C62 72 62 60 62 48 C62 36 60 24 60 14"/>
    <path d="M64 84 C66 74 68 62 66 50 C64 38 62 28 64 18"/>
  </g>
  <g stroke="#66BB6A" stroke-width="1.5" fill="none" stroke-linecap="round" opacity="0.6">
    <path d="M36 18 C32 14 30 10 32 6"/><path d="M40 14 C38 10 38 6 40 4"/>
    <path d="M46 12 C44 8 44 4 46 2"/><path d="M50 10 C50 6 50 2 50 0"/>
    <path d="M54 12 C56 8 56 4 54 2"/><path d="M60 14 C62 10 62 6 60 4"/>
    <path d="M64 18 C68 14 70 10 68 6"/>
  </g>
</svg>