<svg viewBox="0 0 100 100" xmlns="http://www.w3.org/2000/svg">
  <path d="M50 20 C32 20 18 34 18 50 C18 66 32 80 50 80 C68 80 82 66 82 50 C82 34 68 20 50 20 Z" fill="#6D1B1B"/>
  <path d="M50 24 C34 24 22 36 22 50 C22 64 34 76 50 76 C66 76 78 64 78 50 C78 36 66 24 50 24 Z" fill="#8B2020"/>
  <path d="M50 20 L50 80" stroke="#5D0000" stroke-width="1.5" fill="none" opacity="0.4"/>
  <ellipse cx="40" cy="36" rx="9" ry="5" fill="white" opacity="0.12" transform="rotate(-20 40 36)"/>
  <ellipse cx="50" cy="78" rx="5" ry="2.5" fill="#5D0000" opacity="0.5"/>
</svg>