<svg viewBox="0 0 100 100" xmlns="http://www.w3.org/2000/svg">
  <path d="M50 8 C52 4 54 2 54 2 C52 4 50 6 50 8 Z" fill="#558B2F"/>
  <path d="M50 8 C44 4 40 4 40 6 C44 6 48 6 50 8 Z" fill="#43A047"/>
  <ellipse cx="50" cy="56" rx="36" ry="34" fill="#78909C"/>
  <ellipse cx="50" cy="54" rx="32" ry="30" fill="#90A4AE"/>
  <ellipse cx="50" cy="52" rx="28" ry="26" fill="#B0BEC5"/>
  <g fill="white" opacity="0.08">
    <ellipse cx="50" cy="52" rx="20" ry="18"/>
  </g>
  <ellipse cx="36" cy="40" rx="12" ry="7" fill="white" opacity="0.12" transform="rotate(-20 36 40)"/>
  <g stroke="#546E7A" stroke-width="1.5" fill="none" opacity="0.4">
    <path d="M16 56 C14 46 18 36 26 30"/><path d="M84 56 C86 46 82 36 74 30"/>
    <path d="M26 78 C20 72 16 64 16 56"/><path d="M74 78 C80 72 84 64 84 56"/>
  </g>
  <path d="M50 90 C50 92 50 94 50 96" stroke="#78909C" stroke-width="3" fill="none" stroke-linecap="round"/>
</svg>