<svg viewBox="0 0 100 100" xmlns="http://www.w3.org/2000/svg">
  <ellipse cx="50" cy="92" rx="18" ry="5" fill="#8D6E63" opacity="0.4"/>
  <rect x="46" y="60" width="8" height="34" rx="3" fill="#795548"/>
  <rect x="46" y="60" width="4" height="34" rx="2" fill="#A1887F" opacity="0.5"/>
  <path d="M50 62 C42 58 28 52 22 40 C16 28 24 14 34 14 C40 14 46 18 50 24 C54 18 60 14 66 14 C76 14 84 28 78 40 C72 52 58 58 50 62 Z" fill="#33691E"/>
  <path d="M50 62 C44 56 34 48 30 38 C26 28 30 18 36 16 C40 15 44 18 50 24 C44 22 38 26 36 34 C34 42 38 52 50 62 Z" fill="#43A047"/>
  <g fill="#D7CCC8">
    <ellipse cx="36" cy="44" rx="7" ry="10" transform="rotate(15 36 44)"/>
    <ellipse cx="36" cy="43" rx="5.5" ry="8.5" fill="#EFEBE9" transform="rotate(15 36 43)"/>
    <path d="M36 34 C36 32 37 30 36 28 C35 30 34 32 36 34 Z" fill="#33691E" transform="rotate(15 36 34)"/>
  </g>
  <g fill="#D7CCC8">
    <ellipse cx="62" cy="36" rx="6.5" ry="9.5" transform="rotate(-10 62 36)"/>
    <ellipse cx="62" cy="35" rx="5" ry="8" fill="#EFEBE9" transform="rotate(-10 62 35)"/>
    <path d="M62 26 C62 24 63 22 62 20 C61 22 60 24 62 26 Z" fill="#33691E" transform="rotate(-10 62 26)"/>
  </g>
  <g fill="#FFB7C5" opacity="0.9">
    <circle cx="44" cy="28" r="4"/><circle cx="50" cy="24" r="4"/><circle cx="56" cy="26" r="3.5"/>
    <circle cx="40" cy="24" r="3"/>
  </g>
</svg>