<svg viewBox="0 0 100 100" xmlns="http://www.w3.org/2000/svg">
  <path d="M50 90 C50 78 50 66 50 54 C50 42 50 30 50 18" stroke="#5D4037" stroke-width="2.5" fill="none" stroke-linecap="round"/>
  <path d="M50 72 C42 64 30 58 16 56 C24 52 40 56 50 66 Z" fill="#AD1457"/>
  <path d="M50 60 C58 52 70 46 84 44 C76 40 60 44 50 54 Z" fill="#880E4F"/>
  <path d="M50 48 C42 40 30 36 16 34 C24 30 40 34 50 44 Z" fill="#C2185B"/>
  <path d="M50 36 C58 28 70 24 84 22 C76 18 60 22 50 32 Z" fill="#AD1457"/>
  <path d="M50 24 C42 18 32 14 20 12 C26 8 40 10 50 20 Z" fill="#E91E63"/>
  <path d="M50 12 C56 6 64 2 74 2 C68 -2 56 2 50 10 Z" fill="#F48FB1"/>
  <g fill="#C62828" opacity="0.5">
    <path d="M42 18 C38 14 34 12 30 14 C34 12 38 14 42 20 Z"/>
    <path d="M58 30 C62 26 66 26 70 28 C66 26 62 26 58 32 Z"/>
  </g>
</svg>