<svg viewBox="0 0 100 100" xmlns="http://www.w3.org/2000/svg">
  <ellipse cx="50" cy="92" rx="18" ry="5" fill="#8D6E63" opacity="0.4"/>
  <rect x="46" y="62" width="8" height="32" rx="3" fill="#795548"/>
  <rect x="46" y="62" width="4" height="32" rx="2" fill="#A1887F" opacity="0.5"/>
  <path d="M50 64 C40 60 26 54 20 40 C14 26 22 12 34 12 C40 12 46 16 50 24 C54 16 60 12 66 12 C78 12 86 26 80 40 C74 54 60 60 50 64 Z" fill="#2E7D32"/>
  <path d="M50 64 C44 58 32 50 28 38 C24 26 28 14 36 12 C40 11 44 16 50 24 C44 22 38 26 36 36 C34 46 40 56 50 64 Z" fill="#388E3C"/>
  <ellipse cx="37" cy="42" rx="8" ry="11" fill="#33691E"/>
  <ellipse cx="37" cy="40" rx="6" ry="8.5" fill="#558B2F"/>
  <ellipse cx="37" cy="42" rx="4" ry="5.5" fill="#795548"/>
  <ellipse cx="63" cy="38" rx="8" ry="11" fill="#33691E"/>
  <ellipse cx="63" cy="36" rx="6" ry="8.5" fill="#558B2F"/>
  <ellipse cx="63" cy="38" rx="4" ry="5.5" fill="#795548"/>
</svg>