<svg viewBox="0 0 100 100" xmlns="http://www.w3.org/2000/svg">
  <rect x="44" y="72" width="12" height="22" rx="4" fill="#8D6E63"/>
  <ellipse cx="50" cy="52" rx="24" ry="28" fill="#388E3C"/>
  <ellipse cx="50" cy="50" rx="20" ry="24" fill="#43A047"/>
  <g fill="#2E7D32">
    <path d="M50 24 C46 20 40 20 38 24 C36 28 38 34 42 34 C46 34 50 30 50 24 Z"/>
    <path d="M50 24 C54 20 60 20 62 24 C64 28 62 34 58 34 C54 34 50 30 50 24 Z"/>
    <path d="M30 36 C26 32 20 32 18 36 C16 40 18 46 22 46 C26 46 30 42 30 36 Z"/>
    <path d="M70 36 C74 32 80 32 82 36 C84 40 82 46 78 46 C74 46 70 42 70 36 Z"/>
    <path d="M28 52 C24 48 18 48 16 52 C14 56 16 62 20 62 C24 62 28 58 28 52 Z"/>
    <path d="M72 52 C76 48 82 48 84 52 C86 56 84 62 80 62 C76 62 72 58 72 52 Z"/>
    <path d="M32 66 C28 62 22 62 20 66 C18 70 20 76 24 76 C28 76 32 72 32 66 Z"/>
    <path d="M68 66 C72 62 78 62 80 66 C82 70 80 76 76 76 C72 76 68 72 68 66 Z"/>
  </g>
  <ellipse cx="50" cy="44" rx="12" ry="14" fill="#66BB6A"/>
  <ellipse cx="50" cy="40" rx="8" ry="10" fill="#81C784"/>
  <circle cx="50" cy="36" r="6" fill="#A5D6A7"/>
</svg>