<svg viewBox="0 0 100 100" xmlns="http://www.w3.org/2000/svg">
  <path d="M50 92 L50 20" stroke="#558B2F" stroke-width="5" fill="none" stroke-linecap="round"/>
  <path d="M50 92 L50 20" stroke="#8BC34A" stroke-width="2.5" fill="none" stroke-linecap="round"/>
  <g>
    <circle cx="50" cy="75" r="10" fill="#388E3C"/>
    <circle cx="50" cy="73" r="8" fill="#4CAF50"/>
    <circle cx="50" cy="71" r="5" fill="#66BB6A"/>
    <path d="M42 68 C44 72 46 74 50 74" stroke="#2E7D32" stroke-width="1" fill="none" opacity="0.5"/>
  </g>
  <g>
    <circle cx="50" cy="55" r="10" fill="#388E3C"/>
    <circle cx="50" cy="53" r="8" fill="#4CAF50"/>
    <circle cx="50" cy="51" r="5" fill="#66BB6A"/>
    <path d="M42 48 C44 52 46 54 50 54" stroke="#2E7D32" stroke-width="1" fill="none" opacity="0.5"/>
  </g>
  <g>
    <circle cx="50" cy="36" r="9" fill="#2E7D32"/>
    <circle cx="50" cy="34" r="7" fill="#388E3C"/>
    <circle cx="50" cy="32" r="4" fill="#4CAF50"/>
  </g>
  <g fill="#43A047" opacity="0.8">
    <path d="M50 75 C44 71 40 65 42 60 C44 68 48 72 50 75 Z"/>
    <path d="M50 55 C56 51 60 45 58 40 C56 48 52 52 50 55 Z"/>
  </g>
</svg>