<svg viewBox="0 0 100 100" xmlns="http://www.w3.org/2000/svg">
  <path d="M50 92 C46 88 40 80 38 70 C36 60 38 50 42 44 C46 38 50 36 50 36 C50 36 54 38 58 44 C62 50 64 60 62 70 C60 80 54 88 50 92 Z" fill="#FAFAFA"/>
  <path d="M50 92 C47 88 44 80 43 70 C42 60 43 50 46 44 C47 40 48 38 50 36 C49 38 48 42 48 50 C48 58 49 70 50 80 Z" fill="#EEEEEE"/>
  <path d="M42 44 C36 38 26 34 18 36 C22 30 34 30 42 38 Z" fill="#2E7D32"/>
  <path d="M58 44 C64 38 74 34 82 36 C78 30 66 30 58 38 Z" fill="#388E3C"/>
  <path d="M42 56 C34 52 24 50 16 52 C20 46 32 46 42 52 Z" fill="#2E7D32"/>
  <path d="M58 56 C66 52 76 50 84 52 C80 46 68 46 58 52 Z" fill="#388E3C"/>
  <path d="M44 68 C36 66 28 66 22 70 C26 64 36 62 44 66 Z" fill="#43A047"/>
  <path d="M56 68 C64 66 72 66 78 70 C74 64 64 62 56 66 Z" fill="#43A047"/>
</svg>