<svg viewBox="0 0 100 100" xmlns="http://www.w3.org/2000/svg">
  <ellipse cx="50" cy="93" rx="22" ry="5" fill="#8D6E63" opacity="0.4"/>
  <path d="M50 92 C46 78 40 64 36 52 C32 40 28 28 28 16" stroke="#5D4037" stroke-width="5" fill="none" stroke-linecap="round"/>
  <path d="M50 92 C54 78 60 64 64 52 C68 40 72 28 72 16" stroke="#6D4C41" stroke-width="4.5" fill="none" stroke-linecap="round"/>
  <path d="M28 16 C28 16 22 10 16 10 C20 12 26 14 28 16 Z" fill="#33691E"/>
  <path d="M72 16 C72 16 78 10 84 10 C80 12 74 14 72 16 Z" fill="#33691E"/>
  <path d="M36 52 C30 46 24 38 26 28 C30 34 36 44 36 52 Z" fill="#43A047"/>
  <path d="M64 52 C70 46 76 38 74 28 C70 34 64 44 64 52 Z" fill="#388E3C"/>
  <path d="M50 92 C50 78 50 64 50 50 C50 36 50 24 50 12" stroke="#795548" stroke-width="3" fill="none" stroke-linecap="round"/>
  <path d="M50 12 C44 8 38 8 36 12 C42 10 48 10 50 12 Z" fill="#43A047"/>
  <path d="M50 12 C56 8 62 8 64 12 C58 10 52 10 50 12 Z" fill="#43A047"/>
  <g fill="#1A237E">
    <circle cx="30" cy="42" r="7.5"/><circle cx="42" cy="56" r="7.5"/>
    <circle cx="58" cy="56" r="7.5"/><circle cx="70" cy="42" r="7.5"/>
    <circle cx="36" cy="28" r="7"/><circle cx="64" cy="28" r="7"/>
    <circle cx="50" cy="50" r="7.5"/>
  </g>
  <g fill="#3949AB" opacity="0.5">
    <circle cx="30" cy="40" r="5"/><circle cx="42" cy="54" r="5"/>
    <circle cx="58" cy="54" r="5"/><circle cx="70" cy="40" r="5"/>
    <circle cx="50" cy="48" r="5"/>
  </g>
</svg>