<svg viewBox="0 0 100 100" xmlns="http://www.w3.org/2000/svg">
  <path d="M36 94 C34 78 34 62 36 46 C38 30 42 16 46 6" stroke="#8BC34A" stroke-width="10" fill="none" stroke-linecap="round"/>
  <path d="M36 94 C34 78 34 62 36 46 C38 30 42 16 46 6" stroke="#AED581" stroke-width="6" fill="none" stroke-linecap="round"/>
  <g stroke="#558B2F" stroke-width="2.5">
    <line x1="30" y1="86" x2="42" y2="86"/>
    <line x1="30" y1="72" x2="42" y2="72"/>
    <line x1="30" y1="58" x2="42" y2="58"/>
    <line x1="31" y1="44" x2="42" y2="44"/>
    <line x1="33" y1="30" x2="44" y2="30"/>
  </g>
  <path d="M42 58 C48 54 56 50 64 50 C58 46 50 48 42 54 Z" fill="#8BC34A"/>
  <path d="M42 44 C48 40 56 36 64 36 C58 32 50 34 42 40 Z" fill="#9CCC65"/>
  <path d="M38 30 C44 26 52 22 60 22 C54 18 46 20 38 26 Z" fill="#AED581"/>
  <path d="M46 6 C44 2 42 0 42 0 C44 2 48 4 46 6 Z" fill="#558B2F"/>
</svg>