<svg viewBox="0 0 100 100" xmlns="http://www.w3.org/2000/svg">
  <path d="M37 95 L63 95 L60 79 L40 79 Z" fill="#B97040"/>
  <rect x="34" y="74" width="32" height="7" rx="3.5" fill="#C8814E"/>
  <ellipse cx="50" cy="79" rx="13" ry="3.5" fill="#4E342E"/>
  <path d="M50 79 C50 68 50 56 50 44" stroke="#5D8A3C" stroke-width="3" fill="none" stroke-linecap="round"/>
  <path d="M50 65 C42 60 34 54 28 48" stroke="#5D8A3C" stroke-width="2.2" fill="none" stroke-linecap="round"/>
  <path d="M50 55 C58 50 66 44 72 38" stroke="#5D8A3C" stroke-width="2.2" fill="none" stroke-linecap="round"/>
  <g fill="#1565C0">
    <path d="M50 26 C48 20 44 16 46 12 C50 14 52 20 50 26 Z"/>
    <path d="M50 26 C52 20 56 16 54 12 C50 14 48 20 50 26 Z"/>
    <path d="M50 26 C44 24 40 20 40 16 C44 18 48 22 50 26 Z"/>
    <path d="M50 26 C56 24 60 20 60 16 C56 18 52 22 50 26 Z"/>
    <path d="M50 26 C46 28 42 28 40 24 C44 22 48 24 50 26 Z"/>
    <path d="M50 26 C54 28 58 28 60 24 C56 22 52 24 50 26 Z"/>
  </g>
  <circle cx="50" cy="26" r="5" fill="#1976D2"/>
  <circle cx="50" cy="26" r="3" fill="#42A5F5"/>
  <circle cx="50" cy="26" r="1.5" fill="#0D47A1"/>
  <g fill="#5D99E8" opacity="0.4">
    <path d="M24 48 C22 44 22 40 24 38 C26 40 26 44 24 48 Z"/>
    <path d="M28 48 C30 44 30 40 28 38 C26 40 26 44 28 48 Z"/>
    <path d="M26 38 C24 34 24 30 26 28 C28 30 28 34 26 38 Z"/>
    <path d="M30 38 C32 34 32 30 30 28 C28 30 28 34 30 38 Z"/>
    <circle cx="27" cy="28" r="3" fill="#5C6BC0"/>
  </g>
</svg>