<svg viewBox="0 0 100 100" xmlns="http://www.w3.org/2000/svg">
  <path d="M22 52 C22 34 34 18 50 16 C66 14 80 30 80 48 C80 66 68 82 52 84 C36 86 22 70 22 52 Z" fill="#558B2F"/>
  <path d="M22 52 C22 34 34 18 50 16" stroke="#81C784" stroke-width="1" fill="none" opacity="0.5"/>
  <g fill="#388E3C">
    <ellipse cx="36" cy="34" rx="7" ry="12" transform="rotate(-30 36 34)"/>
    <ellipse cx="50" cy="24" rx="7" ry="12" transform="rotate(-5 50 24)"/>
    <ellipse cx="64" cy="30" rx="7" ry="12" transform="rotate(20 64 30)"/>
    <ellipse cx="72" cy="46" rx="7" ry="11" transform="rotate(40 72 46)"/>
    <ellipse cx="68" cy="64" rx="7" ry="11" transform="rotate(60 68 64)"/>
    <ellipse cx="54" cy="76" rx="7" ry="10" transform="rotate(75 54 76)"/>
    <ellipse cx="38" cy="74" rx="7" ry="10" transform="rotate(-75 38 74)"/>
    <ellipse cx="26" cy="62" rx="7" ry="10" transform="rotate(-50 26 62)"/>
  </g>
  <g fill="#66BB6A" opacity="0.5">
    <ellipse cx="36" cy="32" rx="4" ry="8" transform="rotate(-30 36 32)"/>
    <ellipse cx="50" cy="22" rx="4" ry="8" transform="rotate(-5 50 22)"/>
    <ellipse cx="64" cy="28" rx="4" ry="8" transform="rotate(20 64 28)"/>
  </g>
  <path d="M80 48 C86 44 90 38 90 32" stroke="#558B2F" stroke-width="2.5" fill="none" stroke-linecap="round"/>
  <path d="M80 44 C84 38 88 32 86 26" stroke="#8BC34A" stroke-width="1.5" fill="none" opacity="0.6"/>
</svg>