<svg viewBox="0 0 100 100" xmlns="http://www.w3.org/2000/svg">
  <ellipse cx="50" cy="88" rx="28" ry="8" fill="#8D6E63"/>
  <ellipse cx="50" cy="85" rx="24" ry="6" fill="#A1887F"/>
  <rect x="44" y="70" width="12" height="18" rx="3" fill="#795548"/>
  <path d="M50 70 C50 60 48 52 44 46" stroke="#795548" stroke-width="4" fill="none" stroke-linecap="round"/>
  <path d="M50 60 C54 56 60 54 66 56" stroke="#795548" stroke-width="3" fill="none" stroke-linecap="round"/>
  <path d="M44 52 C38 48 32 46 28 48" stroke="#795548" stroke-width="2.5" fill="none" stroke-linecap="round"/>
  <path d="M46 46 C44 40 46 34 50 30" stroke="#795548" stroke-width="3" fill="none" stroke-linecap="round"/>
  <circle cx="64" cy="52" r="12" fill="#2E7D32"/>
  <circle cx="72" cy="48" r="9" fill="#388E3C"/>
  <circle cx="60" cy="46" r="10" fill="#43A047"/>
  <circle cx="26" cy="46" r="10" fill="#2E7D32"/>
  <circle cx="20" cy="42" r="8" fill="#388E3C"/>
  <circle cx="28" cy="40" r="9" fill="#43A047"/>
  <circle cx="50" cy="26" r="12" fill="#388E3C"/>
  <circle cx="44" cy="22" r="9" fill="#43A047"/>
  <circle cx="56" cy="22" r="9" fill="#2E7D32"/>
  <circle cx="50" cy="18" r="6" fill="#4CAF50"/>
</svg>