<svg viewBox="0 0 100 100" xmlns="http://www.w3.org/2000/svg">
  <ellipse cx="50" cy="90" rx="22" ry="7" fill="#5D4037" opacity="0.4"/>
  <path d="M42 88 C38 80 34 70 34 58 C34 46 38 38 44 34" stroke="#795548" stroke-width="4" fill="none" stroke-linecap="round"/>
  <path d="M58 88 C62 80 66 70 66 58 C66 46 62 38 56 34" stroke="#795548" stroke-width="4" fill="none" stroke-linecap="round"/>
  <path d="M50 88 C50 78 50 68 50 56 C50 46 50 38 50 32" stroke="#6D4C41" stroke-width="3" fill="none" stroke-linecap="round"/>
  <path d="M34 58 C28 52 24 42 26 32 C30 22 40 20 48 28" stroke="#795548" stroke-width="3" fill="none" stroke-linecap="round"/>
  <path d="M66 58 C72 52 76 42 74 32 C70 22 60 20 52 28" stroke="#795548" stroke-width="3" fill="none" stroke-linecap="round"/>
  <g fill="#283593">
    <circle cx="30" cy="30" r="8"/><circle cx="40" cy="22" r="8"/><circle cx="52" cy="18" r="8"/>
    <circle cx="64" cy="22" r="8"/><circle cx="74" cy="32" r="8"/>
    <circle cx="26" cy="44" r="7"/><circle cx="74" cy="44" r="7"/>
  </g>
  <g fill="#3949AB">
    <circle cx="30" cy="28" r="6"/><circle cx="40" cy="20" r="6"/><circle cx="52" cy="16" r="6"/>
    <circle cx="64" cy="20" r="6"/><circle cx="74" cy="30" r="6"/>
    <circle cx="26" cy="42" r="5"/><circle cx="74" cy="42" r="5"/>
  </g>
  <g fill="#5C6BC0" opacity="0.6">
    <circle cx="28" cy="27" r="3"/><circle cx="38" cy="19" r="3"/><circle cx="52" cy="14" r="3"/>
    <circle cx="65" cy="19" r="3"/><circle cx="75" cy="29" r="3"/>
  </g>
  <g fill="#C5CAE9" opacity="0.5">
    <circle cx="28" cy="25" r="1.5"/><circle cx="40" cy="18" r="1.5"/><circle cx="52" cy="14" r="1.5"/>
    <circle cx="64" cy="19" r="1.5"/><circle cx="76" cy="29" r="1.5"/>
  </g>
</svg>