<svg viewBox="0 0 100 100" xmlns="http://www.w3.org/2000/svg">
  <path d="M37 95 L63 95 L60 79 L40 79 Z" fill="#B97040"/>
  <rect x="34" y="74" width="32" height="7" rx="3.5" fill="#C8814E"/>
  <ellipse cx="50" cy="79" rx="13" ry="3.5" fill="#4E342E"/>
  <path d="M50 79 L50 22" stroke="#558B2F" stroke-width="2" fill="none" stroke-linecap="round"/>
  <path d="M50 70 C40 64 28 52 26 38 C24 24 34 14 44 20 C52 24 54 40 50 70 Z" fill="#2E7D32"/>
  <path d="M50 70 C60 64 72 52 74 38 C76 24 66 14 56 20 C48 24 46 40 50 70 Z" fill="#388E3C"/>
  <path d="M50 22 L50 70" stroke="#A5D6A7" stroke-width="1.5" fill="none" opacity="0.6"/>
  <path d="M50 40 C44 38 38 36 32 36" stroke="#A5D6A7" stroke-width="1" fill="none" opacity="0.5"/>
  <path d="M50 50 C56 48 62 46 68 46" stroke="#A5D6A7" stroke-width="1" fill="none" opacity="0.5"/>
  <path d="M50 60 C44 58 40 56 36 54" stroke="#A5D6A7" stroke-width="1" fill="none" opacity="0.5"/>
</svg>