<svg viewBox="0 0 100 100" xmlns="http://www.w3.org/2000/svg">
  <path d="M30 18 C30 14 34 10 40 10 C54 10 60 18 62 30 C64 42 62 58 58 70 C54 82 48 92 42 94 C36 96 30 90 28 78 C26 66 28 48 30 34 C30 26 30 22 30 18 Z" fill="#558B2F"/>
  <path d="M32 20 C32 16 36 12 42 12 C54 12 60 20 62 30 C64 42 62 56 58 68 C54 80 48 90 44 92 C40 94 34 88 32 76 C30 64 32 46 32 34 C32 26 32 24 32 20 Z" fill="#7CB342"/>
  <ellipse cx="42" cy="35" rx="8" ry="10" fill="#388E3C"/>
  <ellipse cx="42" cy="35" rx="6" ry="8" fill="#FAFAFA" opacity="0.9"/>
  <ellipse cx="42" cy="58" rx="8" ry="10" fill="#388E3C"/>
  <ellipse cx="42" cy="58" rx="6" ry="8" fill="#FAFAFA" opacity="0.9"/>
  <ellipse cx="42" cy="79" rx="7" ry="9" fill="#388E3C"/>
  <ellipse cx="42" cy="79" rx="5" ry="7" fill="#FAFAFA" opacity="0.9"/>
  <path d="M32 34 C38 34 44 34 50 34" stroke="#33691E" stroke-width="1.5" fill="none" opacity="0.5"/>
  <path d="M32 56 C38 56 44 56 50 56" stroke="#33691E" stroke-width="1.5" fill="none" opacity="0.5"/>
</svg>