<svg viewBox="0 0 100 100" xmlns="http://www.w3.org/2000/svg">
  <path d="M46 92 C44 78 44 64 46 50 L54 50 C56 64 56 78 54 92 Z" fill="#EEEEEE"/>
  <g stroke="#BDBDBD" stroke-width="1.5" fill="none" opacity="0.8">
    <path d="M46 60 C44 60 44 62 46 62"/><path d="M54 68 C56 68 56 70 54 70"/>
    <path d="M46 74 C44 74 44 76 46 76"/><path d="M54 80 C56 80 56 82 54 82"/>
  </g>
  <path d="M50 50 C50 50 32 44 24 34 C18 26 22 14 30 14 C36 14 44 24 50 40 Z" fill="#43A047"/>
  <path d="M50 50 C50 50 68 44 76 34 C82 26 78 14 70 14 C64 14 56 24 50 40 Z" fill="#2E7D32"/>
  <path d="M50 50 C50 50 42 30 44 16 C46 6 52 4 56 12 C60 20 54 38 50 50 Z" fill="#388E3C"/>
  <path d="M50 50 C50 50 58 30 56 16 C54 6 48 4 44 12 C40 20 46 38 50 50 Z" fill="#43A047"/>
</svg>