<svg viewBox="0 0 100 100" xmlns="http://www.w3.org/2000/svg">
  <path d="M37 95 L63 95 L60 79 L40 79 Z" fill="#B97040"/>
  <rect x="34" y="74" width="32" height="7" rx="3.5" fill="#C8814E"/>
  <ellipse cx="50" cy="79" rx="13" ry="3.5" fill="#4E342E"/>
  <path d="M50 79 L50 44" stroke="#558B2F" stroke-width="3" fill="none" stroke-linecap="round"/>
  <path d="M50 68 C42 62 34 56 28 52" stroke="#558B2F" stroke-width="2" fill="none" stroke-linecap="round"/>
  <path d="M50 56 C58 50 66 44 72 40" stroke="#558B2F" stroke-width="2" fill="none" stroke-linecap="round"/>
  <g fill="#558B2F">
    <ellipse cx="50" cy="44" rx="10" ry="7"/>
    <ellipse cx="50" cy="32" rx="10" ry="7"/>
    <ellipse cx="50" cy="20" rx="8" ry="5.5"/>
    <ellipse cx="26" cy="52" rx="9" ry="6" transform="rotate(20 26 52)"/>
    <ellipse cx="18" cy="47" rx="8" ry="5" transform="rotate(20 18 47)"/>
    <ellipse cx="74" cy="40" rx="9" ry="6" transform="rotate(-20 74 40)"/>
    <ellipse cx="82" cy="35" rx="8" ry="5" transform="rotate(-20 82 35)"/>
  </g>
  <g fill="#E91E63">
    <path d="M50 26 C46 20 44 12 46 8 C50 12 52 20 50 26 Z"/>
    <path d="M50 26 C54 20 56 12 54 8 C50 12 48 20 50 26 Z"/>
    <path d="M50 26 C44 24 36 20 32 16 C36 16 44 22 50 26 Z"/>
    <path d="M50 26 C56 24 64 20 68 16 C64 16 56 22 50 26 Z"/>
    <path d="M50 26 C44 28 38 30 34 28 C38 24 46 24 50 26 Z"/>
    <path d="M50 26 C56 28 62 30 66 28 C62 24 54 24 50 26 Z"/>
    <path d="M50 26 C48 30 46 36 46 40 C48 34 50 28 50 26 Z"/>
    <path d="M50 26 C52 30 54 36 54 40 C52 34 50 28 50 26 Z"/>
  </g>
  <circle cx="50" cy="26" r="5" fill="#AD1457"/>
  <circle cx="50" cy="26" r="3" fill="#F48FB1"/>
</svg>