<svg viewBox="0 0 100 100" xmlns="http://www.w3.org/2000/svg">
  <path d="M50 94 C50 80 50 66 50 50" stroke="#8D6E63" stroke-width="5" fill="none" stroke-linecap="round"/>
  <path d="M44 78 C40 74 32 70 22 70 C26 64 36 66 44 74 Z" fill="#8BC34A" opacity="0.7"/>
  <path d="M56 80 C60 76 68 72 78 72 C74 66 64 68 56 76 Z" fill="#9CCC65" opacity="0.7"/>
  <path d="M42 62 C34 56 22 52 10 52 C16 44 30 48 42 58 Z" fill="#8BC34A" opacity="0.7"/>
  <path d="M58 64 C66 58 78 54 90 54 C84 46 70 50 58 60 Z" fill="#9CCC65" opacity="0.7"/>
  <ellipse cx="50" cy="34" rx="18" ry="22" fill="#C8E6A0"/>
  <ellipse cx="50" cy="32" rx="14" ry="18" fill="#DCEDC8"/>
  <ellipse cx="50" cy="30" rx="10" ry="13" fill="#F1F8E9"/>
  <line x1="50" y1="12" x2="50" y2="52" stroke="#A5D6A7" stroke-width="1.5" opacity="0.5"/>
  <line x1="36" y1="30" x2="64" y2="30" stroke="#A5D6A7" stroke-width="1" opacity="0.4"/>
</svg>