<svg viewBox="0 0 100 100" xmlns="http://www.w3.org/2000/svg">
  <path d="M50 92 C50 80 50 68 50 56" stroke="#5D4037" stroke-width="2.5" fill="none" stroke-linecap="round"/>
  <path d="M50 56 C50 44 50 32 50 20" stroke="#33691E" stroke-width="2" fill="none" stroke-linecap="round"/>
  <path d="M50 72 C44 66 34 60 22 58 C28 52 42 56 50 66 Z" fill="#388E3C"/>
  <path d="M50 72 C56 66 66 60 78 58 C72 52 58 56 50 66 Z" fill="#2E7D32"/>
  <path d="M50 72 C44 64 40 54 40 44 C44 50 48 60 50 68 Z" fill="#43A047"/>
  <path d="M50 72 C56 64 60 54 60 44 C56 50 52 60 50 68 Z" fill="#388E3C"/>
  <path d="M50 52 C44 46 34 40 22 38 C28 32 42 36 50 46 Z" fill="#4CAF50"/>
  <path d="M50 52 C56 46 66 40 78 38 C72 32 58 36 50 46 Z" fill="#43A047"/>
  <path d="M50 32 C44 26 36 22 26 20 C32 14 44 18 50 28 Z" fill="#66BB6A"/>
  <path d="M50 32 C56 26 64 22 74 20 C68 14 56 18 50 28 Z" fill="#81C784"/>
  <g fill="#FDD835" opacity="0.9">
    <circle cx="50" cy="16" r="5"/>
    <circle cx="44" cy="14" r="3.5"/><circle cx="56" cy="14" r="3.5"/>
    <circle cx="50" cy="10" r="3"/>
  </g>
</svg>