<svg viewBox="0 0 100 100" xmlns="http://www.w3.org/2000/svg">
  <path d="M50 92 C50 78 50 64 50 50" stroke="#8D6E63" stroke-width="3" fill="none" stroke-linecap="round"/>
  <path d="M50 80 C42 74 30 70 18 70 C26 64 40 66 50 74 Z" fill="#1B5E20"/>
  <path d="M50 68 C58 62 70 58 82 58 C74 52 60 54 50 62 Z" fill="#2E7D32"/>
  <path d="M50 56 C42 50 30 46 18 46 C26 40 40 42 50 50 Z" fill="#1B5E20"/>
  <path d="M50 44 C58 38 70 34 82 34 C74 28 60 30 50 38 Z" fill="#388E3C"/>
  <path d="M50 50 C50 42 50 34 50 26" stroke="#388E3C" stroke-width="2" fill="none"/>
  <g fill="#2196F3" opacity="0.15">
    <circle cx="46" cy="22" r="4"/><circle cx="50" cy="18" r="4.5"/>
    <circle cx="54" cy="22" r="4"/>
  </g>
  <g fill="white" opacity="0.9">
    <circle cx="46" cy="22" r="3.5"/><circle cx="50" cy="18" r="4"/>
    <circle cx="54" cy="22" r="3.5"/><circle cx="50" cy="14" r="3"/>
    <circle cx="44" cy="18" r="3"/><circle cx="56" cy="18" r="3"/>
  </g>
  <g fill="#FDD835" opacity="0.6">
    <circle cx="46" cy="22" r="1.5"/><circle cx="50" cy="18" r="1.5"/>
    <circle cx="54" cy="22" r="1.5"/>
  </g>
</svg>