<svg viewBox="0 0 100 100" xmlns="http://www.w3.org/2000/svg">
  <path d="M37 95 L63 95 L60 79 L40 79 Z" fill="#B97040"/>
  <rect x="34" y="74" width="32" height="7" rx="3.5" fill="#C8814E"/>
  <ellipse cx="50" cy="79" rx="13" ry="3.5" fill="#4E342E"/>
  <path d="M50 79 C50 68 50 58 50 48" stroke="#4A6741" stroke-width="3" fill="none" stroke-linecap="round"/>
  <path d="M50 70 C40 64 30 60 22 58" stroke="#4A6741" stroke-width="2.2" fill="none" stroke-linecap="round"/>
  <path d="M50 58 C60 52 70 48 78 46" stroke="#4A6741" stroke-width="2.2" fill="none" stroke-linecap="round"/>
  <g fill="#5A8040">
    <path d="M20 58 C14 52 12 44 14 36 C18 42 22 52 20 58 Z"/>
    <path d="M26 60 C22 52 22 44 26 38 C30 44 30 54 26 60 Z" fill="#7B9B52"/>
    <path d="M80 46 C84 40 86 32 84 24 C80 30 78 40 80 46 Z"/>
    <path d="M74 48 C78 42 80 34 78 26 C74 32 72 42 74 48 Z" fill="#7B9B52"/>
  </g>
  <path d="M50 48 C46 42 44 34 46 26 C50 32 52 42 50 48 Z" fill="#5A8040"/>
  <path d="M50 48 C54 42 56 34 54 26 C50 32 48 42 50 48 Z" fill="#7B9B52"/>
  <g fill="#7B52A0">
    <path d="M50 26 C48 20 46 14 48 8 C50 12 52 20 50 26 Z"/>
    <path d="M50 26 C52 20 54 14 52 8 C50 12 48 20 50 26 Z"/>
    <path d="M44 22 C40 18 36 14 38 8 C42 12 46 20 44 22 Z"/>
    <path d="M56 22 C60 18 64 14 62 8 C58 12 54 20 56 22 Z"/>
  </g>
  <g fill="#CE93D8" opacity="0.7">
    <circle cx="50" cy="8" r="3.5"/><circle cx="44" cy="8" r="3"/><circle cx="56" cy="8" r="3"/>
  </g>
</svg>