<svg viewBox="0 0 100 100" xmlns="http://www.w3.org/2000/svg">
  <path d="M52 18 C50 20 46 28 44 40 C42 52 44 68 50 85 C56 68 58 52 56 40 C54 28 52 20 52 18 Z" fill="#FF6F00" opacity="0.9"/>
  <path d="M50 18 C48 22 47 35 48 50 C49 65 50 78 50 85 C50 78 51 65 52 50 C53 35 52 22 50 18 Z" fill="#E65100"/>
  <path d="M50 15 C50 15 44 8 36 6 C40 10 44 14 50 15 Z" fill="#388E3C"/>
  <path d="M50 15 C50 15 54 6 62 4 C58 8 54 12 50 15 Z" fill="#43A047"/>
  <path d="M50 15 C50 15 48 4 48 -2 C50 4 52 10 50 15 Z" fill="#2E7D32"/>
  <path d="M50 15 C50 15 40 10 32 14 C38 12 45 13 50 15 Z" fill="#558B2F"/>
  <path d="M50 15 C50 15 60 10 68 14 C62 12 55 13 50 15 Z" fill="#558B2F"/>
</svg>