<svg viewBox="0 0 100 100" xmlns="http://www.w3.org/2000/svg">
  <path d="M50 16 C50 16 42 8 48 4 C54 0 58 8 54 14 Z" fill="#388E3C"/>
  <path d="M50 16 C50 16 60 8 64 12 C68 18 58 22 50 16 Z" fill="#43A047"/>
  <path d="M50 16 C46 22 40 34 38 48 C36 62 38 76 44 86 C46 90 48 94 50 96 C52 94 54 90 56 86 C62 76 64 62 62 48 C60 34 54 22 50 16 Z" fill="#E53935"/>
  <path d="M50 16 C47 22 42 34 40 48 C38 62 40 76 44 86 C46 88 48 92 50 94 C49 80 47 64 47 48 C47 34 48 22 50 16 Z" fill="#EF5350"/>
  <ellipse cx="44" cy="36" rx="4" ry="7" fill="white" opacity="0.15" transform="rotate(-10 44 36)"/>
</svg>