<svg viewBox="0 0 100 100" xmlns="http://www.w3.org/2000/svg">
  <rect x="43" y="78" width="14" height="16" rx="5" fill="#4CAF50"/>
  <path d="M43 85 C34 83 28 78 28 70 C28 62 34 58 40 60 L40 85 Z" fill="#43A047"/>
  <path d="M57 82 C66 80 72 75 72 67 C72 59 66 55 60 57 L60 82 Z" fill="#43A047"/>
  <rect x="43" y="30" width="14" height="50" rx="7" fill="#4CAF50"/>
  <rect x="43" y="30" width="8" height="50" rx="5" fill="#66BB6A" opacity="0.5"/>
  <circle cx="50" cy="22" r="8" fill="#4CAF50"/>
  <circle cx="50" cy="22" r="5" fill="#66BB6A"/>
  <g stroke="#C8C8C8" stroke-width="1" stroke-linecap="round">
    <line x1="43" y1="40" x2="38" y2="38"/><line x1="43" y1="48" x2="38" y2="46"/>
    <line x1="43" y1="56" x2="38" y2="54"/><line x1="43" y1="64" x2="38" y2="62"/>
    <line x1="57" y1="40" x2="62" y2="38"/><line x1="57" y1="48" x2="62" y2="46"/>
    <line x1="57" y1="56" x2="62" y2="54"/><line x1="57" y1="64" x2="62" y2="62"/>
    <line x1="40" y1="66" x2="34" y2="62"/><line x1="60" y1="62" x2="66" y2="58"/>
  </g>
  <circle cx="50" cy="22" r="4" fill="#FF1744"/>
</svg>