<svg viewBox="0 0 100 100" xmlns="http://www.w3.org/2000/svg">
  <path d="M37 95 L63 95 L60 79 L40 79 Z" fill="#B97040"/>
  <rect x="34" y="74" width="32" height="7" rx="3.5" fill="#C8814E"/>
  <ellipse cx="50" cy="79" rx="13" ry="3.5" fill="#4E342E"/>
  <path d="M40 79 C38 65 38 48 40 30 C40 20 40 14 40 10" stroke="#558B2F" stroke-width="3" fill="none" stroke-linecap="round"/>
  <path d="M46 79 C44 65 45 48 46 30 C46 20 47 14 47 8" stroke="#66BB6A" stroke-width="3" fill="none" stroke-linecap="round"/>
  <path d="M50 79 C50 65 50 48 50 30 C50 20 50 14 50 8" stroke="#558B2F" stroke-width="3" fill="none" stroke-linecap="round"/>
  <path d="M54 79 C55 65 54 48 54 30 C54 20 53 14 53 8" stroke="#66BB6A" stroke-width="3" fill="none" stroke-linecap="round"/>
  <path d="M60 79 C62 65 62 48 60 30 C60 20 60 14 60 10" stroke="#558B2F" stroke-width="3" fill="none" stroke-linecap="round"/>
  <circle cx="40" cy="9" r="6" fill="#9C27B0"/><circle cx="47" cy="7" r="6" fill="#7B1FA2"/>
  <circle cx="50" cy="6" r="6" fill="#9C27B0"/><circle cx="53" cy="7" r="6" fill="#AB47BC"/>
  <circle cx="60" cy="9" r="6" fill="#7B1FA2"/>
  <circle cx="40" cy="9" r="4" fill="#CE93D8"/><circle cx="47" cy="7" r="4" fill="#BA68C8"/>
  <circle cx="50" cy="6" r="4" fill="#CE93D8"/><circle cx="53" cy="7" r="4" fill="#CE93D8"/>
  <circle cx="60" cy="9" r="4" fill="#BA68C8"/>
</svg>