<svg viewBox="0 0 100 100" xmlns="http://www.w3.org/2000/svg">
  <path d="M50 28 C50 20 50 14 50 8" stroke="#8D6E63" stroke-width="2.5" fill="none" stroke-linecap="round"/>
  <path d="M50 28 C42 20 30 18 20 22 C22 30 30 34 40 30 C46 34 50 40 50 28 Z" fill="#C8A96E" opacity="0.8"/>
  <path d="M50 28 C58 20 70 18 80 22 C78 30 70 34 60 30 C54 34 50 40 50 28 Z" fill="#D4B876" opacity="0.8"/>
  <path d="M50 28 C40 26 30 30 22 38 C24 46 32 48 42 44 C46 48 50 54 50 28 Z" fill="#BCA05A" opacity="0.7"/>
  <path d="M50 28 C60 26 70 30 78 38 C76 46 68 48 58 44 C54 48 50 54 50 28 Z" fill="#C8B060" opacity="0.7"/>
  <path d="M50 28 C44 30 38 38 38 48 C38 60 50 72 50 72 C50 72 62 60 62 48 C62 38 56 30 50 28 Z" fill="#E8C44A" opacity="0.5"/>
  <circle cx="50" cy="60" r="16" fill="#FFA726"/>
  <circle cx="50" cy="58" r="13" fill="#FFB74D"/>
  <ellipse cx="44" cy="52" rx="5" ry="3" fill="white" opacity="0.2" transform="rotate(-20 44 52)"/>
</svg>