<svg viewBox="0 0 100 100" xmlns="http://www.w3.org/2000/svg">
  <path d="M37 95 L63 95 L60 79 L40 79 Z" fill="#B97040"/>
  <rect x="34" y="74" width="32" height="7" rx="3.5" fill="#C8814E"/>
  <ellipse cx="50" cy="79" rx="13" ry="3.5" fill="#4E342E"/>
  <path d="M50 79 L50 52" stroke="#558B2F" stroke-width="2.5" stroke-linecap="round"/>
  <path d="M50 68 C44 64 36 58 30 52" stroke="#558B2F" stroke-width="2" fill="none" stroke-linecap="round"/>
  <path d="M50 60 C56 56 64 50 70 44" stroke="#558B2F" stroke-width="2" fill="none" stroke-linecap="round"/>
  <g fill="#43A047">
    <path d="M50 52 C44 48 38 40 40 30 C42 20 50 18 54 26 C58 34 56 46 50 52 Z"/>
    <path d="M50 52 C56 46 62 36 60 26 C58 16 50 14 46 22 C42 30 44 44 50 52 Z"/>
  </g>
  <g fill="#388E3C">
    <path d="M28 50 C22 44 22 36 28 34 C32 34 34 40 30 46 C28 48 28 50 28 50 Z"/>
    <path d="M72 42 C78 36 78 28 72 26 C68 26 66 32 70 38 C72 40 72 42 72 42 Z"/>
  </g>
  <g fill="#FFF9C4" opacity="0.9">
    <circle cx="50" cy="20" r="2.5"/><circle cx="44" cy="18" r="2"/><circle cx="56" cy="18" r="2"/>
    <circle cx="40" cy="22" r="1.8"/><circle cx="60" cy="22" r="1.8"/>
  </g>
</svg>