<svg viewBox="0 0 100 100" xmlns="http://www.w3.org/2000/svg">
  <path d="M37 95 L63 95 L60 79 L40 79 Z" fill="#B97040"/>
  <rect x="34" y="74" width="32" height="7" rx="3.5" fill="#C8814E"/>
  <ellipse cx="50" cy="79" rx="13" ry="3.5" fill="#4E342E"/>
  <path d="M50 79 C50 70 50 60 50 48" stroke="#558B2F" stroke-width="2.5" fill="none" stroke-linecap="round"/>
  <path d="M50 65 C44 60 36 58 30 60" stroke="#558B2F" stroke-width="2" fill="none" stroke-linecap="round"/>
  <g fill="#558B2F">
    <ellipse cx="29" cy="59" rx="6" ry="3.5" transform="rotate(20 29 59)"/>
    <ellipse cx="23" cy="55" rx="5" ry="3" transform="rotate(20 23 55)"/>
  </g>
  <circle cx="50" cy="34" r="10" fill="#FDD835"/>
  <circle cx="50" cy="34" r="7" fill="#F9A825"/>
  <g fill="white">
    <ellipse cx="50" cy="22" rx="3" ry="7"/><ellipse cx="50" cy="46" rx="3" ry="7"/>
    <ellipse cx="38" cy="34" rx="7" ry="3"/><ellipse cx="62" cy="34" rx="7" ry="3"/>
    <ellipse cx="41.5" cy="25.5" rx="3" ry="7" transform="rotate(45 41.5 25.5)"/>
    <ellipse cx="58.5" cy="42.5" rx="3" ry="7" transform="rotate(45 58.5 42.5)"/>
    <ellipse cx="58.5" cy="25.5" rx="3" ry="7" transform="rotate(-45 58.5 25.5)"/>
    <ellipse cx="41.5" cy="42.5" rx="3" ry="7" transform="rotate(-45 41.5 42.5)"/>
  </g>
</svg>