<svg viewBox="0 0 100 100" xmlns="http://www.w3.org/2000/svg">
  <path d="M50 92 C50 80 50 68 50 56 C50 44 50 32 50 22" stroke="#558B2F" stroke-width="10" fill="none" stroke-linecap="round"/>
  <path d="M50 92 C50 80 50 68 50 56 C50 44 50 32 50 22" stroke="#8BC34A" stroke-width="6" fill="none" stroke-linecap="round"/>
  <path d="M50 70 C40 64 28 62 20 66" stroke="#558B2F" stroke-width="8" fill="none" stroke-linecap="round"/>
  <path d="M50 70 C40 64 28 62 20 66" stroke="#8BC34A" stroke-width="4" fill="none" stroke-linecap="round"/>
  <path d="M50 50 C62 44 74 44 80 50" stroke="#558B2F" stroke-width="8" fill="none" stroke-linecap="round"/>
  <path d="M50 50 C62 44 74 44 80 50" stroke="#8BC34A" stroke-width="4" fill="none" stroke-linecap="round"/>
  <g fill="#7CB342" opacity="0.7">
    <path d="M50 22 C46 14 42 8 44 4 C48 8 50 16 50 22 Z"/>
    <path d="M50 22 C54 14 58 8 56 4 C52 8 50 16 50 22 Z"/>
    <path d="M20 66 C12 60 8 52 10 46 C14 52 18 60 20 66 Z"/>
    <path d="M80 50 C88 44 92 36 90 30 C86 36 82 44 80 50 Z"/>
  </g>
  <circle cx="50" cy="16" r="11" fill="#E91E63"/>
  <circle cx="50" cy="16" r="9" fill="#F06292"/>
  <g fill="#E91E63">
    <path d="M50 5 C48 0 44 -2 46 -4 C50 -2 52 4 50 5 Z"/>
    <path d="M50 5 C52 0 56 -2 54 -4 C50 -2 48 4 50 5 Z"/>
    <path d="M61 11 C66 8 70 4 68 2 C64 4 60 8 61 11 Z"/>
    <path d="M39 11 C34 8 30 4 32 2 C36 4 40 8 39 11 Z"/>
    <path d="M61 21 C66 24 70 28 68 30 C64 28 60 24 61 21 Z"/>
    <path d="M39 21 C34 24 30 28 32 30 C36 28 40 24 39 21 Z"/>
  </g>
  <ellipse cx="46" cy="14" rx="3" ry="4" fill="white" opacity="0.3" transform="rotate(-15 46 14)"/>
  <ellipse cx="50" cy="92" rx="14" ry="4" fill="#8D6E63" opacity="0.3"/>
</svg>