<svg viewBox="0 0 100 100" xmlns="http://www.w3.org/2000/svg">
  <path d="M37 95 L63 95 L60 79 L40 79 Z" fill="#B97040"/>
  <rect x="34" y="74" width="32" height="7" rx="3.5" fill="#C8814E"/>
  <ellipse cx="50" cy="79" rx="13" ry="3.5" fill="#4E342E"/>
  <path d="M50 79 L50 20" stroke="#8BC34A" stroke-width="2.5" fill="none" stroke-linecap="round"/>
  <path d="M50 65 C46 62 40 58 34 55" stroke="#8BC34A" stroke-width="1.5" fill="none" stroke-linecap="round"/>
  <path d="M50 55 C54 52 60 48 66 45" stroke="#8BC34A" stroke-width="1.5" fill="none" stroke-linecap="round"/>
  <path d="M50 45 C46 42 40 38 34 35" stroke="#8BC34A" stroke-width="1.5" fill="none" stroke-linecap="round"/>
  <path d="M50 35 C54 32 60 28 66 25" stroke="#8BC34A" stroke-width="1.5" fill="none" stroke-linecap="round"/>
  <g fill="#F9A825" opacity="0.9">
    <circle cx="50" cy="20" r="2.5"/>
    <circle cx="46" cy="18" r="2"/><circle cx="54" cy="18" r="2"/>
    <circle cx="42" cy="20" r="1.8"/><circle cx="58" cy="20" r="1.8"/>
    <circle cx="44" cy="24" r="1.8"/><circle cx="56" cy="24" r="1.8"/>
    <circle cx="48" cy="15" r="1.5"/><circle cx="52" cy="15" r="1.5"/>
  </g>
</svg>