<svg viewBox="0 0 100 100" xmlns="http://www.w3.org/2000/svg">
  <ellipse cx="50" cy="93" rx="14" ry="4" fill="#8D6E63" opacity="0.4"/>
  <path d="M50 92 C51 78 52 64 53 52 C54 40 55 30 54 20" stroke="#8D6E63" stroke-width="9" fill="none" stroke-linecap="round"/>
  <path d="M50 92 C51 78 52 64 53 52 C54 40 55 30 54 20" stroke="#BCAAA4" stroke-width="5" fill="none" stroke-linecap="round"/>
  <g stroke="#5D4037" stroke-width="1" fill="none" opacity="0.4">
    <line x1="46" y1="84" x2="56" y2="84"/><line x1="46" y1="76" x2="56" y2="76"/>
    <line x1="47" y1="68" x2="57" y2="68"/><line x1="47" y1="60" x2="57" y2="60"/>
    <line x1="48" y1="52" x2="58" y2="52"/>
  </g>
  <path d="M54 20 C54 20 36 14 26 20 C36 16 50 16 54 22 Z" fill="#2E7D32"/>
  <path d="M54 20 C54 20 38 8 30 12 C38 8 50 12 54 22 Z" fill="#388E3C"/>
  <path d="M54 20 C54 20 72 14 82 20 C72 16 58 16 54 22 Z" fill="#2E7D32"/>
  <path d="M54 20 C54 20 70 8 78 12 C70 8 58 12 54 22 Z" fill="#388E3C"/>
  <path d="M54 20 C54 20 52 4 52 -2 C54 4 56 12 54 22 Z" fill="#43A047"/>
  <path d="M54 28 C54 28 36 22 28 28 C38 22 52 24 54 30 Z" fill="#33691E"/>
  <path d="M54 28 C54 28 70 22 78 28 C68 22 56 24 54 30 Z" fill="#43A047"/>
  <g fill="#E65100">
    <ellipse cx="50" cy="34" rx="5" ry="3.5"/><ellipse cx="55" cy="36" rx="5" ry="3.5"/>
    <ellipse cx="48" cy="38" rx="5" ry="3.5"/><ellipse cx="54" cy="40" rx="5" ry="3.5"/>
    <ellipse cx="50" cy="44" rx="5" ry="3.5"/><ellipse cx="56" cy="46" rx="5" ry="3.5"/>
  </g>
  <g fill="#FF8F00" opacity="0.7">
    <ellipse cx="50" cy="32" rx="3.5" ry="2.5"/><ellipse cx="55" cy="34" rx="3.5" ry="2.5"/>
    <ellipse cx="48" cy="36" rx="3.5" ry="2.5"/><ellipse cx="54" cy="38" rx="3.5" ry="2.5"/>
  </g>
</svg>