<svg viewBox="0 0 100 100" xmlns="http://www.w3.org/2000/svg">
  <path d="M44 8 C42 4 42 2 44 2 C46 4 48 6 50 8 C52 6 54 4 56 2 C58 2 58 4 56 8" stroke="#558B2F" stroke-width="2.5" fill="none" stroke-linecap="round"/>
  <g fill="#558B2F" opacity="0.8">
    <path d="M40 12 C36 10 32 8 30 10 C32 12 36 12 40 14 Z"/>
    <path d="M60 12 C64 10 68 8 70 10 C68 12 64 12 60 14 Z"/>
    <path d="M44 10 C40 6 36 4 34 6 C36 8 40 10 44 12 Z"/>
    <path d="M56 10 C60 6 64 4 66 6 C64 8 60 10 56 12 Z"/>
  </g>
  <path d="M44 14 C42 30 40 50 40 65 C40 76 44 84 50 88 C56 84 60 76 60 65 C60 50 58 30 56 14 Z" fill="#F5F5F5"/>
  <path d="M44 14 L56 14" stroke="#BDBDBD" stroke-width="1" fill="none"/>
  <path d="M43 28 L57 28" stroke="#E0E0E0" stroke-width="1" fill="none" opacity="0.6"/>
  <path d="M42 44 L58 44" stroke="#E0E0E0" stroke-width="1" fill="none" opacity="0.5"/>
  <path d="M41 58 L59 58" stroke="#E0E0E0" stroke-width="1" fill="none" opacity="0.4"/>
  <path d="M50 88 C50 88 50 92 50 96" stroke="#BDBDBD" stroke-width="2" stroke-linecap="round"/>
  <ellipse cx="44" cy="22" rx="4" ry="2.5" fill="white" opacity="0.5" transform="rotate(-15 44 22)"/>
</svg>