<svg viewBox="0 0 100 100" xmlns="http://www.w3.org/2000/svg">
  <path d="M30 8 C32 20 34 34 38 48 C42 62 48 74 54 86 C58 92 62 96 66 96" stroke="#558B2F" stroke-width="4" fill="none" stroke-linecap="round"/>
  <path d="M30 8 C32 20 34 34 38 48 C42 62 48 74 54 86 C58 92 62 96 66 96" stroke="#8BC34A" stroke-width="2" fill="none" stroke-linecap="round"/>
  <g fill="#33691E" opacity="0.7">
    <ellipse cx="31" cy="16" rx="3" ry="2"/>
    <ellipse cx="33" cy="28" rx="3" ry="2"/>
    <ellipse cx="35" cy="40" rx="3" ry="2"/>
    <ellipse cx="39" cy="54" rx="3" ry="2"/>
    <ellipse cx="44" cy="66" rx="3" ry="2"/>
    <ellipse cx="50" cy="78" rx="3" ry="2"/>
    <ellipse cx="57" cy="88" rx="3" ry="2"/>
  </g>
  <path d="M30 8 C24 4 18 4 16 8 C20 6 26 6 30 10 Z" fill="#2E7D32"/>
  <g fill="#558B2F" opacity="0.6">
    <path d="M32 22 C26 20 22 22 22 26 C26 22 30 22 32 24 Z"/>
    <path d="M36 44 C30 44 26 48 28 52 C30 46 34 44 36 46 Z"/>
    <path d="M42 64 C36 66 34 72 36 76 C38 70 42 66 44 68 Z"/>
  </g>
</svg>