<svg viewBox="0 0 100 100" xmlns="http://www.w3.org/2000/svg">
  <path d="M50 12 C50 8 50 4 52 2 C52 6 52 10 50 12 Z" fill="#558B2F"/>
  <path d="M50 12 C50 8 48 4 46 4 C47 8 48 10 50 12 Z" fill="#43A047"/>
  <ellipse cx="50" cy="54" rx="28" ry="38" fill="#FFF8E1"/>
  <ellipse cx="50" cy="54" rx="24" ry="34" fill="#FFFDE7"/>
  <g stroke="#FFA000" stroke-width="3.5" fill="none">
    <path d="M26 54 C26 30 36 14 50 14 C64 14 74 30 74 54 C74 78 64 92 50 92 C36 92 26 78 26 54 Z" stroke-dasharray="0 12 0"/>
  </g>
  <g stroke="#F57F17" stroke-width="2" fill="none" opacity="0.5">
    <line x1="50" y1="14" x2="50" y2="92"/>
    <path d="M38 20 C34 28 32 40 32 54 C32 68 34 80 38 88"/>
    <path d="M62 20 C66 28 68 40 68 54 C68 68 66 80 62 88"/>
  </g>
  <ellipse cx="40" cy="36" rx="6" ry="3.5" fill="white" opacity="0.3" transform="rotate(-20 40 36)"/>
</svg>