<svg viewBox="0 0 100 100" xmlns="http://www.w3.org/2000/svg">
  <ellipse cx="50" cy="93" rx="22" ry="5" fill="#8D6E63" opacity="0.4"/>
  <path d="M50 92 C50 80 48 70 46 60" stroke="#5D4037" stroke-width="6" fill="none" stroke-linecap="round"/>
  <path d="M46 60 C36 50 28 40 28 28 C32 38 40 50 46 60 Z" fill="#33691E"/>
  <path d="M46 60 C56 50 62 38 60 26 C56 38 52 52 46 60 Z" fill="#388E3C"/>
  <path d="M50 92 C52 80 56 70 60 60" stroke="#6D4C41" stroke-width="5" fill="none" stroke-linecap="round"/>
  <path d="M60 60 C70 50 78 38 76 26 C72 36 66 50 60 60 Z" fill="#2E7D32"/>
  <ellipse cx="36" cy="22" rx="16" ry="10" fill="#1B5E20"/>
  <ellipse cx="64" cy="20" rx="16" ry="10" fill="#2E7D32"/>
  <ellipse cx="50" cy="18" rx="14" ry="9" fill="#388E3C"/>
  <g fill="#1A237E" opacity="0.9">
    <circle cx="30" cy="18" r="4"/><circle cx="37" cy="14" r="4"/><circle cx="44" cy="16" r="4"/>
    <circle cx="36" cy="22" r="4"/><circle cx="43" cy="24" r="4"/>
    <circle cx="56" cy="14" r="4"/><circle cx="63" cy="16" r="4"/><circle cx="70" cy="14" r="4"/>
    <circle cx="58" cy="22" r="4"/><circle cx="65" cy="20" r="4"/>
    <circle cx="50" cy="14" r="4"/><circle cx="50" cy="22" r="4"/>
  </g>
  <g fill="#3949AB" opacity="0.6">
    <circle cx="30" cy="16" r="2.5"/><circle cx="37" cy="12" r="2.5"/><circle cx="44" cy="14" r="2.5"/>
    <circle cx="56" cy="12" r="2.5"/><circle cx="63" cy="14" r="2.5"/><circle cx="70" cy="12" r="2.5"/>
    <circle cx="50" cy="12" r="2.5"/>
  </g>
</svg>