<svg viewBox="0 0 100 100" xmlns="http://www.w3.org/2000/svg">
  <path d="M37 95 L63 95 L60 79 L40 79 Z" fill="#B97040"/>
  <rect x="34" y="74" width="32" height="7" rx="3.5" fill="#C8814E"/>
  <ellipse cx="50" cy="79" rx="13" ry="3.5" fill="#4E342E"/>
  <path d="M50 79 L50 48" stroke="#5D8A3C" stroke-width="3" stroke-linecap="round"/>
  <g fill="#E91E63">
    <path d="M50 34 C50 30 48 22 46 18 C50 20 52 28 50 34 Z"/>
    <path d="M50 34 C50 30 52 22 54 18 C50 20 48 28 50 34 Z"/>
    <path d="M50 34 C46 32 38 28 34 26 C36 30 44 34 50 34 Z"/>
    <path d="M50 34 C54 32 62 28 66 26 C64 30 56 34 50 34 Z"/>
    <path d="M50 34 C46 36 40 40 36 42 C38 38 46 34 50 34 Z"/>
    <path d="M50 34 C54 36 60 40 64 42 C62 38 54 34 50 34 Z"/>
    <path d="M50 34 C48 36 44 42 44 46 C48 42 50 36 50 34 Z"/>
    <path d="M50 34 C52 36 56 42 56 46 C52 42 50 36 50 34 Z"/>
  </g>
  <circle cx="50" cy="34" r="8" fill="#5D4037"/>
  <circle cx="50" cy="34" r="6" fill="#795548"/>
  <g fill="#FF8A65" opacity="0.6">
    <circle cx="47" cy="31" r="1.5"/><circle cx="53" cy="31" r="1.5"/>
    <circle cx="50" cy="28" r="1.5"/><circle cx="47" cy="37" r="1.5"/><circle cx="53" cy="37" r="1.5"/>
  </g>
  <g fill="#5A8040">
    <path d="M44 60 C40 56 36 50 38 44 C42 48 44 56 44 60 Z"/>
    <path d="M56 62 C60 58 64 52 62 46 C58 50 56 58 56 62 Z"/>
  </g>
</svg>