<svg viewBox="0 0 100 100" xmlns="http://www.w3.org/2000/svg">
  <path d="M50 92 C50 80 50 68 50 56 C50 44 50 34 50 26" stroke="#558B2F" stroke-width="4" fill="none" stroke-linecap="round"/>
  <path d="M50 26 C50 18 52 12 56 8 C62 6 68 10 70 16 C72 22 70 30 66 36 C62 42 56 44 50 44 C44 42 40 36 40 28 C40 20 44 14 50 14 C56 14 60 20 60 26 C60 32 56 36 50 36 C44 36 42 30 44 26 C46 22 50 22 50 26 Z" fill="none" stroke="#43A047" stroke-width="3" stroke-linecap="round"/>
  <circle cx="50" cy="26" r="5" fill="#388E3C"/>
  <g fill="#66BB6A" opacity="0.6">
    <path d="M50 56 C44 52 38 50 32 52 C36 48 44 48 50 52 Z"/>
    <path d="M50 70 C56 66 62 66 66 70 C62 66 56 66 50 66 Z"/>
  </g>
</svg>