<svg viewBox="0 0 100 100" xmlns="http://www.w3.org/2000/svg">
  <ellipse cx="50" cy="92" rx="18" ry="5" fill="#8D6E63" opacity="0.4"/>
  <rect x="46" y="60" width="8" height="34" rx="3" fill="#795548"/>
  <rect x="46" y="60" width="4" height="34" rx="2" fill="#A1887F" opacity="0.5"/>
  <path d="M50 62 C42 58 28 52 22 40 C16 28 24 14 34 14 C40 14 46 18 50 24 C54 18 60 14 66 14 C76 14 84 28 78 40 C72 52 58 58 50 62 Z" fill="#33691E"/>
  <path d="M50 62 C44 56 34 48 30 38 C26 28 30 18 36 16 C40 15 44 18 50 24 C44 22 38 26 36 34 C34 42 38 52 50 62 Z" fill="#2E7D32"/>
  <ellipse cx="36" cy="42" rx="7" ry="9" fill="#4A148C"/>
  <ellipse cx="36" cy="40" rx="5.5" ry="7" fill="#6A1B9A"/>
  <path d="M36 33 C34 31 36 28 38 30 C36 30 35 32 36 33 Z" fill="#33691E"/>
  <ellipse cx="64" cy="38" rx="7" ry="9" fill="#4A148C"/>
  <ellipse cx="64" cy="36" rx="5.5" ry="7" fill="#6A1B9A"/>
  <path d="M64 29 C62 27 64 24 66 26 C64 26 63 28 64 29 Z" fill="#33691E"/>
  <ellipse cx="50" cy="28" rx="6" ry="8" fill="#38006B"/>
  <ellipse cx="34" cy="40" rx="3" ry="2" fill="white" opacity="0.15" transform="rotate(-10 34 40)"/>
</svg>