<svg viewBox="0 0 100 100" xmlns="http://www.w3.org/2000/svg">
  <path d="M28 50 C26 36 30 22 40 16 C50 10 62 14 68 26 C74 38 72 56 64 68 C56 80 44 86 36 80 C28 74 28 62 28 50 Z" fill="#A1887F"/>
  <path d="M30 48 C28 36 32 22 42 16 C52 10 64 14 70 26 C74 36 72 54 64 66 C56 78 44 84 36 78 C30 72 30 60 30 48 Z" fill="#BCAAA4"/>
  <g fill="#8D6E63" opacity="0.5">
    <circle cx="40" cy="28" r="2.5"/><circle cx="60" cy="32" r="2"/>
    <circle cx="66" cy="50" r="2.5"/><circle cx="56" cy="68" r="2"/>
    <circle cx="38" cy="64" r="2.5"/><circle cx="32" cy="46" r="2"/>
  </g>
  <ellipse cx="42" cy="30" rx="10" ry="6" fill="white" opacity="0.13" transform="rotate(-20 42 30)"/>
  <g fill="#558B2F">
    <path d="M38 14 C36 10 34 6 36 4 C38 6 40 10 38 14 Z"/>
    <path d="M46 12 C46 8 46 4 48 2 C50 6 50 10 46 12 Z"/>
  </g>
</svg>