<svg viewBox="0 0 100 100" xmlns="http://www.w3.org/2000/svg">
  <path d="M37 95 L63 95 L60 79 L40 79 Z" fill="#B97040"/>
  <rect x="34" y="74" width="32" height="7" rx="3.5" fill="#C8814E"/>
  <ellipse cx="50" cy="79" rx="13" ry="3.5" fill="#4E342E"/>
  <path d="M50 79 L50 48" stroke="#5D8A3C" stroke-width="2.5" stroke-linecap="round"/>
  <path d="M50 68 C43 63 35 58 28 54" stroke="#5D8A3C" stroke-width="2" fill="none" stroke-linecap="round"/>
  <path d="M50 58 C57 53 65 48 72 44" stroke="#5D8A3C" stroke-width="2" fill="none" stroke-linecap="round"/>
  <g fill="#FAFAFA">
    <path d="M50 34 C50 28 48 20 48 14 C50 18 52 26 50 34 Z"/>
    <path d="M50 34 C50 28 52 20 52 14 C50 18 48 26 50 34 Z"/>
    <path d="M50 34 C44 30 36 26 30 26 C34 30 44 34 50 34 Z"/>
    <path d="M50 34 C56 30 64 26 70 26 C66 30 56 34 50 34 Z"/>
    <path d="M50 34 C44 36 36 38 30 36 C34 34 44 32 50 34 Z"/>
    <path d="M50 34 C56 36 64 38 70 36 C66 34 56 32 50 34 Z"/>
    <path d="M50 34 C46 38 42 46 42 50 C46 44 50 36 50 34 Z"/>
    <path d="M50 34 C54 38 58 46 58 50 C54 44 50 36 50 34 Z"/>
  </g>
  <circle cx="50" cy="34" r="7" fill="#FDD835"/>
  <circle cx="50" cy="34" r="5" fill="#F9A825"/>
  <g fill="#5D8A3C">
    <path d="M36 56 C32 50 30 44 32 38" stroke="#5D8A3C" stroke-width="1.5" fill="none"/>
    <path d="M64 50 C68 44 70 38 68 32" stroke="#5D8A3C" stroke-width="1.5" fill="none"/>
  </g>
</svg>