<svg viewBox="0 0 100 100" xmlns="http://www.w3.org/2000/svg">
  <ellipse cx="50" cy="86" rx="20" ry="10" fill="#A5D6A7" opacity="0.4"/>
  <ellipse cx="50" cy="82" rx="16" ry="8" fill="#66BB6A"/>
  <ellipse cx="50" cy="78" rx="12" ry="7" fill="#81C784"/>
  <path d="M50 78 L50 30" stroke="#388E3C" stroke-width="3" fill="none" stroke-linecap="round"/>
  <path d="M50 60 C44 52 36 44 28 40" stroke="#43A047" stroke-width="2" fill="none" stroke-linecap="round"/>
  <path d="M50 50 C56 42 64 36 72 32" stroke="#43A047" stroke-width="2" fill="none" stroke-linecap="round"/>
  <path d="M50 40 C44 32 38 26 32 22" stroke="#43A047" stroke-width="2" fill="none" stroke-linecap="round"/>
  <g fill="#AED581" opacity="0.9">
    <circle cx="28" cy="40" r="3"/><circle cx="24" cy="36" r="2.5"/><circle cx="20" cy="32" r="2"/>
    <circle cx="72" cy="32" r="3"/><circle cx="76" cy="28" r="2.5"/><circle cx="78" cy="24" r="2"/>
    <circle cx="32" cy="22" r="3"/><circle cx="28" cy="18" r="2.5"/><circle cx="26" cy="14" r="2"/>
    <circle cx="50" cy="30" r="3"/><circle cx="48" cy="24" r="2.5"/><circle cx="50" cy="18" r="2"/>
  </g>
  <circle cx="50" cy="10" r="5" fill="#FDD835"/>
</svg>