<svg viewBox="0 0 100 100" xmlns="http://www.w3.org/2000/svg">
  <ellipse cx="50" cy="92" rx="18" ry="5" fill="#8D6E63" opacity="0.4"/>
  <rect x="46" y="60" width="8" height="34" rx="3" fill="#795548"/>
  <rect x="46" y="60" width="4" height="34" rx="2" fill="#A1887F" opacity="0.5"/>
  <path d="M50 62 C42 58 28 52 22 40 C16 28 24 14 34 14 C40 14 46 18 50 24 C54 18 60 14 66 14 C76 14 84 28 78 40 C72 52 58 58 50 62 Z" fill="#33691E"/>
  <path d="M50 62 C44 56 34 48 30 38 C26 28 30 18 36 16 C40 15 44 18 50 24 C44 22 38 26 36 34 C34 42 38 52 50 62 Z" fill="#43A047"/>
  <circle cx="34" cy="44" r="11" fill="#AED581"/>
  <circle cx="34" cy="44" r="9" fill="#C5E1A5"/>
  <circle cx="34" cy="44" r="7" fill="#DCEDC8"/>
  <path d="M34 34 C34 32 35 30 34 28 C33 30 32 32 34 34 Z" fill="#33691E"/>
  <g fill="#E91E63" opacity="0.6">
    <circle cx="34" cy="44" r="3"/>
  </g>
  <ellipse cx="30" cy="41" rx="3.5" ry="4.5" fill="white" opacity="0.25" transform="rotate(-15 30 41)"/>
  <circle cx="64" cy="36" r="10" fill="#AED581"/>
  <circle cx="64" cy="36" r="8" fill="#C5E1A5"/>
  <circle cx="64" cy="36" r="6" fill="#DCEDC8"/>
  <path d="M64 26 C64 24 65 22 64 20 C63 22 62 24 64 26 Z" fill="#33691E"/>
  <g fill="#E91E63" opacity="0.6">
    <circle cx="64" cy="36" r="2.5"/>
  </g>
  <ellipse cx="60" cy="33" rx="3" ry="4" fill="white" opacity="0.25" transform="rotate(-15 60 33)"/>
</svg>