<svg viewBox="0 0 100 100" xmlns="http://www.w3.org/2000/svg">
  <path d="M50 96 C50 84 52 72 54 62 C56 52 58 44 56 36 C54 28 50 22 50 16" stroke="#795548" stroke-width="4" fill="none" stroke-linecap="round"/>
  <path d="M50 16 C40 10 28 8 20 14 C30 12 42 14 50 20 Z" fill="#558B2F"/>
  <path d="M50 16 C60 10 72 8 80 14 C70 12 58 14 50 20 Z" fill="#43A047"/>
  <path d="M54 62 C46 58 36 56 28 58" stroke="#795548" stroke-width="2.5" fill="none" stroke-linecap="round"/>
  <path d="M56 48 C64 44 74 44 80 48" stroke="#795548" stroke-width="2.5" fill="none" stroke-linecap="round"/>
  <path d="M28 58 C22 52 18 44 20 36 C26 40 28 50 28 58 Z" fill="#43A047"/>
  <g fill="#4A148C">
    <circle cx="22" cy="72" r="6.5"/><circle cx="30" cy="66" r="6.5"/><circle cx="38" cy="72" r="6.5"/>
    <circle cx="26" cy="80" r="6.5"/><circle cx="34" cy="80" r="6.5"/><circle cx="30" cy="88" r="6.5"/>
  </g>
  <g fill="#6A1B9A">
    <circle cx="22" cy="70" r="5"/><circle cx="30" cy="64" r="5"/><circle cx="38" cy="70" r="5"/>
    <circle cx="26" cy="78" r="5"/><circle cx="34" cy="78" r="5"/><circle cx="30" cy="86" r="5"/>
  </g>
  <g fill="#CE93D8" opacity="0.4">
    <circle cx="20" cy="69" r="2.5"/><circle cx="28" cy="63" r="2.5"/><circle cx="36" cy="69" r="2.5"/>
    <circle cx="24" cy="77" r="2.5"/><circle cx="32" cy="77" r="2.5"/><circle cx="28" cy="85" r="2.5"/>
  </g>
  <g fill="#4A148C">
    <circle cx="74" cy="60" r="6"/><circle cx="82" cy="54" r="6"/><circle cx="78" cy="68" r="6"/>
    <circle cx="70" cy="66" r="6"/><circle cx="76" cy="76" r="6"/>
  </g>
  <g fill="#6A1B9A">
    <circle cx="74" cy="58" r="4.5"/><circle cx="82" cy="52" r="4.5"/><circle cx="78" cy="66" r="4.5"/>
    <circle cx="70" cy="64" r="4.5"/><circle cx="76" cy="74" r="4.5"/>
  </g>
  <path d="M28 58 C24 52 20 44 20 36" stroke="#558B2F" stroke-width="2" fill="none" opacity="0.6"/>
  <path d="M80 48 C82 42 82 36 80 30" stroke="#558B2F" stroke-width="2" fill="none" opacity="0.6"/>
  <ellipse cx="40" cy="20" rx="8" ry="5" fill="#43A047" opacity="0.7"/>
  <ellipse cx="60" cy="20" rx="8" ry="5" fill="#558B2F" opacity="0.7"/>
</svg>