<svg viewBox="0 0 100 100" xmlns="http://www.w3.org/2000/svg">
  <ellipse cx="50" cy="93" rx="22" ry="5" fill="#8D6E63" opacity="0.4"/>
  <path d="M50 92 C48 80 44 68 40 58 C36 46 30 36 28 24" stroke="#5D4037" stroke-width="5" fill="none" stroke-linecap="round"/>
  <path d="M50 92 C52 80 56 68 60 58 C64 46 70 36 72 24" stroke="#6D4C41" stroke-width="4.5" fill="none" stroke-linecap="round"/>
  <path d="M50 92 L50 30" stroke="#795548" stroke-width="4" fill="none" stroke-linecap="round"/>
  <path d="M28 24 C28 24 18 20 14 12 C20 14 28 18 28 24 Z" fill="#33691E"/>
  <path d="M72 24 C72 24 82 20 86 12 C80 14 72 18 72 24 Z" fill="#33691E"/>
  <path d="M50 30 C50 30 50 18 50 10 C52 18 52 26 50 30 Z" fill="#388E3C"/>
  <path d="M40 58 C34 52 28 44 28 36 C32 40 38 50 40 58 Z" fill="#43A047"/>
  <path d="M60 58 C66 52 72 44 72 36 C68 40 62 50 60 58 Z" fill="#43A047"/>
  <g fill="#9CCC65">
    <circle cx="32" cy="46" r="7"/><circle cx="44" cy="54" r="7"/>
    <circle cx="56" cy="54" r="7"/><circle cx="68" cy="46" r="7"/>
    <circle cx="38" cy="38" r="6.5"/><circle cx="62" cy="38" r="6.5"/>
    <circle cx="50" cy="50" r="7"/>
  </g>
  <g fill="#AED581">
    <circle cx="32" cy="44" r="5"/><circle cx="44" cy="52" r="5"/>
    <circle cx="56" cy="52" r="5"/><circle cx="68" cy="44" r="5"/>
    <circle cx="50" cy="48" r="5"/>
  </g>
  <g stroke="#558B2F" stroke-width="0.8" fill="none" opacity="0.5">
    <line x1="30" y1="42" x2="34" y2="50"/><line x1="42" y1="50" x2="46" y2="58"/>
    <line x1="54" y1="50" x2="58" y2="58"/><line x1="66" y1="42" x2="70" y2="50"/>
  </g>
</svg>