<svg viewBox="0 0 100 100" xmlns="http://www.w3.org/2000/svg">
  <ellipse cx="50" cy="88" rx="10" ry="6" fill="#E8F5E9" opacity="0.8"/>
  <path d="M44 88 C44 78 44 68 44 58 C44 48 44 38 44 28 C44 18 46 12 48 6" stroke="#558B2F" stroke-width="4" fill="none" stroke-linecap="round"/>
  <path d="M50 88 C50 76 50 64 50 52 C50 40 50 30 52 18 C53 12 54 8 56 4" stroke="#43A047" stroke-width="4" fill="none" stroke-linecap="round"/>
  <path d="M56 88 C56 80 56 70 56 60 C56 50 58 40 60 30 C61 22 62 14 62 8" stroke="#33691E" stroke-width="4" fill="none" stroke-linecap="round"/>
  <ellipse cx="44" cy="88" rx="5" ry="7" fill="white" opacity="0.9"/>
  <ellipse cx="50" cy="88" rx="5" ry="7" fill="#E8F5E9"/>
  <ellipse cx="56" cy="88" rx="5" ry="7" fill="white" opacity="0.9"/>
  <g fill="#C8E6C9" opacity="0.6">
    <ellipse cx="44" cy="88" rx="3" ry="5"/>
    <ellipse cx="50" cy="88" rx="3" ry="5"/>
    <ellipse cx="56" cy="88" rx="3" ry="5"/>
  </g>
  <path d="M48 6 C46 2 44 0 44 0 C46 2 50 4 48 6 Z" fill="#66BB6A"/>
  <path d="M56 4 C54 0 52 -2 52 -2 C54 0 58 2 56 4 Z" fill="#66BB6A"/>
  <path d="M62 8 C60 4 58 2 58 2 C60 4 64 6 62 8 Z" fill="#66BB6A"/>
</svg>