<svg viewBox="0 0 100 100" xmlns="http://www.w3.org/2000/svg">
  <path d="M50 92 C50 80 46 68 40 58" stroke="#7B1FA2" stroke-width="2" fill="none" stroke-linecap="round"/>
  <path d="M50 92 C50 80 54 68 60 58" stroke="#8E24AA" stroke-width="2" fill="none" stroke-linecap="round"/>
  <path d="M10 34 C14 26 22 20 30 20 C34 18 50 18 66 20 C74 20 82 26 86 34 C84 44 78 50 68 50 L32 50 C22 50 14 44 10 34 Z" fill="#6A1B9A"/>
  <path d="M12 34 C16 28 24 22 32 22 C36 20 50 20 64 22 C72 22 80 28 84 34 C82 44 76 48 66 48 L34 48 C24 48 16 44 12 34 Z" fill="#9C27B0"/>
  <g fill="#7B1FA2" opacity="0.8">
    <ellipse cx="32" cy="36" rx="6" ry="8"/>
    <ellipse cx="50" cy="34" rx="6" ry="8"/>
    <ellipse cx="68" cy="36" rx="6" ry="8"/>
  </g>
  <g fill="#CE93D8" opacity="0.6">
    <ellipse cx="32" cy="34" rx="4" ry="5"/>
    <ellipse cx="50" cy="32" rx="4" ry="5"/>
    <ellipse cx="68" cy="34" rx="4" ry="5"/>
  </g>
</svg>