<svg viewBox="0 0 100 100" xmlns="http://www.w3.org/2000/svg">
  <path d="M37 95 L63 95 L60 79 L40 79 Z" fill="#B97040"/>
  <rect x="34" y="74" width="32" height="7" rx="3.5" fill="#C8814E"/>
  <ellipse cx="50" cy="79" rx="13" ry="3.5" fill="#4E342E"/>
  <path d="M50 79 C50 68 49 56 48 44 C47 32 47 22 48 12" stroke="#5A7A3A" stroke-width="2.5" fill="none" stroke-linecap="round"/>
  <path d="M50 68 C62 64 70 58 74 50" stroke="#5A7A3A" stroke-width="2" fill="none" stroke-linecap="round"/>
  <path d="M49 52 C37 48 30 42 26 34" stroke="#5A7A3A" stroke-width="2" fill="none" stroke-linecap="round"/>
  <g fill="#5A7A3A">
    <ellipse cx="50" cy="58" rx="5" ry="3.5" transform="rotate(-5 50 58)"/>
    <ellipse cx="56" cy="52" rx="5" ry="3.5" transform="rotate(-10 56 52)"/>
    <ellipse cx="62" cy="46" rx="4.5" ry="3" transform="rotate(-15 62 46)"/>
    <ellipse cx="68" cy="40" rx="4" ry="3" transform="rotate(-15 68 40)"/>
    <ellipse cx="43" cy="50" rx="5" ry="3.5" transform="rotate(10 43 50)"/>
    <ellipse cx="37" cy="44" rx="4.5" ry="3" transform="rotate(15 37 44)"/>
    <ellipse cx="30" cy="38" rx="4" ry="3" transform="rotate(15 30 38)"/>
  </g>
  <g fill="#3F51B5">
    <circle cx="48" cy="22" r="3"/><circle cx="48" cy="16" r="3"/><circle cx="48" cy="10" r="2.5"/>
    <circle cx="44" cy="19" r="2.5"/><circle cx="52" cy="19" r="2.5"/>
    <circle cx="44" cy="13" r="2"/><circle cx="52" cy="13" r="2"/>
  </g>
  <g fill="#7986CB" opacity="0.6">
    <circle cx="48" cy="21" r="1.5"/><circle cx="48" cy="15" r="1.5"/>
  </g>
</svg>