<svg viewBox="0 0 100 100" xmlns="http://www.w3.org/2000/svg">
  <path d="M50 8 C52 4 54 2 54 2 C52 4 50 6 50 8 Z" fill="#33691E"/>
  <path d="M50 8 C44 4 40 4 40 6 C44 6 48 6 50 8 Z" fill="#43A047"/>
  <path d="M50 8 C44 12 36 20 32 32 C28 44 30 56 36 64 C42 72 50 74 56 68 C64 60 68 46 64 34 C60 22 54 12 50 8 Z" fill="#FF6F00"/>
  <path d="M50 8 C48 16 46 28 48 40 C50 52 54 62 54 68 C56 64 60 56 62 46 C66 34 62 20 56 12 C54 10 52 8 50 8 Z" fill="#FF8F00"/>
  <path d="M36 64 C34 70 36 78 40 82 C38 76 36 70 38 64 Z" fill="#FF6F00"/>
  <g stroke="#E65100" stroke-width="1.5" fill="none" opacity="0.4">
    <path d="M36 36 C32 44 34 54 38 60"/><path d="M62 32 C66 40 66 52 62 60"/>
    <path d="M50 8 C50 30 50 52 46 68"/>
  </g>
  <ellipse cx="40" cy="30" rx="7" ry="4" fill="white" opacity="0.15" transform="rotate(-20 40 30)"/>
</svg>