<svg viewBox="0 0 100 100" xmlns="http://www.w3.org/2000/svg">
  <path d="M50 92 C50 80 48 68 44 58 C40 48 34 40 26 36" stroke="#5D4037" stroke-width="2" fill="none" stroke-linecap="round"/>
  <path d="M50 92 C50 80 52 68 56 58 C60 48 66 40 74 36" stroke="#5D4037" stroke-width="2" fill="none" stroke-linecap="round"/>
  <path d="M26 36 C14 30 10 20 16 14 C20 10 28 12 36 20 C44 28 48 42 50 56 C52 42 56 28 64 20 C72 12 80 10 84 14 C90 20 86 30 74 36 Z" fill="#80DEEA"/>
  <path d="M28 34 C18 30 14 22 20 16 C24 12 32 14 40 22 C46 30 50 44 50 56 C50 44 54 30 60 22 C68 14 76 12 80 16 C86 22 82 30 72 34 Z" fill="#B2EBF2"/>
  <g fill="white" opacity="0.6">
    <ellipse cx="32" cy="28" rx="4" ry="2.5" transform="rotate(-20 32 28)"/>
    <ellipse cx="44" cy="40" rx="3.5" ry="2" transform="rotate(-10 44 40)"/>
    <ellipse cx="68" cy="28" rx="4" ry="2.5" transform="rotate(20 68 28)"/>
    <ellipse cx="56" cy="40" rx="3.5" ry="2" transform="rotate(10 56 40)"/>
    <ellipse cx="50" cy="24" rx="4" ry="2.5"/>
  </g>
  <g fill="#E0F7FA" opacity="0.8">
    <circle cx="28" cy="30" r="2"/><circle cx="40" cy="24" r="1.5"/>
    <circle cx="60" cy="24" r="1.5"/><circle cx="72" cy="30" r="2"/>
    <circle cx="50" cy="18" r="2"/>
  </g>
</svg>