<svg viewBox="0 0 100 100" xmlns="http://www.w3.org/2000/svg">
  <path d="M50 14 C42 12 32 14 26 22 C20 30 22 42 30 50 C38 58 50 60 62 56 C74 52 82 40 80 28 C78 16 66 10 56 12" stroke="#558B2F" stroke-width="2.5" fill="none" stroke-linecap="round"/>
  <ellipse cx="50" cy="38" rx="26" ry="22" fill="#E53935"/>
  <ellipse cx="50" cy="36" rx="22" ry="18" fill="#EF5350"/>
  <ellipse cx="50" cy="35" rx="18" ry="14" fill="#EF9A9A"/>
  <g stroke="#C62828" stroke-width="1.5" fill="none" opacity="0.5">
    <path d="M50 18 L50 54"/><path d="M30 30 L70 46"/><path d="M30 46 L70 30"/>
  </g>
  <path d="M50 56 C50 60 50 66 50 72 C50 80 50 86 50 92" stroke="#558B2F" stroke-width="3" fill="none" stroke-linecap="round"/>
  <g fill="#558B2F" opacity="0.7">
    <path d="M50 70 C44 66 36 64 28 66 C34 62 44 62 50 66 Z"/>
    <path d="M50 82 C56 78 64 78 70 82 C64 78 56 78 50 78 Z"/>
  </g>
  <ellipse cx="40" cy="28" rx="6" ry="3.5" fill="white" opacity="0.25" transform="rotate(-20 40 28)"/>
</svg>