<svg viewBox="0 0 100 100" xmlns="http://www.w3.org/2000/svg">
  <circle cx="50" cy="58" r="32" fill="#D7CCC8"/>
  <circle cx="50" cy="56" r="28" fill="#EFEBE9"/>
  <circle cx="50" cy="55" r="24" fill="#FFF8F0"/>
  <g stroke="#D7CCC8" stroke-width="1.2" fill="none" opacity="0.6">
    <path d="M30 46 C28 52 30 60 34 66"/>
    <path d="M70 46 C72 52 70 60 66 66"/>
    <path d="M38 34 C34 38 34 46 36 52"/>
    <path d="M62 34 C66 38 66 46 64 52"/>
  </g>
  <ellipse cx="42" cy="44" rx="7" ry="4" fill="white" opacity="0.4" transform="rotate(-20 42 44)"/>
  <g fill="#558B2F">
    <path d="M42 28 C38 22 36 14 38 8 C40 12 42 20 44 28 Z"/>
    <path d="M50 26 C50 20 50 12 52 6 C54 10 54 18 52 26 Z"/>
    <path d="M58 28 C62 22 64 14 62 8 C60 12 58 20 56 28 Z"/>
  </g>
  <path d="M40 30 C44 28 50 28 56 28 C60 30 62 34 58 34 C54 34 50 32 46 32 C42 34 38 34 40 30 Z" fill="#8BC34A" opacity="0.8"/>
</svg>