<svg viewBox="0 0 100 100" xmlns="http://www.w3.org/2000/svg">
  <ellipse cx="50" cy="92" rx="18" ry="5" fill="#8D6E63" opacity="0.4"/>
  <rect x="46" y="58" width="8" height="36" rx="3" fill="#795548"/>
  <rect x="46" y="58" width="4" height="36" rx="2" fill="#A1887F" opacity="0.5"/>
  <path d="M50 60 C42 56 28 50 22 38 C16 26 24 12 34 12 C40 12 46 16 50 22 C54 16 60 12 66 12 C76 12 84 26 78 38 C72 50 58 56 50 60 Z" fill="#2E7D32"/>
  <path d="M50 60 C44 54 34 46 30 36 C26 26 30 16 36 14 C40 13 44 16 50 22 C44 20 38 24 36 32 C34 40 38 50 50 60 Z" fill="#388E3C"/>
  <ellipse cx="38" cy="52" rx="14" ry="18" fill="#F57F17"/>
  <ellipse cx="38" cy="52" rx="12" ry="16" fill="#F9A825"/>
  <g fill="#F57F17">
    <circle cx="32" cy="42" r="3.5"/><circle cx="38" cy="39" r="3.5"/><circle cx="44" cy="42" r="3.5"/>
    <circle cx="30" cy="48" r="3.5"/><circle cx="36" cy="46" r="3.5"/><circle cx="42" cy="46" r="3.5"/><circle cx="46" cy="48" r="3.5"/>
    <circle cx="30" cy="54" r="3.5"/><circle cx="36" cy="52" r="3.5"/><circle cx="42" cy="52" r="3.5"/><circle cx="46" cy="54" r="3.5"/>
    <circle cx="32" cy="60" r="3.5"/><circle cx="38" cy="58" r="3.5"/><circle cx="44" cy="60" r="3.5"/>
    <circle cx="34" cy="66" r="3.5"/><circle cx="40" cy="64" r="3.5"/>
  </g>
  <g fill="#FDD835" opacity="0.4">
    <circle cx="32" cy="41" r="2"/><circle cx="38" cy="38" r="2"/><circle cx="44" cy="41" r="2"/>
    <circle cx="36" cy="51" r="2"/><circle cx="42" cy="51" r="2"/>
  </g>
  <path d="M38 36 L38 32" stroke="#33691E" stroke-width="2" stroke-linecap="round"/>
</svg>