<svg viewBox="0 0 100 100" xmlns="http://www.w3.org/2000/svg">
  <path d="M50 14 L50 6" stroke="#558B2F" stroke-width="3" fill="none" stroke-linecap="round"/>
  <path d="M50 6 C42 2 32 6 28 14" stroke="#43A047" stroke-width="2" fill="none" stroke-linecap="round"/>
  <path d="M50 6 C58 2 68 6 72 14" stroke="#388E3C" stroke-width="2" fill="none" stroke-linecap="round"/>
  <ellipse cx="50" cy="56" rx="32" ry="40" fill="#6D4C2A"/>
  <ellipse cx="50" cy="54" rx="28" ry="36" fill="#7D5A34"/>
  <g stroke="#5D4037" stroke-width="1.5" fill="none" opacity="0.4">
    <path d="M30 36 C34 32 50 30 70 36"/>
    <path d="M24 50 C28 44 50 42 76 50"/>
    <path d="M24 64 C28 58 50 56 76 64"/>
    <path d="M28 78 C32 72 50 70 72 78"/>
  </g>
  <ellipse cx="42" cy="36" rx="8" ry="4" fill="white" opacity="0.1" transform="rotate(-15 42 36)"/>
</svg>