<svg viewBox="0 0 100 100" xmlns="http://www.w3.org/2000/svg">
  <path d="M50 96 C50 84 51 72 52 62 C53 52 55 44 54 36 C53 28 50 22 50 16" stroke="#5D4037" stroke-width="4" fill="none" stroke-linecap="round"/>
  <path d="M52 62 C44 58 34 56 26 58" stroke="#5D4037" stroke-width="2.5" fill="none" stroke-linecap="round"/>
  <path d="M54 48 C62 44 72 44 78 48" stroke="#5D4037" stroke-width="2.5" fill="none" stroke-linecap="round"/>
  <path d="M50 16 C40 10 28 8 20 14 C30 12 42 14 50 20 Z" fill="#388E3C"/>
  <path d="M50 16 C60 10 72 8 80 14 C70 12 58 14 50 20 Z" fill="#43A047"/>
  <path d="M26 58 C20 52 16 44 18 36 C24 40 26 50 26 58 Z" fill="#558B2F"/>
  <path d="M78 48 C84 42 84 34 80 28 C76 34 76 42 78 48 Z" fill="#558B2F"/>
  <ellipse cx="28" cy="72" rx="13" ry="11" fill="#795548"/>
  <ellipse cx="28" cy="72" rx="11" ry="9" fill="#8D6E63"/>
  <ellipse cx="28" cy="72" rx="8" ry="7" fill="#A1887F"/>
  <g fill="#33691E" opacity="0.8">
    <ellipse cx="28" cy="72" rx="6" ry="1.5"/>
    <ellipse cx="28" cy="72" rx="1.5" ry="6"/>
    <ellipse cx="28" cy="72" rx="5" ry="1.2" transform="rotate(45 28 72)"/>
    <ellipse cx="28" cy="72" rx="5" ry="1.2" transform="rotate(-45 28 72)"/>
  </g>
  <circle cx="28" cy="72" r="3" fill="#C8E6C9"/>
  <ellipse cx="72" cy="62" rx="12" ry="10" fill="#795548"/>
  <ellipse cx="72" cy="62" rx="10" ry="8" fill="#8D6E63"/>
  <ellipse cx="72" cy="62" rx="7" ry="6" fill="#A1887F"/>
  <g fill="#33691E" opacity="0.8">
    <ellipse cx="72" cy="62" rx="5.5" ry="1.3"/>
    <ellipse cx="72" cy="62" rx="1.3" ry="5.5"/>
    <ellipse cx="72" cy="62" rx="4.5" ry="1.1" transform="rotate(45 72 62)"/>
    <ellipse cx="72" cy="62" rx="4.5" ry="1.1" transform="rotate(-45 72 62)"/>
  </g>
  <circle cx="72" cy="62" r="2.5" fill="#C8E6C9"/>
</svg>