<svg viewBox="0 0 100 100" xmlns="http://www.w3.org/2000/svg">
  <ellipse cx="50" cy="92" rx="18" ry="5" fill="#8D6E63" opacity="0.4"/>
  <rect x="46" y="60" width="8" height="34" rx="3" fill="#795548"/>
  <rect x="46" y="60" width="4" height="34" rx="2" fill="#A1887F" opacity="0.5"/>
  <path d="M50 62 C42 58 28 52 22 40 C16 28 24 14 34 14 C40 14 46 18 50 24 C54 18 60 14 66 14 C76 14 84 28 78 40 C72 52 58 58 50 62 Z" fill="#33691E"/>
  <path d="M50 62 C44 56 34 48 30 38 C26 28 30 18 36 16 C40 15 44 18 50 24 C44 22 38 26 36 34 C34 42 38 52 50 62 Z" fill="#388E3C"/>
  <ellipse cx="38" cy="40" rx="9" ry="6" fill="#FDD835"/>
  <ellipse cx="38" cy="40" rx="7" ry="4.5" fill="#FFEE58"/>
  <path d="M29 40 C29 40 27 37 29 35 Z" fill="#33691E"/>
  <path d="M47 40 C47 40 49 37 47 35 Z" fill="#33691E"/>
  <ellipse cx="62" cy="36" rx="9" ry="6" fill="#FDD835"/>
  <ellipse cx="62" cy="36" rx="7" ry="4.5" fill="#FFEE58"/>
  <path d="M53 36 C53 36 51 33 53 31 Z" fill="#33691E"/>
  <path d="M71 36 C71 36 73 33 71 31 Z" fill="#33691E"/>
  <ellipse cx="50" cy="26" rx="7" ry="5" fill="#F9A825"/>
  <ellipse cx="36" cy="38" rx="3.5" ry="2" fill="white" opacity="0.2" transform="rotate(-10 36 38)"/>
  <ellipse cx="60" cy="34" rx="3.5" ry="2" fill="white" opacity="0.2" transform="rotate(-10 60 34)"/>
</svg>