<svg viewBox="0 0 100 100" xmlns="http://www.w3.org/2000/svg">
  <ellipse cx="50" cy="92" rx="18" ry="5" fill="#8D6E63" opacity="0.4"/>
  <rect x="46" y="60" width="8" height="34" rx="3" fill="#795548"/>
  <rect x="46" y="60" width="4" height="34" rx="2" fill="#A1887F" opacity="0.5"/>
  <path d="M50 62 C42 58 28 52 22 40 C16 28 24 14 34 14 C40 14 46 18 50 24 C54 18 60 14 66 14 C76 14 84 28 78 40 C72 52 58 58 50 62 Z" fill="#1B5E20"/>
  <path d="M50 62 C44 56 34 48 30 38 C26 28 30 18 36 16 C40 15 44 18 50 24 C44 22 38 26 36 34 C34 42 38 52 50 62 Z" fill="#2E7D32"/>
  <ellipse cx="36" cy="46" rx="10" ry="8" fill="#FF8F00"/>
  <ellipse cx="36" cy="44" rx="8" ry="6.5" fill="#FFA726"/>
  <path d="M32 40 C36 38 40 40 36 44" stroke="#E65100" stroke-width="1" fill="none"/>
  <path d="M36 38 L36 34" stroke="#33691E" stroke-width="1.5" stroke-linecap="round"/>
  <ellipse cx="62" cy="38" rx="9" ry="7.5" fill="#FF8F00"/>
  <ellipse cx="62" cy="36" rx="7" ry="6" fill="#FFA726"/>
  <path d="M58 32 C62 30 66 32 62 36" stroke="#E65100" stroke-width="1" fill="none"/>
  <path d="M62 30 L62 26" stroke="#33691E" stroke-width="1.5" stroke-linecap="round"/>
  <ellipse cx="50" cy="30" rx="8" ry="6.5" fill="#FF8F00"/>
  <ellipse cx="50" cy="28" rx="6" ry="5" fill="#FFA726"/>
  <path d="M50 22 L50 18" stroke="#33691E" stroke-width="1.5" stroke-linecap="round"/>
</svg>