<svg viewBox="0 0 100 100" xmlns="http://www.w3.org/2000/svg">
  <path d="M44 96 C42 80 42 64 44 48 L56 48 C58 64 58 80 56 96 Z" fill="#F5F5F5"/>
  <path d="M44 48 C40 36 38 24 40 12" stroke="#43A047" stroke-width="12" fill="none" stroke-linecap="round"/>
  <path d="M44 48 C40 36 38 24 40 12" stroke="#66BB6A" stroke-width="8" fill="none" stroke-linecap="round"/>
  <path d="M56 48 C60 36 62 24 60 12" stroke="#388E3C" stroke-width="10" fill="none" stroke-linecap="round"/>
  <path d="M56 48 C60 36 62 24 60 12" stroke="#8BC34A" stroke-width="6" fill="none" stroke-linecap="round"/>
  <path d="M50 48 C50 36 50 24 50 10" stroke="#2E7D32" stroke-width="8" fill="none" stroke-linecap="round"/>
  <path d="M50 48 C50 36 50 24 50 10" stroke="#AED581" stroke-width="4" fill="none" stroke-linecap="round"/>
</svg>