<svg viewBox="0 0 100 100" xmlns="http://www.w3.org/2000/svg">
  <path d="M14 50 C14 42 18 36 26 34 L74 34 C82 36 86 42 86 50 C86 58 82 64 74 66 L26 66 C18 64 14 58 14 50 Z" fill="#F5ECD5"/>
  <path d="M16 50 C16 42 20 36 28 34 L72 34 C80 36 84 42 84 50 C84 58 80 64 72 66 L28 66 C20 64 16 58 16 50 Z" fill="#FFF8E7"/>
  <circle cx="30" cy="50" r="6" fill="#EFEBE9"/>
  <circle cx="30" cy="50" r="4" fill="#F5ECD5" opacity="0.3"/>
  <circle cx="44" cy="50" r="6" fill="#EFEBE9"/>
  <circle cx="44" cy="50" r="4" fill="#F5ECD5" opacity="0.3"/>
  <circle cx="56" cy="50" r="6" fill="#EFEBE9"/>
  <circle cx="56" cy="50" r="4" fill="#F5ECD5" opacity="0.3"/>
  <circle cx="70" cy="50" r="6" fill="#EFEBE9"/>
  <circle cx="70" cy="50" r="4" fill="#F5ECD5" opacity="0.3"/>
  <circle cx="22" cy="46" r="3.5" fill="#EFEBE9"/>
  <circle cx="78" cy="46" r="3.5" fill="#EFEBE9"/>
  <circle cx="22" cy="54" r="3.5" fill="#EFEBE9"/>
  <circle cx="78" cy="54" r="3.5" fill="#EFEBE9"/>
  <g stroke="#BCAAA4" stroke-width="1" fill="none" opacity="0.5">
    <line x1="14" y1="50" x2="86" y2="50"/>
    <line x1="30" y1="34" x2="30" y2="66"/><line x1="44" y1="34" x2="44" y2="66"/>
    <line x1="56" y1="34" x2="56" y2="66"/><line x1="70" y1="34" x2="70" y2="66"/>
  </g>
  <path d="M86 50 C90 46 92 40 90 34" stroke="#558B2F" stroke-width="2.5" fill="none" stroke-linecap="round"/>
  <path d="M14 50 C10 46 8 40 10 34" stroke="#558B2F" stroke-width="2.5" fill="none" stroke-linecap="round"/>
</svg>