<svg viewBox="0 0 100 100" xmlns="http://www.w3.org/2000/svg">
  <path d="M50 92 C50 80 50 68 50 56 C50 44 50 32 50 20" stroke="#5D4037" stroke-width="2.5" fill="none" stroke-linecap="round"/>
  <path d="M50 80 C44 74 34 70 22 70 C28 66 40 66 50 74 Z" fill="#1B5E20"/>
  <path d="M50 68 C56 62 66 58 78 58 C72 54 60 54 50 62 Z" fill="#2E7D32"/>
  <path d="M50 56 C44 50 34 46 22 46 C28 42 40 42 50 50 Z" fill="#1B5E20"/>
  <path d="M50 44 C56 38 66 34 78 34 C72 30 60 30 50 38 Z" fill="#2E7D32"/>
  <path d="M50 32 C44 26 34 22 24 22 C30 18 42 18 50 26 Z" fill="#388E3C"/>
  <path d="M50 20 C54 14 62 10 72 10 C66 6 56 8 50 14 Z" fill="#43A047"/>
  <g stroke="#558B2F" stroke-width="1" fill="none" opacity="0.4">
    <path d="M50 74 C44 72 38 70 32 70"/><path d="M50 62 C56 60 62 58 68 58"/>
    <path d="M50 50 C44 48 38 46 32 46"/><path d="M50 38 C56 36 62 34 68 34"/>
  </g>
</svg>