<svg viewBox="0 0 100 100" xmlns="http://www.w3.org/2000/svg">
  <ellipse cx="50" cy="50" rx="36" ry="30" fill="#F3E5AB"/>
  <ellipse cx="50" cy="50" rx="32" ry="26" fill="#FFF8E1"/>
  <circle cx="50" cy="50" r="8" fill="#FFE082"/>
  <circle cx="50" cy="50" r="5" fill="#FFCA28"/>
  <circle cx="50" cy="50" r="3" fill="white" opacity="0.5"/>
  <g fill="#FFE082">
    <circle cx="50" cy="30" r="6"/>
    <circle cx="50" cy="70" r="6"/>
    <circle cx="30" cy="50" r="6"/>
    <circle cx="70" cy="50" r="6"/>
    <circle cx="36" cy="36" r="5"/>
    <circle cx="64" cy="36" r="5"/>
    <circle cx="36" cy="64" r="5"/>
    <circle cx="64" cy="64" r="5"/>
  </g>
  <g fill="#FFCA28" opacity="0.6">
    <circle cx="50" cy="30" r="3.5"/>
    <circle cx="50" cy="70" r="3.5"/>
    <circle cx="30" cy="50" r="3.5"/>
    <circle cx="70" cy="50" r="3.5"/>
    <circle cx="36" cy="36" r="3"/>
    <circle cx="64" cy="36" r="3"/>
    <circle cx="36" cy="64" r="3"/>
    <circle cx="64" cy="64" r="3"/>
  </g>
  <ellipse cx="50" cy="80" rx="36" ry="4" fill="#D7CCC8" opacity="0.4"/>
</svg>