<svg viewBox="0 0 100 100" xmlns="http://www.w3.org/2000/svg">
  <path d="M50 90 C50 78 50 66 50 54 C50 42 50 30 50 18" stroke="#5D4037" stroke-width="3" fill="none" stroke-linecap="round"/>
  <path d="M50 72 C42 66 32 62 22 62" stroke="#5D4037" stroke-width="2" fill="none" stroke-linecap="round"/>
  <path d="M50 58 C58 52 68 48 78 48" stroke="#5D4037" stroke-width="2" fill="none" stroke-linecap="round"/>
  <path d="M50 44 C42 38 32 36 22 38" stroke="#5D4037" stroke-width="2" fill="none" stroke-linecap="round"/>
  <path d="M50 30 C58 24 68 22 78 24" stroke="#5D4037" stroke-width="2" fill="none" stroke-linecap="round"/>
  <path d="M22 62 C18 56 14 48 16 40 C14 46 14 56 22 64 Z" fill="#558B2F"/>
  <path d="M78 48 C82 42 86 34 84 26 C82 32 82 42 78 50 Z" fill="#43A047"/>
  <path d="M22 38 C18 32 16 24 18 16 C16 22 16 32 22 40 Z" fill="#388E3C"/>
  <path d="M78 24 C82 18 86 10 84 4 C82 10 80 18 78 26 Z" fill="#558B2F"/>
  <path d="M50 18 C46 12 44 6 46 2 C48 6 50 12 50 18 Z" fill="#66BB6A"/>
  <g fill="#8BC34A" opacity="0.5">
    <path d="M18 58 C16 54 16 50 18 48 Z"/>
    <path d="M82 44 C84 40 84 36 82 34 Z"/>
  </g>
</svg>