<svg viewBox="0 0 100 100" xmlns="http://www.w3.org/2000/svg">
  <path d="M50 92 C50 80 50 68 50 56 C50 44 50 32 50 20" stroke="#5D4037" stroke-width="2.5" fill="none" stroke-linecap="round"/>
  <path d="M50 80 C44 76 38 72 32 70" stroke="#5D4037" stroke-width="2" fill="none" stroke-linecap="round"/>
  <path d="M50 68 C56 64 62 60 68 58" stroke="#5D4037" stroke-width="2" fill="none" stroke-linecap="round"/>
  <path d="M50 56 C44 52 38 50 32 50" stroke="#5D4037" stroke-width="2" fill="none" stroke-linecap="round"/>
  <path d="M50 44 C56 40 62 38 68 38" stroke="#5D4037" stroke-width="2" fill="none" stroke-linecap="round"/>
  <path d="M50 32 C44 28 38 28 34 30" stroke="#5D4037" stroke-width="2" fill="none" stroke-linecap="round"/>
  <g fill="#33691E">
    <ellipse cx="30" cy="70" rx="7" ry="5" transform="rotate(-10 30 70)"/>
    <ellipse cx="68" cy="58" rx="7" ry="5" transform="rotate(10 68 58)"/>
    <ellipse cx="30" cy="50" rx="7" ry="5" transform="rotate(-5 30 50)"/>
    <ellipse cx="68" cy="38" rx="7" ry="5" transform="rotate(5 68 38)"/>
    <ellipse cx="32" cy="30" rx="6" ry="4" transform="rotate(-5 32 30)"/>
    <ellipse cx="50" cy="18" rx="6" ry="4"/>
  </g>
  <g fill="#66BB6A" opacity="0.6">
    <ellipse cx="30" cy="69" rx="4" ry="3" transform="rotate(-10 30 69)"/>
    <ellipse cx="68" cy="57" rx="4" ry="3" transform="rotate(10 68 57)"/>
    <ellipse cx="30" cy="49" rx="4" ry="3" transform="rotate(-5 30 49)"/>
    <ellipse cx="68" cy="37" rx="4" ry="3" transform="rotate(5 68 37)"/>
    <ellipse cx="32" cy="29" rx="3.5" ry="2.5" transform="rotate(-5 32 29)"/>
    <ellipse cx="50" cy="17" rx="3.5" ry="2.5"/>
  </g>
</svg>