<svg viewBox="0 0 100 100" xmlns="http://www.w3.org/2000/svg">
  <path d="M37 95 L63 95 L60 79 L40 79 Z" fill="#B97040"/>
  <rect x="34" y="74" width="32" height="7" rx="3.5" fill="#C8814E"/>
  <ellipse cx="50" cy="79" rx="13" ry="3.5" fill="#4E342E"/>
  <path d="M50 79 C50 68 50 56 50 44" stroke="#6D8B4A" stroke-width="2.5" fill="none" stroke-linecap="round"/>
  <path d="M50 68 C43 64 35 60 28 56" stroke="#6D8B4A" stroke-width="2" fill="none" stroke-linecap="round"/>
  <path d="M50 58 C57 54 65 50 72 46" stroke="#6D8B4A" stroke-width="2" fill="none" stroke-linecap="round"/>
  <g fill="#7B9B52">
    <ellipse cx="50" cy="44" rx="9" ry="6"/>
    <ellipse cx="50" cy="32" rx="9" ry="6"/>
    <ellipse cx="50" cy="20" rx="7" ry="5"/>
    <ellipse cx="28" cy="54" rx="8" ry="5.5" transform="rotate(20 28 54)"/>
    <ellipse cx="20" cy="50" rx="7" ry="4.5" transform="rotate(20 20 50)"/>
    <ellipse cx="72" cy="44" rx="8" ry="5.5" transform="rotate(-20 72 44)"/>
    <ellipse cx="80" cy="40" rx="7" ry="4.5" transform="rotate(-20 80 40)"/>
  </g>
  <g fill="#9BB870" opacity="0.6">
    <ellipse cx="50" cy="42" rx="6" ry="3.5"/>
    <ellipse cx="50" cy="30" rx="6" ry="3.5"/>
    <ellipse cx="28" cy="52" rx="5" ry="3" transform="rotate(20 28 52)"/>
    <ellipse cx="72" cy="42" rx="5" ry="3" transform="rotate(-20 72 42)"/>
  </g>
  <g fill="#CE93D8" opacity="0.8">
    <circle cx="50" cy="14" r="3"/><circle cx="46" cy="11" r="2.5"/><circle cx="54" cy="11" r="2.5"/>
  </g>
</svg>