<svg viewBox="0 0 100 100" xmlns="http://www.w3.org/2000/svg">
  <ellipse cx="50" cy="92" rx="14" ry="4" fill="#8D6E63" opacity="0.4"/>
  <path d="M50 92 C50 78 50 64 50 52 C50 40 50 28 50 18" stroke="#A1887F" stroke-width="7" fill="none" stroke-linecap="round"/>
  <path d="M50 92 C50 78 50 64 50 52 C50 40 50 28 50 18" stroke="#BCAAA4" stroke-width="4" fill="none" stroke-linecap="round"/>
  <path d="M50 65 C44 60 36 56 28 56" stroke="#8D6E63" stroke-width="3" fill="none" stroke-linecap="round"/>
  <path d="M50 50 C56 46 64 44 72 44" stroke="#8D6E63" stroke-width="3" fill="none" stroke-linecap="round"/>
  <path d="M50 36 C44 32 36 30 28 30" stroke="#8D6E63" stroke-width="2.5" fill="none" stroke-linecap="round"/>
  <g fill="#558B2F">
    <circle cx="24" cy="56" r="5"/><circle cx="28" cy="52" r="4.5"/><circle cx="32" cy="58" r="4.5"/>
    <circle cx="36" cy="54" r="4.5"/><circle cx="26" cy="60" r="4"/>
    <circle cx="76" cy="44" r="5"/><circle cx="72" cy="40" r="4.5"/><circle cx="68" cy="46" r="4.5"/>
    <circle cx="64" cy="42" r="4.5"/><circle cx="74" cy="48" r="4"/>
    <circle cx="24" cy="30" r="4.5"/><circle cx="28" cy="26" r="4"/><circle cx="32" cy="32" r="4"/>
    <circle cx="36" cy="28" r="4"/>
  </g>
  <g fill="#8BC34A" opacity="0.6">
    <circle cx="24" cy="54" r="3"/><circle cx="28" cy="50" r="3"/>
    <circle cx="76" cy="42" r="3"/><circle cx="72" cy="38" r="3"/>
    <circle cx="24" cy="28" r="3"/><circle cx="28" cy="24" r="3"/>
  </g>
  <path d="M50 18 C46 12 40 8 36 10 C40 10 46 14 50 18 Z" fill="#43A047"/>
  <path d="M50 18 C54 12 60 8 64 10 C60 10 54 14 50 18 Z" fill="#558B2F"/>
</svg>