<svg viewBox="0 0 100 100" xmlns="http://www.w3.org/2000/svg">
  <ellipse cx="50" cy="92" rx="18" ry="5" fill="#8D6E63" opacity="0.4"/>
  <rect x="46" y="60" width="8" height="34" rx="3" fill="#795548"/>
  <rect x="46" y="60" width="4" height="34" rx="2" fill="#A1887F" opacity="0.5"/>
  <path d="M50 62 C42 58 28 52 22 40 C16 28 24 14 34 14 C40 14 46 18 50 24 C54 18 60 14 66 14 C76 14 84 28 78 40 C72 52 58 58 50 62 Z" fill="#1B5E20"/>
  <path d="M50 62 C44 56 34 48 30 38 C26 28 30 18 36 16 C40 15 44 18 50 24 C44 22 38 26 36 34 C34 42 38 52 50 62 Z" fill="#2E7D32"/>
  <g fill="#4A148C">
    <ellipse cx="32" cy="50" rx="8" ry="5"/>
    <circle cx="28" cy="48" r="4.5"/><circle cx="32" cy="44" r="4.5"/><circle cx="36" cy="48" r="4.5"/>
    <circle cx="30" cy="52" r="4"/><circle cx="34" cy="54" r="4"/>
  </g>
  <g fill="#6A1B9A" opacity="0.7">
    <circle cx="28" cy="46" r="3"/><circle cx="32" cy="42" r="3"/><circle cx="36" cy="46" r="3"/>
    <circle cx="30" cy="50" r="2.5"/>
  </g>
  <g fill="#880E4F">
    <circle cx="60" cy="38" r="4.5"/><circle cx="64" cy="34" r="4.5"/>
    <circle cx="68" cy="38" r="4.5"/><circle cx="62" cy="42" r="4"/>
    <circle cx="66" cy="42" r="4"/>
  </g>
  <g fill="#AD1457" opacity="0.7">
    <circle cx="60" cy="36" r="3"/><circle cx="64" cy="32" r="3"/><circle cx="68" cy="36" r="3"/>
  </g>
</svg>