<svg viewBox="0 0 100 100" xmlns="http://www.w3.org/2000/svg">
  <path d="M50 92 C50 78 50 64 50 50 C50 36 50 22 50 10" stroke="#5D4037" stroke-width="2.5" fill="none" stroke-linecap="round"/>
  <path d="M50 78 C38 68 22 62 8 62 C16 54 34 58 50 70 Z" fill="#558B2F"/>
  <path d="M50 78 C62 68 78 62 92 62 C84 54 66 58 50 70 Z" fill="#4CAF50"/>
  <path d="M50 60 C38 50 22 44 8 44 C16 36 34 40 50 52 Z" fill="#66BB6A"/>
  <path d="M50 60 C62 50 78 44 92 44 C84 36 66 40 50 52 Z" fill="#81C784"/>
  <path d="M50 42 C40 34 26 28 12 28 C20 20 38 24 50 36 Z" fill="#558B2F"/>
  <path d="M50 42 C60 34 74 28 88 28 C80 20 62 24 50 36 Z" fill="#43A047"/>
  <path d="M50 24 C42 16 30 12 18 12 C24 6 38 8 50 20 Z" fill="#7CB342"/>
  <path d="M50 24 C58 16 70 12 82 12 C76 6 62 8 50 20 Z" fill="#9CCC65"/>
  <g stroke="#33691E" stroke-width="1" fill="none" opacity="0.3">
    <path d="M50 70 C40 68 28 66 18 66"/><path d="M50 70 C60 68 72 66 82 66"/>
  </g>
</svg>