<svg viewBox="0 0 100 100" xmlns="http://www.w3.org/2000/svg">
  <path d="M50 14 L50 6" stroke="#8D6E63" stroke-width="2.5" fill="none" stroke-linecap="round"/>
  <path d="M50 14 C48 10 42 8 40 10" stroke="#558B2F" stroke-width="2" fill="none" stroke-linecap="round"/>
  <ellipse cx="50" cy="55" rx="36" ry="42" fill="#8BC34A"/>
  <ellipse cx="50" cy="53" rx="32" ry="38" fill="#C8E6A0"/>
  <ellipse cx="50" cy="53" rx="26" ry="32" fill="#F5F0DC"/>
  <g stroke="#8BC34A" stroke-width="1.5" fill="none" opacity="0.5">
    <path d="M50 21 C50 21 50 85 50 85"/>
    <path d="M26 35 C28 55 34 72 50 85"/>
    <path d="M74 35 C72 55 66 72 50 85"/>
    <path d="M20 53 C22 53 78 53 80 53"/>
    <path d="M23 40 C30 42 70 42 77 40"/>
    <path d="M23 66 C30 64 70 64 77 66"/>
  </g>
  <ellipse cx="40" cy="38" rx="8" ry="4" fill="white" opacity="0.2" transform="rotate(-20 40 38)"/>
</svg>