<svg viewBox="0 0 100 100" xmlns="http://www.w3.org/2000/svg">
  <path d="M30 64 C26 52 28 38 38 30 C48 22 62 24 70 34 C78 44 76 60 66 70 C56 80 38 80 30 70 C28 68 28 66 30 64 Z" fill="#FF8F00"/>
  <path d="M32 62 C28 50 30 36 40 28 C50 20 64 22 72 32 C80 42 78 58 68 68 C58 78 40 78 32 68 C30 66 30 64 32 62 Z" fill="#FFB300"/>
  <path d="M32 62 C36 52 46 44 58 44 C68 44 76 52 76 62 Z" fill="#FFE082"/>
  <g fill="#F57F17" opacity="0.4">
    <circle cx="38" cy="46" r="3"/><circle cx="64" cy="44" r="2.5"/>
    <circle cx="68" cy="60" r="3"/><circle cx="36" cy="64" r="2.5"/>
  </g>
  <ellipse cx="40" cy="38" rx="10" ry="5" fill="white" opacity="0.13" transform="rotate(-20 40 38)"/>
  <g fill="#33691E">
    <path d="M42 28 C40 22 38 14 40 10 C42 14 44 22 42 28 Z"/>
    <path d="M50 26 C50 18 52 10 54 6 C54 12 52 20 50 26 Z"/>
    <path d="M58 30 C58 22 60 14 62 10 C62 16 60 24 58 30 Z"/>
  </g>
</svg>