<svg viewBox="0 0 100 100" xmlns="http://www.w3.org/2000/svg">
  <path d="M37 95 L63 95 L60 79 L40 79 Z" fill="#B97040"/>
  <rect x="34" y="74" width="32" height="7" rx="3.5" fill="#C8814E"/>
  <ellipse cx="50" cy="79" rx="13" ry="3.5" fill="#4E342E"/>
  <path d="M50 79 L50 50" stroke="#43A047" stroke-width="2.5" stroke-linecap="round"/>
  <path d="M50 68 C44 65 36 63 30 60" stroke="#43A047" stroke-width="2" fill="none" stroke-linecap="round"/>
  <path d="M50 60 C56 57 64 55 70 52" stroke="#43A047" stroke-width="2" fill="none" stroke-linecap="round"/>
  <ellipse cx="27" cy="57" rx="8" ry="6" fill="#4CAF50" transform="rotate(20 27 57)"/>
  <ellipse cx="73" cy="49" rx="8" ry="6" fill="#4CAF50" transform="rotate(-20 73 49)"/>
  <ellipse cx="31" cy="67" rx="7" ry="5" fill="#66BB6A" transform="rotate(25 31 67)"/>
  <ellipse cx="69" cy="65" rx="7" ry="5" fill="#66BB6A" transform="rotate(-25 69 65)"/>
  <ellipse cx="50" cy="44" rx="7" ry="5" fill="#81C784"/>
  <circle cx="50" cy="38" r="4" fill="#A5D6A7"/>
  <circle cx="46" cy="36" r="2.5" fill="#C8E6C9"/>
  <circle cx="54" cy="37" r="2.5" fill="#C8E6C9"/>
</svg>