<svg viewBox="0 0 100 100" xmlns="http://www.w3.org/2000/svg">
  <path d="M50 92 C48 80 46 68 46 56 C46 44 48 32 50 20" stroke="#880E4F" stroke-width="3.5" fill="none" stroke-linecap="round"/>
  <path d="M46 72 C38 66 28 62 20 64" stroke="#880E4F" stroke-width="2.5" fill="none" stroke-linecap="round"/>
  <path d="M46 54 C54 48 64 44 74 46" stroke="#880E4F" stroke-width="2.5" fill="none" stroke-linecap="round"/>
  <path d="M48 36 C40 30 30 28 22 30" stroke="#880E4F" stroke-width="2.5" fill="none" stroke-linecap="round"/>
  <g fill="#1B5E20">
    <ellipse cx="20" cy="62" rx="12" ry="9" transform="rotate(-10 20 62)"/>
    <ellipse cx="74" cy="44" rx="12" ry="9" transform="rotate(10 74 44)"/>
    <ellipse cx="22" cy="28" rx="11" ry="8" transform="rotate(-5 22 28)"/>
    <ellipse cx="50" cy="18" rx="11" ry="8"/>
  </g>
  <g fill="#388E3C" opacity="0.7">
    <ellipse cx="20" cy="61" rx="7" ry="5.5" transform="rotate(-10 20 61)"/>
    <ellipse cx="74" cy="43" rx="7" ry="5.5" transform="rotate(10 74 43)"/>
    <ellipse cx="22" cy="27" rx="6" ry="5" transform="rotate(-5 22 27)"/>
    <ellipse cx="50" cy="17" rx="6" ry="5"/>
  </g>
  <g fill="#AD1457" opacity="0.9">
    <circle cx="20" cy="62" r="3"/><circle cx="74" cy="44" r="3"/>
    <circle cx="22" cy="28" r="2.5"/><circle cx="50" cy="18" r="2.5"/>
  </g>
</svg>