<svg viewBox="0 0 100 100" xmlns="http://www.w3.org/2000/svg">
  <ellipse cx="50" cy="92" rx="18" ry="5" fill="#8D6E63" opacity="0.4"/>
  <rect x="46" y="62" width="8" height="32" rx="3" fill="#795548"/>
  <rect x="46" y="62" width="4" height="32" rx="2" fill="#A1887F" opacity="0.5"/>
  <path d="M50 64 C40 60 24 54 18 40 C12 26 20 10 32 10 C38 10 44 16 50 24 C56 16 62 10 68 10 C80 10 88 26 82 40 C76 54 60 60 50 64 Z" fill="#1B5E20"/>
  <path d="M50 64 C42 58 30 50 26 38 C22 26 26 14 34 12 C38 11 42 16 50 24 C42 22 36 28 34 36 C32 46 38 56 50 64 Z" fill="#2E7D32"/>
  <path d="M38 44 C34 36 36 26 42 36 C44 42 42 50 38 44 Z" fill="#F9A825"/>
  <path d="M38 44 C36 36 38 28 42 36 C43 40 42 48 38 44 Z" fill="#FDD835"/>
  <path d="M62 40 C58 32 60 22 66 32 C68 38 66 46 62 40 Z" fill="#F9A825"/>
  <path d="M62 40 C60 32 62 24 66 32 C67 36 66 44 62 40 Z" fill="#FDD835"/>
  <path d="M50 26 C46 18 48 10 52 20 C53 24 52 32 50 26 Z" fill="#EF6C00"/>
</svg>