<svg viewBox="0 0 100 100" xmlns="http://www.w3.org/2000/svg">
  <ellipse cx="50" cy="92" rx="14" ry="4" fill="#8D6E63" opacity="0.3"/>
  <path d="M50 88 C40 82 32 68 32 54 C32 40 40 28 50 22 C60 28 68 40 68 54 C68 68 60 82 50 88 Z" fill="#F1F8E9"/>
  <path d="M50 22 L50 88" stroke="#A5D6A7" stroke-width="3" fill="none"/>
  <path d="M32 54 C36 50 42 48 50 48" stroke="#A5D6A7" stroke-width="2" fill="none" opacity="0.8"/>
  <path d="M68 54 C64 50 58 48 50 48" stroke="#A5D6A7" stroke-width="2" fill="none" opacity="0.8"/>
  <path d="M33 62 C37 58 43 56 50 56" stroke="#A5D6A7" stroke-width="1.5" fill="none" opacity="0.7"/>
  <path d="M67 62 C63 58 57 56 50 56" stroke="#A5D6A7" stroke-width="1.5" fill="none" opacity="0.7"/>
  <path d="M36 70 C40 67 45 65 50 65" stroke="#A5D6A7" stroke-width="1.5" fill="none" opacity="0.6"/>
  <path d="M64 70 C60 67 55 65 50 65" stroke="#A5D6A7" stroke-width="1.5" fill="none" opacity="0.6"/>
  <path d="M50 22 C46 16 44 10 46 6 C48 8 50 16 50 22 Z" fill="#81C784"/>
  <path d="M50 22 C54 16 56 10 54 6 C52 8 50 16 50 22 Z" fill="#66BB6A"/>
</svg>