<svg viewBox="0 0 100 100" xmlns="http://www.w3.org/2000/svg">
  <path d="M50 92 C50 78 50 64 50 50 C50 36 50 22 50 10" stroke="#5D4037" stroke-width="2.5" fill="none" stroke-linecap="round"/>
  <path d="M50 68 C40 56 24 50 10 52 C18 44 36 46 50 60 Z" fill="#1B5E20"/>
  <path d="M50 68 C60 56 76 50 90 52 C82 44 64 46 50 60 Z" fill="#2E7D32"/>
  <path d="M50 48 C40 36 26 30 12 32 C20 24 38 26 50 42 Z" fill="#388E3C"/>
  <path d="M50 48 C60 36 74 30 88 32 C80 24 62 26 50 42 Z" fill="#43A047"/>
  <path d="M50 28 C42 20 32 16 20 16 C26 10 40 12 50 24 Z" fill="#4CAF50"/>
  <path d="M50 28 C58 20 68 16 80 16 C74 10 60 12 50 24 Z" fill="#66BB6A"/>
  <g fill="#81C784" opacity="0.6">
    <path d="M34 54 C30 52 26 54 28 58 C30 54 32 52 34 56 Z"/>
    <path d="M66 54 C70 52 74 54 72 58 C70 54 68 52 66 56 Z"/>
    <path d="M34 34 C30 32 26 34 28 38 C30 34 32 32 34 36 Z"/>
    <path d="M66 34 C70 32 74 34 72 38 C70 34 68 32 66 36 Z"/>
  </g>
</svg>