<svg viewBox="0 0 100 100" xmlns="http://www.w3.org/2000/svg">
  <path d="M52 10 C50 6 54 2 58 4 C60 8 56 12 52 10 Z" fill="#33691E"/>
  <path d="M52 10 C54 14 56 20 54 24 C52 16 50 12 52 10 Z" fill="#43A047"/>
  <path d="M50 16 C44 18 38 26 36 38 C34 50 36 64 40 76 C44 88 48 94 50 96 C52 94 56 88 60 76 C64 64 66 50 64 38 C62 26 56 18 50 16 Z" fill="#558B2F"/>
  <path d="M50 16 C46 20 42 28 40 40 C38 52 40 66 42 76 C44 86 46 92 50 96 C49 82 47 66 47 50 C47 36 48 22 50 16 Z" fill="#7CB342"/>
  <line x1="50" y1="30" x2="50" y2="90" stroke="#33691E" stroke-width="1.5" opacity="0.4"/>
  <line x1="50" y1="40" x2="38" y2="50" stroke="#33691E" stroke-width="1" opacity="0.3"/>
  <line x1="50" y1="50" x2="62" y2="60" stroke="#33691E" stroke-width="1" opacity="0.3"/>
  <ellipse cx="44" cy="32" rx="4" ry="7" fill="white" opacity="0.12" transform="rotate(-10 44 32)"/>
</svg>