<svg viewBox="0 0 100 100" xmlns="http://www.w3.org/2000/svg">
  <path d="M37 95 L63 95 L60 79 L40 79 Z" fill="#B97040"/>
  <rect x="34" y="74" width="32" height="7" rx="3.5" fill="#C8814E"/>
  <ellipse cx="50" cy="79" rx="13" ry="3.5" fill="#4E342E"/>
  <path d="M50 79 C50 70 49 60 48 50 C47 40 46 30 46 20" stroke="#795548" stroke-width="2" fill="none" stroke-linecap="round"/>
  <path d="M48 60 C42 56 34 52 28 48" stroke="#795548" stroke-width="1.8" fill="none" stroke-linecap="round"/>
  <path d="M49 48 C55 44 62 40 68 36" stroke="#795548" stroke-width="1.8" fill="none" stroke-linecap="round"/>
  <g fill="#558B2F">
    <ellipse cx="44" cy="58" rx="5" ry="4" transform="rotate(15 44 58)"/>
    <ellipse cx="38" cy="55" rx="4.5" ry="3.5" transform="rotate(15 38 55)"/>
    <ellipse cx="30" cy="51" rx="4" ry="3" transform="rotate(15 30 51)"/>
    <ellipse cx="52" cy="46" rx="4.5" ry="3.5" transform="rotate(-15 52 46)"/>
    <ellipse cx="58" cy="42" rx="4.5" ry="3.5" transform="rotate(-15 58 42)"/>
    <ellipse cx="64" cy="38" rx="4" ry="3" transform="rotate(-15 64 38)"/>
    <ellipse cx="44" cy="26" rx="4" ry="3" transform="rotate(5 44 26)"/>
    <ellipse cx="44" cy="18" rx="4" ry="3" transform="rotate(5 44 18)"/>
  </g>
</svg>