<svg viewBox="0 0 100 100" xmlns="http://www.w3.org/2000/svg">
  <ellipse cx="50" cy="92" rx="18" ry="5" fill="#8D6E63" opacity="0.4"/>
  <rect x="46" y="60" width="8" height="34" rx="3" fill="#8D6E63"/>
  <rect x="46" y="60" width="4" height="34" rx="2" fill="#A1887F" opacity="0.5"/>
  <path d="M50 62 C42 56 28 48 24 36 C20 22 28 10 38 12 C44 13 48 18 50 24 C52 18 56 13 62 12 C72 10 80 22 76 36 C72 48 58 56 50 62 Z" fill="#558B2F"/>
  <path d="M50 62 C44 56 34 48 30 36 C28 26 30 16 36 13 C40 12 44 18 50 24 C44 22 40 26 38 34 C36 44 40 54 50 62 Z" fill="#7CB342"/>
  <g fill="#33691E">
    <ellipse cx="36" cy="38" rx="4" ry="7" transform="rotate(10 36 38)"/>
    <ellipse cx="44" cy="28" rx="4" ry="7" transform="rotate(-5 44 28)"/>
    <ellipse cx="56" cy="26" rx="4" ry="7" transform="rotate(5 56 26)"/>
    <ellipse cx="64" cy="36" rx="4" ry="7" transform="rotate(-10 64 36)"/>
  </g>
  <g fill="#6D4C41">
    <ellipse cx="34" cy="46" rx="3" ry="5" transform="rotate(10 34 46)"/>
    <ellipse cx="66" cy="44" rx="3" ry="5" transform="rotate(-10 66 44)"/>
    <ellipse cx="50" cy="40" rx="3" ry="5"/>
  </g>
</svg>