<svg viewBox="0 0 100 100" xmlns="http://www.w3.org/2000/svg">
  <path d="M50 78 C50 68 50 58 52 50" stroke="#8D6E63" stroke-width="3" fill="none" stroke-linecap="round"/>
  <path d="M18 52 C16 40 24 28 38 24 C52 20 66 26 74 38 C82 50 78 64 66 72 C54 80 34 78 22 68 C18 64 18 58 18 52 Z" fill="#EEEEEE"/>
  <path d="M20 50 C18 38 26 26 40 22 C54 18 68 24 76 36 C84 48 80 62 68 70 C56 78 36 76 24 66 C20 62 20 56 20 50 Z" fill="#F5F5F5"/>
  <path d="M22 48 C24 36 36 26 52 26 C66 26 78 36 80 50 Z" fill="white" opacity="0.5"/>
  <g stroke="#BDBDBD" stroke-width="1.5" fill="none" opacity="0.6">
    <path d="M52 50 C44 44 34 40 24 40"/><path d="M52 50 C60 44 70 40 78 40"/>
    <path d="M52 50 C48 42 46 32 48 24"/><path d="M52 50 C56 42 58 32 56 24"/>
    <path d="M52 50 C40 52 30 58 22 66"/><path d="M52 50 C64 52 72 58 76 66"/>
  </g>
  <ellipse cx="34" cy="36" rx="12" ry="7" fill="white" opacity="0.3" transform="rotate(-20 34 36)"/>
</svg>