<svg viewBox="0 0 100 100" xmlns="http://www.w3.org/2000/svg">
  <path d="M22 58 C20 46 26 34 38 28 C50 22 64 26 70 38 C76 50 70 64 58 72 C46 80 30 76 22 64 C20 62 20 60 22 58 Z" fill="#F48FB1"/>
  <path d="M24 56 C22 44 28 32 40 26 C52 20 66 24 72 36 C78 48 72 62 60 70 C48 78 32 74 24 62 C22 60 22 58 24 56 Z" fill="#F8BBD9"/>
  <path d="M24 56 C26 46 34 38 46 36 C58 34 68 40 72 52 C74 60 68 68 58 70 Z" fill="#FCE4EC"/>
  <g fill="#E91E63" opacity="0.3">
    <circle cx="36" cy="44" r="3"/><circle cx="62" cy="42" r="2.5"/>
    <circle cx="66" cy="58" r="3"/><circle cx="36" cy="64" r="2.5"/>
  </g>
  <ellipse cx="36" cy="38" rx="9" ry="5" fill="white" opacity="0.2" transform="rotate(-20 36 38)"/>
  <g fill="#558B2F">
    <path d="M44 26 C42 20 40 14 42 10 C44 14 46 20 44 26 Z"/>
    <path d="M52 24 C52 18 54 12 56 8 C56 14 54 20 52 24 Z"/>
  </g>
  <path d="M58 70 C58 76 56 82 54 86 C56 80 58 74 60 70 Z" fill="#C2185B"/>
</svg>