<svg viewBox="0 0 100 100" xmlns="http://www.w3.org/2000/svg">
  <ellipse cx="50" cy="92" rx="18" ry="5" fill="#8D6E63" opacity="0.4"/>
  <rect x="46" y="60" width="8" height="34" rx="3" fill="#795548"/>
  <rect x="46" y="60" width="4" height="34" rx="2" fill="#A1887F" opacity="0.5"/>
  <path d="M50 62 C42 58 28 52 22 40 C16 28 24 14 34 14 C40 14 46 18 50 24 C54 18 60 14 66 14 C76 14 84 28 78 40 C72 52 58 58 50 62 Z" fill="#2E7D32"/>
  <path d="M50 62 C44 56 34 48 30 38 C26 28 30 18 36 16 C40 15 44 18 50 24 C44 22 38 26 36 34 C34 42 38 52 50 62 Z" fill="#388E3C"/>
  <circle cx="34" cy="46" r="11" fill="#E65100"/>
  <circle cx="34" cy="46" r="9" fill="#FF6D00"/>
  <circle cx="34" cy="46" r="7" fill="#FF8F00"/>
  <g fill="#2E7D32">
    <path d="M30 37 C34 34 38 37 34 40 C33 38 31 37 30 37 Z"/>
    <path d="M34 36 C38 33 42 36 38 39 C37 37 35 36 34 36 Z"/>
  </g>
  <ellipse cx="30" cy="43" rx="3" ry="4" fill="white" opacity="0.2" transform="rotate(-15 30 43)"/>
  <circle cx="64" cy="38" r="10" fill="#E65100"/>
  <circle cx="64" cy="38" r="8" fill="#FF6D00"/>
  <circle cx="64" cy="38" r="6" fill="#FF8F00"/>
  <g fill="#2E7D32">
    <path d="M60 29 C64 26 68 29 64 32 C63 30 61 29 60 29 Z"/>
    <path d="M64 28 C68 25 72 28 68 31 C67 29 65 28 64 28 Z"/>
  </g>
  <ellipse cx="60" cy="35" rx="3" ry="3.5" fill="white" opacity="0.2" transform="rotate(-15 60 35)"/>
</svg>