<svg viewBox="0 0 100 100" xmlns="http://www.w3.org/2000/svg">
  <rect x="47" y="6" width="6" height="12" rx="3" fill="#33691E"/>
  <path d="M50 16 C42 14 34 18 28 28 C22 38 20 52 24 66 C28 80 36 90 46 93 C48 94 50 94 50 94 C50 94 52 94 54 93 C64 90 72 80 76 66 C80 52 78 38 72 28 C66 18 58 14 50 16 Z" fill="#2E7D32"/>
  <path d="M50 16 C44 18 40 28 38 42 C36 56 38 72 44 84 C46 90 48 94 50 94 C52 92 54 86 56 78 C60 64 62 48 60 34 C58 22 54 16 50 16 Z" fill="#388E3C"/>
  <g stroke="#1B5E20" stroke-width="1.5" fill="none" opacity="0.4">
    <path d="M36 42 C30 50 30 62 36 70"/><path d="M64 42 C70 50 70 62 64 70"/>
    <path d="M50 16 L50 94"/>
  </g>
  <ellipse cx="38" cy="36" rx="8" ry="5" fill="white" opacity="0.12" transform="rotate(-20 38 36)"/>
  <path d="M46 93 C44 98 40 100 38 98 Z" fill="#1B5E20"/>
</svg>