<svg viewBox="0 0 100 100" xmlns="http://www.w3.org/2000/svg">
  <path d="M50 96 C50 84 52 72 54 62 C56 52 58 44 56 36 C54 28 50 22 50 16" stroke="#5D4037" stroke-width="4" fill="none" stroke-linecap="round"/>
  <path d="M54 62 C46 58 36 56 28 58" stroke="#5D4037" stroke-width="2.5" fill="none" stroke-linecap="round"/>
  <path d="M56 48 C64 44 74 44 80 48" stroke="#5D4037" stroke-width="2.5" fill="none" stroke-linecap="round"/>
  <path d="M50 16 C40 10 28 8 20 14 C30 12 42 14 50 20 Z" fill="#388E3C"/>
  <path d="M50 16 C60 10 72 8 80 14 C70 12 58 14 50 20 Z" fill="#43A047"/>
  <path d="M28 58 C22 52 18 44 20 36 C26 40 28 50 28 58 Z" fill="#4CAF50"/>
  <path d="M80 48 C84 42 84 34 80 28 C76 34 76 42 80 48 Z" fill="#4CAF50"/>
  <g fill="#7B1FA2">
    <path d="M36 78 C36 72 34 64 34 58 C38 62 40 72 36 78 Z"/>
    <path d="M36 78 C36 72 38 64 40 58 C38 62 36 72 36 78 Z"/>
    <path d="M36 78 C30 74 26 68 28 62 C32 66 36 74 36 78 Z"/>
    <path d="M36 78 C42 74 46 68 44 62 C40 66 36 74 36 78 Z"/>
    <path d="M36 78 C30 78 24 74 24 68 C28 70 34 76 36 78 Z"/>
    <path d="M36 78 C42 78 48 74 48 68 C44 70 38 76 36 78 Z"/>
  </g>
  <circle cx="36" cy="78" r="5" fill="#9C27B0"/>
  <g fill="white" opacity="0.8">
    <line x1="36" y1="73" x2="36" y2="83" stroke="white" stroke-width="1.5"/>
    <line x1="31" y1="78" x2="41" y2="78" stroke="white" stroke-width="1.5"/>
    <line x1="32.5" y1="74.5" x2="39.5" y2="81.5" stroke="white" stroke-width="1"/>
    <line x1="39.5" y1="74.5" x2="32.5" y2="81.5" stroke="white" stroke-width="1"/>
  </g>
  <circle cx="36" cy="78" r="2.5" fill="#FF8A65"/>
  <circle cx="74" cy="64" r="12" fill="#6A1B9A"/>
  <circle cx="74" cy="62" r="9" fill="#9C27B0"/>
  <ellipse cx="70" cy="60" rx="4" ry="6" fill="#AB47BC" opacity="0.6"/>
</svg>