<svg viewBox="0 0 100 100" xmlns="http://www.w3.org/2000/svg">
  <g fill="#7B52A0">
    <path d="M50 16 C50 16 44 8 38 6 C42 10 46 14 50 16 Z"/>
    <path d="M50 16 C50 16 56 8 62 6 C58 10 54 14 50 16 Z"/>
  </g>
  <path d="M28 28 C22 38 20 52 22 64 C24 76 32 86 44 90 C48 91 52 91 56 90 C68 86 76 76 78 64 C80 52 78 38 72 28 C66 20 58 16 50 16 C42 16 34 20 28 28 Z" fill="#512DA8"/>
  <path d="M30 30 C24 40 22 54 24 64 C26 76 34 84 44 88 C48 90 52 90 56 88 C66 84 74 76 76 64 C78 54 76 40 70 30 C64 22 58 18 50 18 C42 18 36 22 30 30 Z" fill="#7B1FA2"/>
  <g stroke="#4A148C" stroke-width="1.5" fill="none" opacity="0.35">
    <path d="M32 40 C38 36 62 36 68 40"/>
    <path d="M26 56 C34 50 66 50 74 56"/>
    <path d="M28 70 C36 64 64 64 72 70"/>
  </g>
  <ellipse cx="40" cy="30" rx="8" ry="4" fill="white" opacity="0.12" transform="rotate(-15 40 30)"/>
</svg>