<svg viewBox="0 0 100 100" xmlns="http://www.w3.org/2000/svg">
  <path d="M48 90 C46 78 46 66 48 54 C50 42 52 32 52 20" stroke="#8D6E63" stroke-width="8" fill="none" stroke-linecap="round"/>
  <path d="M48 90 C46 78 46 66 48 54 C50 42 52 32 52 20" stroke="#A1887F" stroke-width="5" fill="none" stroke-linecap="round"/>
  <path d="M52 20 C52 20 34 14 24 22 C30 18 42 18 52 20 Z" fill="#2E7D32"/>
  <path d="M52 20 C52 20 36 8 28 12 C34 8 44 12 52 20 Z" fill="#388E3C"/>
  <path d="M52 20 C52 20 70 14 80 22 C74 18 62 18 52 20 Z" fill="#2E7D32"/>
  <path d="M52 20 C52 20 68 8 76 12 C70 8 60 12 52 20 Z" fill="#388E3C"/>
  <path d="M52 20 C52 20 50 4 50 -2 C52 4 54 12 52 20 Z" fill="#43A047"/>
  <path d="M52 20 C52 20 40 18 32 26 C36 18 44 16 52 20 Z" fill="#43A047"/>
  <path d="M52 20 C52 20 64 18 72 26 C68 18 60 16 52 20 Z" fill="#43A047"/>
</svg>