<svg viewBox="0 0 100 100" xmlns="http://www.w3.org/2000/svg">
  <path d="M50 92 C50 80 50 68 50 56" stroke="#5D4037" stroke-width="3" fill="none" stroke-linecap="round"/>
  <path d="M50 80 C40 72 28 68 14 68 C20 60 36 62 50 74 Z" fill="#1B5E20"/>
  <path d="M50 80 C60 72 72 68 86 68 C80 60 64 62 50 74 Z" fill="#2E7D32"/>
  <path d="M50 64 C40 56 28 52 14 52 C20 44 36 46 50 58 Z" fill="#388E3C"/>
  <path d="M50 64 C60 56 72 52 86 52 C80 44 64 46 50 58 Z" fill="#43A047"/>
  <circle cx="50" cy="40" r="10" fill="#FDD835"/>
  <circle cx="40" cy="34" r="7" fill="#FFEE58"/>
  <circle cx="60" cy="34" r="7" fill="#FDD835"/>
  <circle cx="50" cy="28" r="7" fill="#FFEE58"/>
  <g fill="#FFF9C4" opacity="0.6">
    <circle cx="50" cy="38" r="5"/><circle cx="41" cy="33" r="4"/><circle cx="59" cy="33" r="4"/><circle cx="50" cy="27" r="4"/>
  </g>
</svg>