<svg viewBox="0 0 100 100" xmlns="http://www.w3.org/2000/svg">
  <rect x="44" y="68" width="12" height="26" rx="4" fill="#8D6E63"/>
  <path d="M44 76 C38 74 32 76 28 72 C26 66 30 60 36 62" stroke="#8D6E63" stroke-width="3" fill="none" stroke-linecap="round"/>
  <path d="M56 78 C62 76 68 78 70 74 C72 68 66 62 60 65" stroke="#8D6E63" stroke-width="3" fill="none" stroke-linecap="round"/>
  <circle cx="50" cy="48" r="22" fill="#6A1B9A"/>
  <circle cx="50" cy="44" r="18" fill="#7B1FA2"/>
  <circle cx="38" cy="50" r="12" fill="#8E24AA"/>
  <circle cx="62" cy="50" r="12" fill="#6A1B9A"/>
  <circle cx="50" cy="36" r="12" fill="#9C27B0"/>
  <circle cx="50" cy="32" r="8" fill="#AB47BC"/>
  <circle cx="40" cy="42" r="7" fill="#AB47BC"/>
  <circle cx="60" cy="42" r="7" fill="#9C27B0"/>
  <circle cx="44" cy="28" r="5" fill="#CE93D8"/>
  <circle cx="56" cy="30" r="5" fill="#BA68C8"/>
  <ellipse cx="40" cy="36" rx="6" ry="3" fill="white" opacity="0.1" transform="rotate(-15 40 36)"/>
</svg>