<svg viewBox="0 0 100 100" xmlns="http://www.w3.org/2000/svg">
  <ellipse cx="50" cy="92" rx="18" ry="5" fill="#8D6E63" opacity="0.4"/>
  <rect x="46" y="60" width="8" height="34" rx="3" fill="#795548"/>
  <rect x="46" y="60" width="4" height="34" rx="2" fill="#A1887F" opacity="0.5"/>
  <path d="M50 62 C42 58 28 52 22 40 C16 28 24 14 34 14 C40 14 46 18 50 24 C54 18 60 14 66 14 C76 14 84 28 78 40 C72 52 58 58 50 62 Z" fill="#2E7D32"/>
  <path d="M50 62 C44 56 34 48 30 38 C26 28 30 18 36 16 C40 15 44 18 50 24 C44 22 38 26 36 34 C34 42 38 52 50 62 Z" fill="#388E3C"/>
  <circle cx="34" cy="44" r="10" fill="#6A1B9A"/>
  <circle cx="34" cy="44" r="8" fill="#8E24AA"/>
  <circle cx="34" cy="44" r="6" fill="#AB47BC"/>
  <ellipse cx="31" cy="41" rx="3" ry="2" fill="white" opacity="0.25" transform="rotate(-20 31 41)"/>
  <path d="M34 34 C34 32 35 30 34 28 C33 30 32 32 34 34 Z" fill="#2E7D32"/>
  <circle cx="64" cy="36" r="9" fill="#4A148C"/>
  <circle cx="64" cy="36" r="7" fill="#6A1B9A"/>
  <circle cx="64" cy="36" r="5" fill="#9C27B0"/>
  <ellipse cx="61" cy="33" rx="3" ry="2" fill="white" opacity="0.25" transform="rotate(-20 61 33)"/>
  <path d="M64 27 C64 25 65 23 64 21 C63 23 62 25 64 27 Z" fill="#2E7D32"/>
</svg>