<svg viewBox="0 0 100 100" xmlns="http://www.w3.org/2000/svg">
  <path d="M50 92 C50 78 50 64 50 50" stroke="#5D4037" stroke-width="2.5" fill="none" stroke-linecap="round"/>
  <path d="M50 50 C50 36 50 22 50 10" stroke="#33691E" stroke-width="2" fill="none" stroke-linecap="round"/>
  <path d="M50 70 C40 58 22 52 10 56 C18 46 38 48 50 62 Z" fill="#4A148C" opacity="0.85"/>
  <path d="M50 70 C60 58 78 52 90 56 C82 46 62 48 50 62 Z" fill="#6A1B9A" opacity="0.85"/>
  <path d="M50 46 C40 34 24 28 12 32 C20 22 40 26 50 40 Z" fill="#7B1FA2" opacity="0.9"/>
  <path d="M50 46 C60 34 76 28 88 32 C80 22 60 26 50 40 Z" fill="#9C27B0" opacity="0.9"/>
  <path d="M50 22 C42 14 30 10 18 12 C24 6 38 8 50 18 Z" fill="#AB47BC"/>
  <path d="M50 22 C58 14 70 10 82 12 C76 6 62 8 50 18 Z" fill="#BA68C8"/>
  <g stroke="#4A148C" stroke-width="1.2" fill="none" opacity="0.5">
    <path d="M50 62 C42 58 32 56 22 56"/><path d="M50 62 C58 58 68 56 78 56"/>
    <path d="M50 38 C42 34 32 32 22 32"/><path d="M50 38 C58 34 68 32 78 32"/>
  </g>
</svg>