<svg viewBox="0 0 100 100" xmlns="http://www.w3.org/2000/svg">
  <ellipse cx="50" cy="92" rx="18" ry="5" fill="#8D6E63" opacity="0.4"/>
  <rect x="46" y="60" width="8" height="34" rx="3" fill="#795548"/>
  <rect x="46" y="60" width="4" height="34" rx="2" fill="#A1887F" opacity="0.5"/>
  <path d="M50 62 C42 58 28 52 22 40 C16 28 24 14 34 14 C40 14 46 18 50 24 C54 18 60 14 66 14 C76 14 84 28 78 40 C72 52 58 58 50 62 Z" fill="#33691E"/>
  <path d="M50 62 C44 56 34 48 30 38 C26 28 30 18 36 16 C40 15 44 18 50 24 C44 22 38 26 36 34 C34 42 38 52 50 62 Z" fill="#388E3C"/>
  <path d="M36 44 C34 38 34 30 36 24 C40 32 40 40 36 44 Z" fill="#F9A825"/>
  <path d="M36 44 C32 40 30 32 32 24 C34 30 36 38 36 44 Z" fill="#FDD835"/>
  <path d="M36 38 C34 34 34 28 36 22" stroke="#33691E" stroke-width="1" fill="none" opacity="0.3"/>
  <path d="M36 24 C36 22 35 20 36 18 C37 20 38 22 36 24 Z" fill="#33691E"/>
  <path d="M62 40 C60 34 60 26 62 20 C66 28 66 36 62 40 Z" fill="#F9A825"/>
  <path d="M62 40 C58 36 56 28 58 20 C60 26 62 34 62 40 Z" fill="#FDD835"/>
  <path d="M62 20 C62 18 61 16 62 14 C63 16 64 18 62 20 Z" fill="#33691E"/>
  <path d="M50 30 C48 24 48 16 50 10 C52 16 52 24 50 30 Z" fill="#C8E6C9"/>
</svg>