<svg viewBox="0 0 100 100" xmlns="http://www.w3.org/2000/svg">
  <path d="M18 62 C18 44 28 22 50 18 C72 22 82 44 82 62 C82 74 72 82 50 82 C28 82 18 74 18 62 Z" fill="#558B2F"/>
  <path d="M18 62 C18 50 26 34 40 24" stroke="#33691E" stroke-width="1.5" fill="none" opacity="0.5"/>
  <path d="M82 62 C82 50 74 34 60 24" stroke="#33691E" stroke-width="1.5" fill="none" opacity="0.5"/>
  <path d="M22 58 C24 46 32 28 50 22 C68 28 76 46 78 58 C72 70 62 76 50 76 C38 76 28 70 22 58 Z" fill="#7CB342"/>
  <circle cx="32" cy="60" r="9" fill="#8BC34A"/>
  <circle cx="50" cy="56" r="9" fill="#8BC34A"/>
  <circle cx="68" cy="60" r="9" fill="#8BC34A"/>
  <circle cx="32" cy="60" r="6" fill="#AED581"/>
  <circle cx="50" cy="56" r="6" fill="#AED581"/>
  <circle cx="68" cy="60" r="6" fill="#AED581"/>
  <path d="M80 24 C84 18 82 12 78 14 C82 16 82 22 80 24 Z" fill="#33691E"/>
  <path d="M80 24 C76 16 72 14 70 18 C74 16 78 20 80 24 Z" fill="#43A047"/>
</svg>