<svg viewBox="0 0 100 100" xmlns="http://www.w3.org/2000/svg">
  <path d="M37 95 L63 95 L60 79 L40 79 Z" fill="#B97040"/>
  <rect x="34" y="74" width="32" height="7" rx="3.5" fill="#C8814E"/>
  <ellipse cx="50" cy="79" rx="13" ry="3.5" fill="#4E342E"/>
  <path d="M50 79 C50 68 50 56 50 44" stroke="#00695C" stroke-width="2.5" fill="none" stroke-linecap="round"/>
  <path d="M50 70 C42 65 34 60 28 56" stroke="#00695C" stroke-width="2" fill="none" stroke-linecap="round"/>
  <path d="M50 59 C58 54 66 49 72 45" stroke="#00695C" stroke-width="2" fill="none" stroke-linecap="round"/>
  <g fill="#00897B">
    <ellipse cx="27" cy="54" rx="9" ry="6.5" transform="rotate(20 27 54)"/>
    <ellipse cx="20" cy="49" rx="8" ry="5.5" transform="rotate(20 20 49)"/>
    <ellipse cx="73" cy="43" rx="9" ry="6.5" transform="rotate(-20 73 43)"/>
    <ellipse cx="80" cy="38" rx="8" ry="5.5" transform="rotate(-20 80 38)"/>
    <ellipse cx="50" cy="44" rx="10" ry="7"/>
    <ellipse cx="50" cy="32" rx="10" ry="7"/>
    <ellipse cx="50" cy="20" rx="8" ry="6"/>
  </g>
  <g fill="#4DB6AC" opacity="0.5">
    <ellipse cx="27" cy="52" rx="6" ry="4" transform="rotate(20 27 52)"/>
    <ellipse cx="73" cy="41" rx="6" ry="4" transform="rotate(-20 73 41)"/>
    <ellipse cx="50" cy="42" rx="7" ry="4.5"/>
    <ellipse cx="50" cy="30" rx="7" ry="4.5"/>
  </g>
  <g fill="#7B1FA2" opacity="0.9">
    <circle cx="50" cy="14" r="3"/><circle cx="46" cy="11" r="2.5"/><circle cx="54" cy="11" r="2.5"/>
    <circle cx="50" cy="8" r="2.5"/><circle cx="46" cy="8" r="2"/><circle cx="54" cy="8" r="2"/>
  </g>
</svg>