<svg viewBox="0 0 100 100" xmlns="http://www.w3.org/2000/svg">
  <path d="M37 95 L63 95 L60 79 L40 79 Z" fill="#B97040"/>
  <rect x="34" y="74" width="32" height="7" rx="3.5" fill="#C8814E"/>
  <ellipse cx="50" cy="79" rx="13" ry="3.5" fill="#4E342E"/>
  <path d="M50 79 L50 60" stroke="#558B2F" stroke-width="2.5" stroke-linecap="round"/>
  <path d="M50 68 C44 64 36 58 30 52" stroke="#558B2F" stroke-width="2" fill="none" stroke-linecap="round"/>
  <path d="M50 62 C56 58 64 52 70 46" stroke="#558B2F" stroke-width="2" fill="none" stroke-linecap="round"/>
  <g fill="#388E3C">
    <path d="M26 50 C22 46 20 40 24 36 C28 32 34 34 34 40 C34 46 30 50 26 50 Z"/>
    <path d="M34 46 C30 40 32 32 38 30 C44 28 48 34 46 40 C44 46 38 48 34 46 Z" fill="#43A047"/>
    <path d="M72 44 C76 40 78 34 74 30 C70 26 64 28 64 34 C64 40 68 44 72 44 Z"/>
    <path d="M64 40 C68 34 70 26 66 22 C62 18 56 20 56 26 C56 32 60 38 64 40 Z" fill="#43A047"/>
  </g>
  <path d="M50 60 C44 54 38 44 36 34 C40 38 46 50 50 60 Z" fill="#4CAF50"/>
  <path d="M50 60 C56 54 62 44 64 34 C60 38 54 50 50 60 Z" fill="#4CAF50"/>
</svg>