<svg viewBox="0 0 100 100" xmlns="http://www.w3.org/2000/svg">
  <path d="M50 88 C50 76 50 64 50 52" stroke="#8D6E63" stroke-width="3" fill="none" stroke-linecap="round"/>
  <path d="M50 70 C40 62 28 58 14 58 C20 50 36 52 50 64 Z" fill="#880E4F"/>
  <path d="M50 70 C60 62 72 58 86 58 C80 50 64 52 50 64 Z" fill="#AD1457"/>
  <path d="M50 56 C40 48 28 44 14 44 C20 36 36 38 50 50 Z" fill="#C2185B"/>
  <path d="M50 56 C60 48 72 44 86 44 C80 36 64 38 50 50 Z" fill="#D81B60"/>
  <path d="M50 42 C42 34 30 28 16 26 C22 18 38 22 50 38 Z" fill="#E91E63"/>
  <path d="M50 42 C58 34 70 28 84 26 C78 18 62 22 50 38 Z" fill="#EC407A"/>
  <path d="M40 30 C36 22 36 14 40 10 C44 18 44 26 40 30 Z" fill="#F06292"/>
  <path d="M60 30 C64 22 64 14 60 10 C56 18 56 26 60 30 Z" fill="#E91E63"/>
  <path d="M50 28 C48 20 48 12 50 8 C52 12 52 20 50 28 Z" fill="#F48FB1"/>
</svg>