<svg viewBox="0 0 100 100" xmlns="http://www.w3.org/2000/svg">
  <ellipse cx="50" cy="92" rx="16" ry="5" fill="#8D6E63" opacity="0.3"/>
  <path d="M34 72 C30 64 30 54 36 48 L50 48 L64 48 C70 54 70 64 66 72 Z" fill="#81C784"/>
  <path d="M34 72 C30 64 30 54 36 48" stroke="#558B2F" stroke-width="1" fill="none" opacity="0.4"/>
  <circle cx="50" cy="46" r="14" fill="#4CAF50"/>
  <circle cx="38" cy="54" r="9" fill="#43A047"/>
  <circle cx="62" cy="54" r="9" fill="#43A047"/>
  <circle cx="50" cy="34" r="7" fill="#388E3C"/>
  <circle cx="50" cy="46" r="9" fill="#66BB6A"/>
  <circle cx="38" cy="54" r="6" fill="#81C784"/>
  <circle cx="62" cy="54" r="6" fill="#81C784"/>
  <circle cx="50" cy="34" r="5" fill="#A5D6A7"/>
  <circle cx="44" cy="42" r="4" fill="#C8E6C9"/>
  <circle cx="56" cy="42" r="4" fill="#C8E6C9"/>
  <circle cx="50" cy="38" r="3" fill="#E8F5E9"/>
  <g fill="#2E7D32" opacity="0.6">
    <path d="M36 76 C28 76 22 82 22 88 L34 88 Z"/>
    <path d="M64 76 C72 76 78 82 78 88 L66 88 Z"/>
    <path d="M50 76 L50 88" stroke="#33691E" stroke-width="3" fill="none"/>
  </g>
</svg>