<svg viewBox="0 0 100 100" xmlns="http://www.w3.org/2000/svg">
  <path d="M37 95 L63 95 L60 79 L40 79 Z" fill="#B97040"/>
  <rect x="34" y="74" width="32" height="7" rx="3.5" fill="#C8814E"/>
  <ellipse cx="50" cy="79" rx="13" ry="3.5" fill="#4E342E"/>
  <path d="M50 79 C50 70 48 58 46 44 C44 30 44 20 46 12" stroke="#795548" stroke-width="2.5" fill="none" stroke-linecap="round"/>
  <g>
    <line x1="46" y1="44" x2="42" y2="40" stroke="#2E7D32" stroke-width="2.5" stroke-linecap="round"/>
    <line x1="46" y1="44" x2="50" y2="40" stroke="#388E3C" stroke-width="2.5" stroke-linecap="round"/>
    <line x1="46" y1="38" x2="42" y2="34" stroke="#2E7D32" stroke-width="2.5" stroke-linecap="round"/>
    <line x1="46" y1="38" x2="50" y2="34" stroke="#388E3C" stroke-width="2.5" stroke-linecap="round"/>
    <line x1="46" y1="32" x2="42" y2="28" stroke="#2E7D32" stroke-width="2.5" stroke-linecap="round"/>
    <line x1="46" y1="32" x2="50" y2="28" stroke="#388E3C" stroke-width="2.5" stroke-linecap="round"/>
    <line x1="46" y1="26" x2="42" y2="22" stroke="#2E7D32" stroke-width="2.5" stroke-linecap="round"/>
    <line x1="46" y1="26" x2="50" y2="22" stroke="#388E3C" stroke-width="2.5" stroke-linecap="round"/>
    <line x1="46" y1="20" x2="43" y2="16" stroke="#2E7D32" stroke-width="2" stroke-linecap="round"/>
    <line x1="46" y1="20" x2="49" y2="16" stroke="#388E3C" stroke-width="2" stroke-linecap="round"/>
  </g>
  <circle cx="46" cy="12" r="4" fill="#7B1FA2"/>
  <circle cx="43" cy="8" r="2.5" fill="#9C27B0"/>
  <circle cx="49" cy="8" r="2.5" fill="#9C27B0"/>
</svg>