<svg viewBox="0 0 100 100" xmlns="http://www.w3.org/2000/svg">
  <ellipse cx="50" cy="92" rx="20" ry="6" fill="#5D4037" opacity="0.4"/>
  <path d="M44 90 C40 78 38 66 40 54 C42 42 46 34 50 28" stroke="#795548" stroke-width="4" fill="none" stroke-linecap="round"/>
  <path d="M56 90 C60 78 62 66 60 54 C58 42 54 34 50 28" stroke="#6D4C41" stroke-width="4" fill="none" stroke-linecap="round"/>
  <path d="M50 28 C42 20 32 16 24 20 C30 18 42 22 50 28 Z" fill="#558B2F"/>
  <path d="M50 28 C58 20 68 16 76 20 C70 18 58 22 50 28 Z" fill="#43A047"/>
  <path d="M40 54 C32 50 24 46 18 42 C24 40 34 44 40 50 Z" fill="#558B2F"/>
  <path d="M60 54 C68 50 76 46 82 42 C76 40 66 44 60 50 Z" fill="#43A047"/>
  <g>
    <circle cx="26" cy="34" r="7" fill="#C62828"/>
    <circle cx="26" cy="28" r="7" fill="#C62828"/>
    <circle cx="32" cy="24" r="7" fill="#C62828"/>
    <circle cx="32" cy="34" r="7" fill="#C62828"/>
    <circle cx="26" cy="34" r="5" fill="#E53935"/>
    <circle cx="26" cy="28" r="5" fill="#E53935"/>
    <circle cx="32" cy="24" r="5" fill="#E53935"/>
    <circle cx="32" cy="34" r="5" fill="#E53935"/>
    <circle cx="29" cy="29" r="4" fill="#B71C1C"/>
  </g>
  <g>
    <circle cx="70" cy="30" r="7" fill="#C62828"/>
    <circle cx="70" cy="24" r="7" fill="#C62828"/>
    <circle cx="76" cy="20" r="7" fill="#C62828"/>
    <circle cx="76" cy="30" r="7" fill="#C62828"/>
    <circle cx="70" cy="30" r="5" fill="#E53935"/>
    <circle cx="70" cy="24" r="5" fill="#E53935"/>
    <circle cx="76" cy="20" r="5" fill="#E53935"/>
    <circle cx="76" cy="30" r="5" fill="#E53935"/>
    <circle cx="73" cy="25" r="4" fill="#B71C1C"/>
  </g>
  <g>
    <circle cx="20" cy="46" r="6" fill="#C62828"/>
    <circle cx="20" cy="40" r="6" fill="#C62828"/>
    <circle cx="26" cy="36" r="6" fill="#C62828"/>
    <circle cx="26" cy="46" r="6" fill="#C62828"/>
    <circle cx="20" cy="46" r="4" fill="#EF5350"/>
    <circle cx="20" cy="40" r="4" fill="#EF5350"/>
    <circle cx="26" cy="36" r="4" fill="#EF5350"/>
    <circle cx="26" cy="46" r="4" fill="#EF5350"/>
    <circle cx="23" cy="41" r="3.5" fill="#B71C1C"/>
  </g>
</svg>