<svg viewBox="0 0 100 100" xmlns="http://www.w3.org/2000/svg">
  <path d="M37 95 L63 95 L60 79 L40 79 Z" fill="#B97040"/>
  <rect x="34" y="74" width="32" height="7" rx="3.5" fill="#C8814E"/>
  <ellipse cx="50" cy="79" rx="13" ry="3.5" fill="#4E342E"/>
  <path d="M50 79 L50 46" stroke="#6B8E4E" stroke-width="3" fill="none" stroke-linecap="round"/>
  <path d="M50 68 C42 62 34 56 26 52" stroke="#6B8E4E" stroke-width="2" fill="none" stroke-linecap="round"/>
  <path d="M50 56 C58 50 66 44 74 40" stroke="#6B8E4E" stroke-width="2" fill="none" stroke-linecap="round"/>
  <g fill="#7BA05A">
    <circle cx="50" cy="46" r="8"/><circle cx="42" cy="42" r="7"/><circle cx="58" cy="42" r="7"/>
    <circle cx="50" cy="34" r="7"/><circle cx="38" cy="38" r="6.5"/><circle cx="62" cy="38" r="6.5"/>
    <circle cx="24" cy="52" r="7"/><circle cx="32" cy="50" r="6.5"/><circle cx="40" cy="54" r="6"/>
    <circle cx="76" cy="38" r="7"/><circle cx="68" cy="42" r="6.5"/><circle cx="60" cy="46" r="6"/>
  </g>
  <g fill="#9CBA74" opacity="0.6">
    <circle cx="50" cy="44" r="5.5"/><circle cx="42" cy="40" r="5"/><circle cx="58" cy="40" r="5"/>
    <circle cx="50" cy="32" r="5"/><circle cx="24" cy="50" r="5"/><circle cx="76" cy="36" r="5"/>
  </g>
  <g fill="#FDD835">
    <circle cx="50" cy="22" r="5"/><circle cx="44" cy="19" r="4"/><circle cx="56" cy="19" r="4"/>
    <circle cx="47" cy="14" r="3.5"/><circle cx="53" cy="14" r="3.5"/><circle cx="50" cy="10" r="3"/>
  </g>
  <g fill="#FFF176" opacity="0.7">
    <circle cx="50" cy="21" r="2.5"/><circle cx="44" cy="18" r="2"/><circle cx="56" cy="18" r="2"/>
  </g>
</svg>