<svg viewBox="0 0 100 100" xmlns="http://www.w3.org/2000/svg">
  <ellipse cx="50" cy="92" rx="12" ry="4" fill="#8D6E63" opacity="0.3"/>
  <path d="M50 88 C36 84 24 72 22 58 C20 44 28 32 36 26 C42 22 50 20 50 20 C50 20 58 22 64 26 C72 32 80 44 78 58 C76 72 64 84 50 88 Z" fill="#880E4F"/>
  <path d="M50 20 L50 88" stroke="#AD1457" stroke-width="2.5" fill="none"/>
  <path d="M28 50 C32 46 38 44 44 44" stroke="#F48FB1" stroke-width="1.5" fill="none" opacity="0.6"/>
  <path d="M72 50 C68 46 62 44 56 44" stroke="#F48FB1" stroke-width="1.5" fill="none" opacity="0.6"/>
  <path d="M26 60 C30 58 36 56 42 56" stroke="#F48FB1" stroke-width="1.5" fill="none" opacity="0.6"/>
  <path d="M74 60 C70 58 64 56 58 56" stroke="#F48FB1" stroke-width="1.5" fill="none" opacity="0.6"/>
  <path d="M50 20 C46 12 44 6 46 2 C48 6 50 14 50 20 Z" fill="#C62828"/>
  <ellipse cx="42" cy="38" rx="6" ry="3" fill="#AD1457" opacity="0.5" transform="rotate(-15 42 38)"/>
</svg>