<svg viewBox="0 0 100 100" xmlns="http://www.w3.org/2000/svg">
  <ellipse cx="50" cy="92" rx="18" ry="5" fill="#8D6E63" opacity="0.3"/>
  <path d="M50 88 C50 76 50 64 50 52" stroke="#8D6E63" stroke-width="5" fill="none" stroke-linecap="round"/>
  <path d="M50 70 C42 64 32 58 24 56" stroke="#8D6E63" stroke-width="2.5" fill="none" stroke-linecap="round"/>
  <path d="M50 56 C58 50 68 44 76 42" stroke="#8D6E63" stroke-width="2.5" fill="none" stroke-linecap="round"/>
  <path d="M24 56 C18 50 14 42 16 34 C22 40 24 50 24 56 Z" fill="#546E7A"/>
  <path d="M76 42 C82 36 86 28 84 20 C78 26 76 36 76 42 Z" fill="#607D8B"/>
  <path d="M50 52 C42 46 36 36 34 24 C40 28 46 40 50 52 Z" fill="#607D8B"/>
  <path d="M50 52 C58 46 64 36 66 24 C60 28 54 40 50 52 Z" fill="#546E7A"/>
  <g fill="#B2DFDB" opacity="0.9">
    <circle cx="50" cy="16" r="3"/><circle cx="44" cy="14" r="2.5"/><circle cx="56" cy="14" r="2.5"/>
    <circle cx="40" cy="18" r="2"/><circle cx="60" cy="18" r="2"/>
    <circle cx="46" cy="10" r="2"/><circle cx="52" cy="10" r="2"/>
  </g>
  <ellipse cx="38" cy="40" rx="6" ry="4" fill="#78909C" opacity="0.4" transform="rotate(-20 38 40)"/>
</svg>