<svg viewBox="0 0 100 100" xmlns="http://www.w3.org/2000/svg">
  <path d="M50 88 C50 76 48 62 44 50" stroke="#558B2F" stroke-width="2.5" fill="none" stroke-linecap="round"/>
  <path d="M50 88 C50 76 52 62 56 50" stroke="#43A047" stroke-width="2" fill="none" stroke-linecap="round"/>
  <path d="M44 50 C40 40 40 28 44 20" stroke="#388E3C" stroke-width="2" fill="none" stroke-linecap="round"/>
  <path d="M56 50 C60 40 60 28 56 20" stroke="#43A047" stroke-width="2" fill="none" stroke-linecap="round"/>
  <g fill="#CE93D8">
    <path d="M44 20 C40 16 36 12 34 8 C38 8 44 12 44 20 Z"/>
    <path d="M44 20 C42 14 44 8 48 6 C48 10 48 16 44 20 Z"/>
    <path d="M44 20 C48 16 52 14 54 10 C52 14 48 18 44 20 Z"/>
    <path d="M56 20 C60 16 64 12 66 8 C62 8 56 12 56 20 Z"/>
    <path d="M56 20 C58 14 56 8 52 6 C52 10 52 16 56 20 Z"/>
    <path d="M56 20 C52 16 48 14 46 10 C48 14 52 18 56 20 Z"/>
  </g>
  <circle cx="44" cy="20" r="5" fill="#BA68C8"/>
  <circle cx="56" cy="20" r="5" fill="#CE93D8"/>
  <circle cx="44" cy="20" r="3" fill="#E1BEE7"/>
  <circle cx="56" cy="20" r="3" fill="#F3E5F5"/>
</svg>