<svg viewBox="0 0 100 100" xmlns="http://www.w3.org/2000/svg">
  <path d="M46 6 C44 4 44 2 46 2 C48 4 50 6 50 8 C52 6 54 4 56 2 C56 4 56 6 54 8" stroke="#558B2F" stroke-width="2" fill="none" stroke-linecap="round"/>
  <g fill="#558B2F" opacity="0.7">
    <path d="M40 12 C36 8 30 8 28 10 C32 10 36 12 40 14 Z"/>
    <path d="M60 12 C64 8 70 8 72 10 C68 10 64 12 60 14 Z"/>
  </g>
  <path d="M44 16 C43 28 42 44 42 58 C42 70 44 80 46 88 C47 92 48 96 50 98 C52 96 53 92 54 88 C56 80 58 70 58 58 C58 44 57 28 56 16 Z" fill="#8D6E63"/>
  <path d="M44 16 C43 28 42 44 42 58" stroke="#795548" stroke-width="1" fill="none" opacity="0.5"/>
  <g stroke="#6D4C41" stroke-width="1" fill="none" opacity="0.4">
    <path d="M44 30 C40 28 36 28 34 30"/>
    <path d="M56 40 C60 38 64 38 66 40"/>
    <path d="M43 52 C38 52 34 54 32 58"/>
    <path d="M57 60 C62 60 66 62 68 66"/>
  </g>
  <ellipse cx="44" cy="24" rx="4" ry="2.5" fill="#A1887F" opacity="0.4" transform="rotate(-10 44 24)"/>
</svg>