<svg viewBox="0 0 100 100" xmlns="http://www.w3.org/2000/svg">
  <path d="M50 88 C50 74 50 60 50 46" stroke="#5D4037" stroke-width="2" fill="none" stroke-linecap="round"/>
  <path d="M50 80 C44 72 34 68 22 68 C26 60 38 64 50 74 Z" fill="#80CBC4"/>
  <path d="M50 80 C56 72 66 68 78 68 C74 60 62 64 50 74 Z" fill="#4DB6AC"/>
  <path d="M50 66 C44 58 34 54 22 52 C26 44 38 48 50 62 Z" fill="#4DB6AC"/>
  <path d="M50 66 C56 58 66 54 78 52 C74 44 62 48 50 62 Z" fill="#26A69A"/>
  <path d="M50 52 C44 44 34 40 22 36 C26 28 38 32 50 48 Z" fill="#80CBC4"/>
  <path d="M50 52 C56 44 66 40 78 36 C74 28 62 32 50 48 Z" fill="#4DB6AC"/>
  <circle cx="34" cy="66" r="5" fill="#80CBC4"/>
  <circle cx="66" cy="66" r="5" fill="#4DB6AC"/>
  <circle cx="34" cy="50" r="4" fill="#4DB6AC"/>
  <circle cx="66" cy="50" r="4" fill="#26A69A"/>
</svg>