<svg viewBox="0 0 100 100" xmlns="http://www.w3.org/2000/svg">
  <path d="M50 88 C46 78 40 68 36 58 C32 48 30 36 34 26 C38 16 46 12 50 12 C54 12 62 16 66 26 C70 36 68 48 64 58 C60 68 54 78 50 88 Z" fill="#C8A05A"/>
  <path d="M50 88 C47 78 42 68 39 58 C36 48 34 38 37 28 C40 20 46 14 50 14 C54 14 60 20 63 28 C66 38 64 48 61 58 C58 68 53 78 50 88 Z" fill="#D4AE6A"/>
  <path d="M36 38 C30 34 26 36 26 42 C26 36 32 30 36 38 Z" fill="#BF8F40"/>
  <path d="M34 54 C28 52 24 56 26 62 C24 56 30 48 34 54 Z" fill="#BF8F40"/>
  <path d="M64 38 C70 34 74 36 74 42 C74 36 68 30 64 38 Z" fill="#BF8F40"/>
  <path d="M66 54 C72 52 76 56 74 62 C76 56 70 48 66 54 Z" fill="#BF8F40"/>
  <path d="M40 70 C34 70 30 74 32 80 C30 74 36 66 40 70 Z" fill="#BF8F40"/>
  <path d="M60 70 C66 70 70 74 68 80 C70 74 64 66 60 70 Z" fill="#BF8F40"/>
  <ellipse cx="44" cy="28" rx="6" ry="3" fill="white" opacity="0.12" transform="rotate(-15 44 28)"/>
</svg>