<svg viewBox="0 0 100 100" xmlns="http://www.w3.org/2000/svg">
  <path d="M37 95 L63 95 L60 79 L40 79 Z" fill="#B97040"/>
  <rect x="34" y="74" width="32" height="7" rx="3.5" fill="#C8814E"/>
  <ellipse cx="50" cy="79" rx="13" ry="3.5" fill="#4E342E"/>
  <path d="M50 79 C50 70 48 60 46 48 C44 36 44 26 44 14" stroke="#795548" stroke-width="2" fill="none" stroke-linecap="round"/>
  <g>
    <line x1="44" y1="60" x2="36" y2="55" stroke="#3B7A28" stroke-width="2.2" stroke-linecap="round"/>
    <line x1="44" y1="60" x2="52" y2="55" stroke="#4E8A36" stroke-width="2.2" stroke-linecap="round"/>
    <line x1="44" y1="50" x2="36" y2="45" stroke="#3B7A28" stroke-width="2.2" stroke-linecap="round"/>
    <line x1="44" y1="50" x2="52" y2="45" stroke="#4E8A36" stroke-width="2.2" stroke-linecap="round"/>
    <line x1="44" y1="40" x2="36" y2="35" stroke="#3B7A28" stroke-width="2.2" stroke-linecap="round"/>
    <line x1="44" y1="40" x2="52" y2="35" stroke="#4E8A36" stroke-width="2.2" stroke-linecap="round"/>
    <line x1="44" y1="30" x2="37" y2="25" stroke="#3B7A28" stroke-width="2" stroke-linecap="round"/>
    <line x1="44" y1="30" x2="51" y2="25" stroke="#4E8A36" stroke-width="2" stroke-linecap="round"/>
    <line x1="44" y1="20" x2="38" y2="16" stroke="#3B7A28" stroke-width="1.8" stroke-linecap="round"/>
    <line x1="44" y1="20" x2="50" y2="16" stroke="#4E8A36" stroke-width="1.8" stroke-linecap="round"/>
  </g>
  <g fill="#F48FB1" opacity="0.9">
    <circle cx="36" cy="53" r="2.5"/><circle cx="52" cy="53" r="2.5"/>
    <circle cx="36" cy="43" r="2.5"/><circle cx="52" cy="43" r="2.5"/>
    <circle cx="44" cy="12" r="3.5"/>
  </g>
</svg>