<svg viewBox="0 0 100 100" xmlns="http://www.w3.org/2000/svg">
  <g fill="#33691E">
    <path d="M50 10 C50 10 44 4 38 2 C42 6 46 8 50 10 Z"/>
    <path d="M50 10 C50 10 56 4 62 2 C58 6 54 8 50 10 Z"/>
    <path d="M50 10 C48 2 46 -2 46 -4 C48 2 50 6 50 10 Z"/>
  </g>
  <path d="M50 10 C47 24 45 40 44 56 C43 70 43 82 44 92 C44 96 46 98 48 96 C50 94 50 90 50 86 C50 78 50 66 50 54 C50 40 52 26 50 10 Z" fill="#212121"/>
  <path d="M50 10 C50 24 50 40 50 56 C50 70 50 82 50 92" stroke="#37474F" stroke-width="3" fill="none" stroke-linecap="round"/>
  <g fill="#455A64" opacity="0.5">
    <path d="M50 30 C46 28 44 32 48 32 Z"/><path d="M50 42 C54 40 56 44 52 44 Z"/>
    <path d="M50 54 C46 52 44 56 48 56 Z"/><path d="M50 66 C54 64 56 68 52 68 Z"/>
    <path d="M50 76 C46 74 44 78 48 78 Z"/>
  </g>
  <path d="M44 92 C44 96 46 100 50 100 C52 98 52 94 50 90 Z" fill="#1A1A1A"/>
</svg>