<svg viewBox="0 0 100 100" xmlns="http://www.w3.org/2000/svg">
  <path d="M50 8 C52 4 54 2 54 2 C52 4 50 6 50 8 Z" fill="#33691E"/>
  <path d="M50 8 C44 4 40 4 40 6 C44 6 48 6 50 8 Z" fill="#43A047"/>
  <path d="M50 8 C52 18 56 30 60 44 C64 56 68 66 70 76 C72 84 70 92 66 94 C62 96 58 92 56 86 C52 76 50 62 48 50 C46 38 44 26 46 16 C47 12 48 10 50 8 Z" fill="#4CAF50"/>
  <path d="M50 8 C50 20 52 36 54 50 C56 62 58 72 60 80 C62 88 62 92 60 92 C58 92 56 88 54 80 C52 70 50 58 48 46 C46 34 46 20 50 8 Z" fill="#66BB6A"/>
  <g stroke="#388E3C" stroke-width="1.5" fill="none" opacity="0.5">
    <path d="M50 28 C46 32 46 38 50 40"/><path d="M52 52 C56 48 58 54 54 56"/>
    <path d="M54 66 C50 70 50 76 54 78"/>
  </g>
  <path d="M66 94 C68 98 68 100 66 100 C64 100 62 98 62 96 Z" fill="#43A047"/>
</svg>