<svg viewBox="0 0 100 100" xmlns="http://www.w3.org/2000/svg">
  <path d="M50 8 C52 4 54 2 54 2 C54 4 52 6 50 8 Z" fill="#558B2F"/>
  <path d="M50 8 C44 4 40 2 38 4 C42 4 46 6 50 8 Z" fill="#43A047"/>
  <ellipse cx="50" cy="55" rx="38" ry="32" fill="#F57F17"/>
  <ellipse cx="50" cy="53" rx="34" ry="28" fill="#F9A825"/>
  <ellipse cx="50" cy="52" rx="30" ry="24" fill="#FBC02D"/>
  <g stroke="#F57F17" stroke-width="2" fill="none" opacity="0.6">
    <path d="M20 55 C20 45 26 38 35 35"/>
    <path d="M80 55 C80 45 74 38 65 35"/>
    <path d="M35 30 C42 26 58 26 65 30"/>
    <path d="M22 62 C24 72 32 78 42 80"/>
    <path d="M78 62 C76 72 68 78 58 80"/>
  </g>
  <ellipse cx="38" cy="40" rx="9" ry="5" fill="white" opacity="0.15" transform="rotate(-20 38 40)"/>
</svg>