<svg viewBox="0 0 100 100" xmlns="http://www.w3.org/2000/svg">
  <path d="M37 95 L63 95 L60 79 L40 79 Z" fill="#B97040"/>
  <rect x="34" y="74" width="32" height="7" rx="3.5" fill="#C8814E"/>
  <ellipse cx="50" cy="79" rx="13" ry="3.5" fill="#4E342E"/>
  <path d="M50 79 C50 68 50 56 50 44" stroke="#4CAF50" stroke-width="2.5" fill="none" stroke-linecap="round"/>
  <path d="M50 70 C42 65 34 60 28 55" stroke="#4CAF50" stroke-width="2" fill="none" stroke-linecap="round"/>
  <path d="M50 58 C58 53 66 48 72 43" stroke="#4CAF50" stroke-width="2" fill="none" stroke-linecap="round"/>
  <g fill="#66BB6A">
    <ellipse cx="50" cy="44" rx="10" ry="6.5" transform="rotate(-5 50 44)"/>
    <ellipse cx="50" cy="32" rx="10" ry="6.5" transform="rotate(-5 50 32)"/>
    <ellipse cx="50" cy="20" rx="8" ry="5.5" transform="rotate(-5 50 20)"/>
    <ellipse cx="28" cy="53" rx="9" ry="6" transform="rotate(20 28 53)"/>
    <ellipse cx="20" cy="48" rx="8" ry="5" transform="rotate(20 20 48)"/>
    <ellipse cx="72" cy="41" rx="9" ry="6" transform="rotate(-20 72 41)"/>
    <ellipse cx="80" cy="36" rx="8" ry="5" transform="rotate(-20 80 36)"/>
  </g>
  <g fill="#A5D6A7" opacity="0.7">
    <ellipse cx="50" cy="42" rx="7" ry="4"/>
    <ellipse cx="50" cy="30" rx="7" ry="4"/>
    <ellipse cx="28" cy="51" rx="6" ry="3.5" transform="rotate(20 28 51)"/>
    <ellipse cx="72" cy="39" rx="6" ry="3.5" transform="rotate(-20 72 39)"/>
  </g>
  <g fill="white" opacity="0.8">
    <circle cx="50" cy="14" r="3"/><circle cx="46" cy="11" r="2.5"/><circle cx="54" cy="11" r="2.5"/>
    <circle cx="48" cy="8" r="2"/><circle cx="52" cy="8" r="2"/>
  </g>
</svg>