<svg viewBox="0 0 100 100" xmlns="http://www.w3.org/2000/svg">
  <path d="M36 50 C28 44 22 34 26 24 C30 14 42 12 50 20 C58 12 70 14 74 24 C78 34 72 44 64 50 C58 54 52 56 50 96 C48 56 42 54 36 50 Z" fill="#E53935"/>
  <path d="M36 50 C30 44 26 36 28 26 C30 18 38 14 44 20 C46 22 48 26 50 30 C44 28 38 30 36 38 C34 44 36 50 36 50 Z" fill="#EF5350"/>
  <g fill="#F9A825" opacity="0.9">
    <ellipse cx="36" cy="36" rx="2" ry="1.5" transform="rotate(20 36 36)"/>
    <ellipse cx="44" cy="28" rx="2" ry="1.5" transform="rotate(-10 44 28)"/>
    <ellipse cx="56" cy="28" rx="2" ry="1.5" transform="rotate(10 56 28)"/>
    <ellipse cx="64" cy="36" rx="2" ry="1.5" transform="rotate(-20 64 36)"/>
    <ellipse cx="50" cy="34" rx="2" ry="1.5"/>
    <ellipse cx="42" cy="42" rx="2" ry="1.5" transform="rotate(15 42 42)"/>
    <ellipse cx="58" cy="42" rx="2" ry="1.5" transform="rotate(-15 58 42)"/>
  </g>
  <g fill="#2E7D32">
    <path d="M50 20 C50 20 40 10 32 8 C38 12 44 16 50 20 Z"/>
    <path d="M50 20 C50 20 60 10 68 8 C62 12 56 16 50 20 Z"/>
    <path d="M50 20 C50 20 48 8 48 2 C50 8 52 14 50 20 Z"/>
  </g>
</svg>