<svg viewBox="0 0 100 100" xmlns="http://www.w3.org/2000/svg">
  <path d="M50 92 C50 82 50 70 50 58" stroke="#4E342E" stroke-width="3" fill="none" stroke-linecap="round"/>
  <path d="M50 76 C46 70 38 66 28 64 C34 60 44 62 50 70 Z" fill="#2E7D32"/>
  <path d="M50 64 C54 58 62 54 72 52 C66 48 56 50 50 58 Z" fill="#388E3C"/>
  <path d="M50 52 C46 46 38 42 28 40 C34 36 44 38 50 46 Z" fill="#2E7D32"/>
  <path d="M50 40 C54 34 62 30 72 28 C66 24 56 26 50 34 Z" fill="#388E3C"/>
  <path d="M50 28 C46 22 40 18 32 16 C38 12 46 14 50 22 Z" fill="#43A047"/>
  <g stroke="#AD1457" stroke-width="2" fill="none" opacity="0.7">
    <path d="M36 68 C30 66 26 62 28 58"/><path d="M64 56 C70 52 74 48 72 44"/>
    <path d="M36 44 C30 42 26 38 28 34"/><path d="M64 32 C70 28 74 24 72 20"/>
  </g>
  <path d="M50 92 C48 96 46 100 46 100 C48 98 52 98 54 100 C54 100 52 96 50 92 Z" fill="#880E4F"/>
</svg>