<svg viewBox="0 0 100 100" xmlns="http://www.w3.org/2000/svg">
  <path d="M50 90 C50 78 50 64 50 50 C50 36 50 22 50 12" stroke="#5D4037" stroke-width="2.5" fill="none" stroke-linecap="round"/>
  <path d="M50 50 C42 40 30 32 18 30 C26 28 40 34 50 46 C60 34 74 28 82 30 C70 32 58 40 50 50 Z" fill="#8BC34A"/>
  <path d="M50 34 C42 24 32 16 22 14 C30 12 44 20 50 30 C56 20 70 12 78 14 C68 16 58 24 50 34 Z" fill="#9CCC65"/>
  <path d="M50 66 C42 56 30 50 18 48 C26 46 40 52 50 62 C60 52 74 46 82 48 C70 50 58 56 50 66 Z" fill="#7CB342"/>
  <path d="M50 50 L50 12" stroke="#558B2F" stroke-width="1.5" fill="none" opacity="0.5"/>
  <g stroke="#558B2F" stroke-width="1" fill="none" opacity="0.4">
    <path d="M50 44 C44 40 36 38 28 38"/><path d="M50 44 C56 40 64 38 72 38"/>
    <path d="M50 28 C44 24 38 22 32 22"/><path d="M50 28 C56 24 62 22 68 22"/>
  </g>
</svg>