<svg viewBox="0 0 100 100" xmlns="http://www.w3.org/2000/svg">
  <path d="M37 95 L63 95 L60 79 L40 79 Z" fill="#B97040"/>
  <rect x="34" y="74" width="32" height="7" rx="3.5" fill="#C8814E"/>
  <ellipse cx="50" cy="79" rx="13" ry="3.5" fill="#4E342E"/>
  <path d="M50 79 C52 68 54 56 52 44 C50 32 48 20 50 10" stroke="#795548" stroke-width="2" fill="none" stroke-linecap="round"/>
  <g fill="#558B2F">
    <ellipse cx="52" cy="70" rx="7" ry="3.5" transform="rotate(15 52 70)"/>
    <ellipse cx="54" cy="60" rx="7" ry="3.5" transform="rotate(20 54 60)"/>
    <ellipse cx="52" cy="50" rx="7" ry="3.5" transform="rotate(15 52 50)"/>
    <ellipse cx="50" cy="40" rx="6" ry="3" transform="rotate(5 50 40)"/>
    <ellipse cx="50" cy="30" rx="6" ry="3" transform="rotate(-5 50 30)"/>
    <ellipse cx="50" cy="20" rx="5" ry="2.5" transform="rotate(0 50 20)"/>
  </g>
  <g fill="#7CB342" opacity="0.7">
    <ellipse cx="52" cy="68" rx="5" ry="2.5" transform="rotate(15 52 68)"/>
    <ellipse cx="54" cy="58" rx="5" ry="2.5" transform="rotate(20 54 58)"/>
    <ellipse cx="52" cy="48" rx="5" ry="2.5" transform="rotate(15 52 48)"/>
  </g>
</svg>