<svg viewBox="0 0 100 100" xmlns="http://www.w3.org/2000/svg">
  <circle cx="50" cy="60" r="4" fill="#5D4037"/>
  <g fill="#1B5E20">
    <ellipse cx="50" cy="38" rx="12" ry="18" transform="rotate(0 50 38)"/>
    <ellipse cx="72" cy="46" rx="12" ry="18" transform="rotate(60 72 46)"/>
    <ellipse cx="72" cy="72" rx="12" ry="18" transform="rotate(120 72 72)"/>
    <ellipse cx="50" cy="82" rx="12" ry="18" transform="rotate(180 50 82)"/>
    <ellipse cx="28" cy="72" rx="12" ry="18" transform="rotate(240 28 72)"/>
    <ellipse cx="28" cy="46" rx="12" ry="18" transform="rotate(300 28 46)"/>
  </g>
  <g fill="#2E7D32" opacity="0.7">
    <ellipse cx="50" cy="40" rx="8" ry="13" transform="rotate(0 50 40)"/>
    <ellipse cx="70" cy="47" rx="8" ry="13" transform="rotate(60 70 47)"/>
    <ellipse cx="70" cy="71" rx="8" ry="13" transform="rotate(120 70 71)"/>
    <ellipse cx="50" cy="80" rx="8" ry="13" transform="rotate(180 50 80)"/>
    <ellipse cx="30" cy="71" rx="8" ry="13" transform="rotate(240 30 71)"/>
    <ellipse cx="30" cy="47" rx="8" ry="13" transform="rotate(300 30 47)"/>
  </g>
  <g stroke="#1B5E20" stroke-width="1.5" fill="none" opacity="0.6">
    <line x1="50" y1="56" x2="50" y2="26"/><line x1="50" y1="56" x2="69" y2="45"/>
    <line x1="50" y1="56" x2="69" y2="69"/><line x1="50" y1="56" x2="50" y2="78"/>
    <line x1="50" y1="56" x2="31" y2="69"/><line x1="50" y1="56" x2="31" y2="45"/>
  </g>
  <circle cx="50" cy="60" r="5" fill="#795548"/>
  <circle cx="50" cy="60" r="3" fill="#A1887F"/>
</svg>