<svg viewBox="0 0 100 100" xmlns="http://www.w3.org/2000/svg">
  <ellipse cx="50" cy="60" rx="22" ry="28" fill="#6D4C41"/>
  <ellipse cx="50" cy="58" rx="18" ry="24" fill="#795548"/>
  <g stroke="#5D4037" stroke-width="1.5" fill="none" opacity="0.5">
    <line x1="50" y1="34" x2="50" y2="84"/>
    <path d="M36 46 C40 50 46 54 50 58"/>
    <path d="M64 46 C60 50 54 54 50 58"/>
    <path d="M34 60 C38 62 44 64 50 64"/>
    <path d="M66 60 C62 62 56 64 50 64"/>
  </g>
  <ellipse cx="44" cy="46" rx="5" ry="3" fill="#A1887F" opacity="0.4" transform="rotate(-20 44 46)"/>
  <path d="M50 32 C44 28 38 22 38 14 C38 8 44 6 50 8 C56 6 62 8 62 14 C62 22 56 28 50 32 Z" fill="#388E3C"/>
  <path d="M50 32 L50 14" stroke="#2E7D32" stroke-width="2" fill="none"/>
  <path d="M38 14 C34 10 30 8 28 10" stroke="#43A047" stroke-width="1.5" fill="none" opacity="0.6"/>
  <path d="M62 14 C66 10 70 8 72 10" stroke="#388E3C" stroke-width="1.5" fill="none" opacity="0.6"/>
</svg>