<svg viewBox="0 0 100 100" xmlns="http://www.w3.org/2000/svg">
  <path d="M50 92 C50 80 50 68 50 56" stroke="#5D4037" stroke-width="2.5" fill="none" stroke-linecap="round"/>
  <path d="M50 56 C50 44 50 32 50 20" stroke="#388E3C" stroke-width="2" fill="none" stroke-linecap="round"/>
  <path d="M50 76 C42 70 30 66 16 66 C22 60 36 62 50 70 Z" fill="#33691E"/>
  <path d="M50 76 C58 70 70 66 84 66 C78 60 64 62 50 70 Z" fill="#2E7D32"/>
  <path d="M50 60 C42 54 30 50 16 50 C22 44 36 46 50 54 Z" fill="#388E3C"/>
  <path d="M50 60 C58 54 70 50 84 50 C78 44 64 46 50 54 Z" fill="#43A047"/>
  <path d="M50 44 C42 38 32 34 18 34 C24 28 38 30 50 40 Z" fill="#4CAF50"/>
  <path d="M50 44 C58 38 68 34 82 34 C76 28 62 30 50 40 Z" fill="#66BB6A"/>
  <path d="M50 28 C44 22 34 18 22 18 C28 12 42 14 50 24 Z" fill="#7CB342"/>
  <path d="M50 28 C56 22 66 18 78 18 C72 12 58 14 50 24 Z" fill="#9CCC65"/>
  <ellipse cx="50" cy="58" rx="6" ry="4" fill="#E8F5E9" opacity="0.3"/>
</svg>