<svg viewBox="0 0 100 100" xmlns="http://www.w3.org/2000/svg">
  <path d="M37 95 L63 95 L60 79 L40 79 Z" fill="#B97040"/>
  <rect x="34" y="74" width="32" height="7" rx="3.5" fill="#C8814E"/>
  <ellipse cx="50" cy="79" rx="13" ry="3.5" fill="#4E342E"/>
  <path d="M50 79 C48 68 46 56 44 44 C42 32 40 22 40 12" stroke="#2E7D32" stroke-width="2" fill="none" stroke-linecap="round"/>
  <path d="M44 60 C36 55 28 52 20 52" stroke="#2E7D32" stroke-width="1.8" fill="none" stroke-linecap="round"/>
  <path d="M43 46 C51 42 58 38 64 34" stroke="#2E7D32" stroke-width="1.8" fill="none" stroke-linecap="round"/>
  <g fill="#43A047">
    <circle cx="18" cy="52" r="8"/><circle cx="26" cy="48" r="7"/>
    <circle cx="34" cy="52" r="7"/><circle cx="28" cy="58" r="6.5"/>
    <circle cx="66" cy="32" r="7"/><circle cx="60" cy="28" r="6.5"/>
    <circle cx="54" cy="34" r="6.5"/><circle cx="62" cy="38" r="6"/>
    <circle cx="38" cy="14" r="7"/><circle cx="44" cy="10" r="6.5"/>
  </g>
  <g fill="#66BB6A" opacity="0.7">
    <circle cx="18" cy="50" r="5.5"/><circle cx="26" cy="46" r="5"/>
    <circle cx="34" cy="50" r="5"/><circle cx="66" cy="30" r="5"/>
    <circle cx="60" cy="26" r="4.5"/><circle cx="38" cy="12" r="4.5"/>
  </g>
  <g fill="white" opacity="0.8">
    <circle cx="50" cy="79" r="0"/>
    <circle cx="22" cy="50" r="2.5"/><circle cx="64" cy="30" r="2.5"/><circle cx="40" cy="10" r="2.5"/>
  </g>
</svg>