<svg viewBox="0 0 100 100" xmlns="http://www.w3.org/2000/svg">
  <path d="M50 92 C50 80 50 68 48 56 C46 44 44 34 42 26" stroke="#558B2F" stroke-width="2.5" fill="none" stroke-linecap="round"/>
  <path d="M50 92 C50 80 50 68 52 56 C54 44 56 34 58 26" stroke="#43A047" stroke-width="2.5" fill="none" stroke-linecap="round"/>
  <path d="M48 68 C42 62 34 58 26 60" stroke="#558B2F" stroke-width="1.8" fill="none" stroke-linecap="round"/>
  <path d="M52 56 C58 50 66 46 74 48" stroke="#43A047" stroke-width="1.8" fill="none" stroke-linecap="round"/>
  <path d="M46 48 C40 42 32 40 24 42" stroke="#558B2F" stroke-width="1.8" fill="none" stroke-linecap="round"/>
  <path d="M54 38 C60 32 68 30 76 32" stroke="#43A047" stroke-width="1.8" fill="none" stroke-linecap="round"/>
  <g fill="#388E3C">
    <circle cx="26" cy="58" r="8"/><circle cx="74" cy="46" r="8"/>
    <circle cx="24" cy="40" r="7"/><circle cx="76" cy="30" r="7"/>
    <circle cx="42" cy="24" r="8"/><circle cx="58" cy="24" r="8"/>
  </g>
  <g fill="#66BB6A" opacity="0.7">
    <circle cx="26" cy="57" r="5"/><circle cx="74" cy="45" r="5"/>
    <circle cx="24" cy="39" r="4.5"/><circle cx="76" cy="29" r="4.5"/>
    <circle cx="42" cy="23" r="5"/><circle cx="58" cy="23" r="5"/>
  </g>
  <g fill="white" opacity="0.8">
    <circle cx="42" cy="16" r="2.5"/><circle cx="46" cy="14" r="2"/><circle cx="50" cy="13" r="2.5"/>
    <circle cx="54" cy="14" r="2"/><circle cx="58" cy="16" r="2.5"/>
  </g>
</svg>