<svg viewBox="0 0 100 100" xmlns="http://www.w3.org/2000/svg">
  <path d="M20 76 C28 60 40 44 50 34 C60 24 72 18 80 20" stroke="#558B2F" stroke-width="5" fill="none" stroke-linecap="round"/>
  <path d="M20 76 C28 60 40 44 50 34 C60 24 72 18 80 20" stroke="#8BC34A" stroke-width="2.5" fill="none" stroke-linecap="round"/>
  <path d="M20 76 C16 70 12 62 14 54 C16 62 20 70 22 76 Z" fill="#33691E"/>
  <path d="M80 20 C86 16 88 10 86 6 C84 10 82 16 80 22 Z" fill="#43A047"/>
  <g fill="#2E7D32" opacity="0.7">
    <path d="M32 64 C28 58 26 48 28 40 C24 48 24 60 30 66 Z"/>
    <path d="M44 52 C40 46 38 36 40 28 C36 36 36 48 42 54 Z"/>
    <path d="M56 40 C60 34 64 26 62 18 C58 26 56 34 56 40 Z"/>
    <path d="M68 30 C72 24 76 16 74 8 C70 16 68 24 68 30 Z"/>
  </g>
  <g fill="#558B2F" opacity="0.5">
    <path d="M30 68 C26 62 28 54 32 50 C30 54 28 62 32 68 Z"/>
    <path d="M42 56 C38 50 40 42 44 38 C42 42 40 50 44 56 Z"/>
  </g>
  <ellipse cx="50" cy="50" rx="7" ry="4" fill="#1B5E20" transform="rotate(-40 50 50)"/>
  <ellipse cx="50" cy="50" rx="4" ry="2" fill="#66BB6A" opacity="0.5" transform="rotate(-40 50 50)"/>
</svg>