<svg viewBox="0 0 100 100" xmlns="http://www.w3.org/2000/svg">
  <path d="M50 92 C50 78 48 64 44 52 C40 40 34 30 28 22" stroke="#5D4037" stroke-width="2.5" fill="none" stroke-linecap="round"/>
  <path d="M50 92 C52 78 54 64 58 52 C62 40 68 30 74 22" stroke="#5D4037" stroke-width="2" fill="none" stroke-linecap="round"/>
  <path d="M28 22 C18 14 12 8 16 4 C20 2 28 8 36 18 C44 28 50 44 50 58 Z" fill="#43A047"/>
  <path d="M74 22 C84 14 88 8 84 4 C80 2 72 8 64 18 C56 28 50 44 50 58 Z" fill="#388E3C"/>
  <path d="M44 66 C36 60 26 56 16 56 C22 52 34 52 44 60 Z" fill="#4CAF50"/>
  <path d="M56 74 C64 68 74 64 84 64 C78 60 66 60 56 68 Z" fill="#66BB6A"/>
  <path d="M46 52 C38 46 28 42 18 42 C24 38 36 38 46 46 Z" fill="#43A047"/>
  <g stroke="#2E7D32" stroke-width="1" fill="none" opacity="0.4">
    <path d="M50 58 C44 50 36 44 28 42"/><path d="M50 58 C56 50 64 44 72 42"/>
  </g>
</svg>