<svg viewBox="0 0 100 100" xmlns="http://www.w3.org/2000/svg">
  <path d="M30 6 C32 20 34 36 36 52 C38 68 40 80 38 96" stroke="#558B2F" stroke-width="4" fill="none" stroke-linecap="round"/>
  <path d="M30 6 C32 20 34 36 36 52 C38 68 40 80 38 96" stroke="#8BC34A" stroke-width="2" fill="none" stroke-linecap="round"/>
  <path d="M58 4 C58 18 58 34 60 50 C62 66 64 80 62 96" stroke="#43A047" stroke-width="4" fill="none" stroke-linecap="round"/>
  <path d="M58 4 C58 18 58 34 60 50 C62 66 64 80 62 96" stroke="#AED581" stroke-width="2" fill="none" stroke-linecap="round"/>
  <g fill="#33691E" opacity="0.7">
    <ellipse cx="32" cy="22" rx="3" ry="2"/>
    <ellipse cx="33" cy="38" rx="3" ry="2"/>
    <ellipse cx="35" cy="54" rx="3" ry="2"/>
    <ellipse cx="37" cy="70" rx="3" ry="2"/>
    <ellipse cx="39" cy="84" rx="3" ry="2"/>
    <ellipse cx="58" cy="20" rx="3" ry="2"/>
    <ellipse cx="59" cy="36" rx="3" ry="2"/>
    <ellipse cx="60" cy="52" rx="3" ry="2"/>
    <ellipse cx="61" cy="68" rx="3" ry="2"/>
    <ellipse cx="62" cy="82" rx="3" ry="2"/>
  </g>
  <path d="M30 6 C22 4 18 8 18 12 C22 8 28 6 30 8 Z" fill="#558B2F"/>
  <path d="M58 4 C66 2 70 6 70 10 C66 6 60 4 58 6 Z" fill="#43A047"/>
</svg>